<?xml version="1.0" encoding="utf-8"?>
<!-- Generator: Adobe Illustrator 25.0.0, SVG Export Plug-In . SVG Version: 6.00 Build 0)  -->
<svg version="1.1" id="Capa_1" xmlns="http://www.w3.org/2000/svg" xmlns:xlink="http://www.w3.org/1999/xlink" x="0px" y="0px"
	 width="100px" height="100px" viewBox="0 0 100 100" enable-background="new 0 0 100 100" xml:space="preserve">
<path fill="#FFFFFF" d="M88.3,38.8C86.6,21.1,72.5,6.9,54.7,5.2C53.5,5,52.2,5,51,5s-2.5,0.1-3.7,0.2c-17.8,1.7-32,15.9-33.7,33.6
	c-0.2,1.2-0.2,2.5-0.2,3.7c0,9.1,3.2,17.3,8.5,23.8c1.6,1.9,3.3,3.6,5.2,5.2L51,95.3l23.8-23.8c1.9-1.6,3.6-3.3,5.2-5.2
	c5.4-6.4,8.5-14.7,8.5-23.8C88.4,41.3,88.4,40.1,88.3,38.8z M51,57.5c-8.4,0-15.1-6.8-15.1-15.1S42.6,27.2,51,27.2
	S66.1,34,66.1,42.3S59.3,57.5,51,57.5z"/>
</svg>
