<svg  xmlns="http://www.w3.org/2000/svg"  x="0px" y="0px" width="40px" height="40px" viewBox="0 0 40 40">
<path fill="#ffffff" d="M28.1,22.4L28.1,22.4c0,0-3-1.6-4.3-2.6c-0.4-0.4-1.2-0.4-1.4-0.4c-0.7,0-1.1,0.5-1.1,0.5l0,0c0,0-0.3,0.3-0.7,0.7
c-0.6,0.5-1.2,0.5-1.9-0.2c-0.9-0.7-5-5.6-6.4-7.2c-0.3-0.4-0.5-0.7-0.5-1.1c0.1-0.7,0.9-1.2,1.2-1.4l0.1-0.1c0.9-0.6,1-1.6,0.7-2.2
c-0.3-0.4-1.9-4-2.1-4.4c-0.4-0.3-0.7-0.7-1.6-0.7C9.6,3.3,7,4.4,7,4.4C6.2,4.9,4.7,6,4.8,8.2c0.1,2.7,2.2,6.7,6.8,12.1
c4.7,5.9,10.1,8.5,12.4,8.5c1.9-0.1,3.9-2.6,4.4-3.9S28.5,22.8,28.1,22.4z"/>
<path fill="#ffffff" d="M20.5,35.8c-5.8-0.1-11.2-3.7-13.9-9.1c-1.2-2.4-1.7-4.8-1.6-7.5c0-0.2,0.3-0.4,0.5-0.4c0.1,0,0.2,0,0.4,0.2l0.4,0.4V20
c0,8.1,6.7,14.8,14.8,14.8c4.1,0,8.1-1.7,10.9-4.8c2.9-3.1,4.2-7.2,3.8-11.4c-0.7-6.4-5.3-11.6-11.5-13c-1.1-0.2-2.2-0.4-3.3-0.4
c-1.6,0-3.2,0.2-4.7,0.8c-0.1-0.3,0-0.6,0.1-0.9c0.2-0.4,0.5-0.6,0.9-0.7C18.6,4.2,19.8,4,21.2,4C22.1,4,23,4,24,4.2
c6.8,1.2,12.3,6.8,13.1,13.6c0.6,4.7-0.8,9.1-3.9,12.6s-7.6,5.5-12.3,5.5C20.8,35.8,20.5,35.8,20.5,35.8z"/>
</svg>
