<?xml version="1.0" encoding="utf-8"?>
<!-- Generator: Adobe Illustrator 25.0.0, SVG Export Plug-In . SVG Version: 6.00 Build 0)  -->
<svg version="1.1" id="Capa_1" xmlns="http://www.w3.org/2000/svg" xmlns:xlink="http://www.w3.org/1999/xlink" x="0px" y="0px"
	 width="100px" height="100px" viewBox="0 0 100 100" enable-background="new 0 0 100 100" xml:space="preserve">
<g>
	<g>
		<path fill="#FFFFFF" d="M84.2,36.8L54.5,18.3c-2.7-1.7-6.2-1.7-8.9,0L15.8,36.8c-2.3,1.4-3.6,3.9-3.6,6.5v36.3
			c0,4.2,3.5,7.7,7.9,7.7H80c4.4,0,7.9-3.4,7.9-7.7V43.3C87.9,40.7,86.5,38.3,84.2,36.8z M40.3,67.5L21.9,81.8
			c-0.5,0.4-1,0.5-1.6,0.5c-0.8,0-1.5-0.3-2-1c-0.9-1.1-0.7-2.7,0.4-3.6l18.4-14.3c1.1-0.9,2.7-0.7,3.6,0.4
			C41.6,65,41.4,66.6,40.3,67.5z M47.6,61.5L24.2,44.9c-2.6-1.8-1.3-5.8,1.9-5.8h47.7c3.2,0,4.5,4,1.9,5.8L52.4,61.5
			C51,62.5,49,62.5,47.6,61.5z M81.7,81.4c-0.5,0.6-1.3,1-2,1c-0.5,0-1.1-0.2-1.6-0.5L59.7,67.5c-1.1-0.9-1.3-2.5-0.4-3.6
			c0.9-1.1,2.5-1.3,3.6-0.4l18.4,14.3C82.4,78.6,82.6,80.2,81.7,81.4z"/>
		<path fill="#FFFFFF" d="M59.2,43.9H42.8c-1.7,0-3.1,1.4-3.1,3.1c0,1.7,1.4,3.1,3.1,3.1h16.4c1.7,0,3.1-1.4,3.1-3.1
			C62.3,45.3,60.9,43.9,59.2,43.9z"/>
	</g>
</g>
</svg>
