<?xml version="1.0" encoding="utf-8"?>
<!-- Generator: Adobe Illustrator 23.0.1, SVG Export Plug-In . SVG Version: 6.00 Build 0)  -->
<svg version="1.1" id="icons" xmlns="http://www.w3.org/2000/svg" xmlns:xlink="http://www.w3.org/1999/xlink" x="0px" y="0px"
	 width="100px" height="100px" viewBox="0 0 100 100" style="enable-background:new 0 0 100 100;" xml:space="preserve">
<g style="opacity:0.8;">
	<g>
		<path style="fill:#FFFFFF;" d="M50,8C26.8,8,8,26.8,8,50c0,2.6,0.2,5.2,0.7,7.7c0.3,1.8,2,2.9,3.8,2.6c1.8-0.3,2.9-2,2.6-3.8
			c-0.4-2.1-0.6-4.3-0.6-6.5c0-3.4,0.5-6.6,1.4-9.7H28c-0.4,3.1-0.6,6.3-0.6,9.7c0,1.8,1.4,3.2,3.2,3.2s3.2-1.4,3.2-3.2
			c0-3.2,0.2-6.5,0.7-9.7h12.2v45.1c-2.5-0.2-4.9-0.7-7.3-1.4c-1.7-0.5-3.5,0.4-4,2.1s0.4,3.5,2.1,4c4,1.2,8.2,1.9,12.5,1.9
			c23.2,0,42-18.8,42-42S73.2,8,50,8z M29.1,33.8H18.4c3.7-7.2,9.7-12.9,17.1-16.2C32.7,21.9,30.5,27.5,29.1,33.8z M46.8,33.8h-11
			c2.2-8.9,6.1-16.3,11-18.6V33.8z M81.6,33.8H70.9c-1.4-6.4-3.6-11.9-6.4-16.2C71.9,20.9,77.9,26.7,81.6,33.8z M53.2,15.2
			c4.9,2.3,8.8,9.7,11,18.6h-11C53.2,33.8,53.2,15.2,53.2,15.2z M53.2,40.3h12.2c0.5,3.2,0.7,6.5,0.7,9.7s-0.2,6.5-0.7,9.7H53.2
			V40.3z M53.2,84.8V66.2h11C62,75.1,58.2,82.5,53.2,84.8z M64.5,82.4c2.8-4.3,5-9.9,6.4-16.2h10.7C77.9,73.3,71.9,79.1,64.5,82.4z
			 M72,59.7c0.4-3.1,0.6-6.3,0.6-9.7s-0.2-6.6-0.6-9.7h12.2c0.9,3.1,1.4,6.3,1.4,9.7s-0.5,6.6-1.4,9.7H72z"/>
		<path style="fill:#FFFFFF;" d="M37.5,57.2L18,63.5c-1.8,0.6-2,3-0.4,3.9l4.8,2.8L11.3,81.4c-0.8,0.8-0.8,2.2,0,3l1.6,1.6
			c0.8,0.8,2.2,0.8,3,0l11.2-11.2l2.8,4.8c0.9,1.6,3.3,1.4,3.9-0.4L40.3,60C40.8,58.3,39.2,56.7,37.5,57.2z"/>
	</g>
</g>
</svg>
