<?xml version="1.0" encoding="utf-8"?>
<!-- Generator: Adobe Illustrator 25.0.0, SVG Export Plug-In . SVG Version: 6.00 Build 0)  -->
<svg version="1.1" id="Layer_1" xmlns="http://www.w3.org/2000/svg" xmlns:xlink="http://www.w3.org/1999/xlink" x="0px" y="0px"
	 width="200px" height="400.1px" viewBox="0 0 200 400.1" enable-background="new 0 0 200 400.1" xml:space="preserve">
<path opacity="0.15" fill="#FFFFFF" enable-background="new    " d="M0.8,9.7v-7c0-1,0.8-1.8,1.8-1.8h7c1,0,1.8,0.8,1.8,1.8v7
	c0,1-0.8,1.8-1.8,1.8h-7C1.6,11.5,0.8,10.6,0.8,9.7z"/>
<path opacity="0.15" fill="#FFFFFF" enable-background="new    " d="M13.3,22.2v-7c0-1,0.8-1.8,1.8-1.8h7c1,0,1.8,0.8,1.8,1.8v7
	c0,1-0.8,1.8-1.8,1.8h-7C14.1,24,13.3,23.2,13.3,22.2z"/>
<path opacity="0.15" fill="#FFFFFF" enable-background="new    " d="M15.1,0.8h7c1,0,1.8,0.8,1.8,1.8v7c0,1-0.8,1.8-1.8,1.8h-7
	c-1,0-1.8-0.8-1.8-1.8v-7C13.3,1.7,14.1,0.8,15.1,0.8z"/>
<path opacity="0.15" fill="#FFFFFF" enable-background="new    " d="M2.6,13.4h7c1,0,1.8,0.8,1.8,1.8v7c0,1-0.8,1.8-1.8,1.8h-7
	c-1,0-1.8-0.8-1.8-1.8v-7.1C0.8,14.2,1.6,13.4,2.6,13.4z"/>
<path opacity="0.15" fill="#FFFFFF" enable-background="new    " d="M25.8,34.6v-6.9c0-1,0.8-1.8,1.8-1.8h7c1,0,1.8,0.8,1.8,1.8v7
	c0,1-0.8,1.8-1.8,1.8h-7C26.6,36.5,25.8,35.7,25.8,34.6z"/>
<path opacity="0.15" fill="#FFFFFF" enable-background="new    " d="M38.3,47.2v-7c0-1,0.8-1.8,1.8-1.8h7c1,0,1.8,0.8,1.8,1.8v7
	c0,1-0.8,1.8-1.8,1.8H40C39.1,49,38.3,48.2,38.3,47.2z"/>
<path opacity="0.15" fill="#FFFFFF" enable-background="new    " d="M40.1,25.9h7c1,0,1.8,0.8,1.8,1.8v7c0,1-0.8,1.8-1.8,1.8h-7
	c-1,0-1.8-0.8-1.8-1.8v-7C38.3,26.7,39.1,25.9,40.1,25.9z"/>
<path opacity="0.15" fill="#FFFFFF" enable-background="new    " d="M27.6,38.4h7c1,0,1.8,0.8,1.8,1.8v7c0,1-0.8,1.8-1.8,1.8h-7
	c-1,0-1.8-0.8-1.8-1.8v-7C25.8,39.2,26.6,38.4,27.6,38.4z"/>
<path opacity="0.15" fill="#FFFFFF" enable-background="new    " d="M40.1,0.8h7c1,0,1.8,0.8,1.8,1.8v7c0,1-0.8,1.8-1.8,1.8h-7
	c-1,0-1.8-0.8-1.8-1.8v-7C38.3,1.7,39.1,0.8,40.1,0.8z"/>
<path opacity="0.15" fill="#FFFFFF" enable-background="new    " d="M27.6,13.4h7c1,0,1.8,0.8,1.8,1.8v7c0,1-0.8,1.8-1.8,1.8h-7
	c-1,0-1.8-0.8-1.8-1.8v-7.1C25.8,14.2,26.6,13.4,27.6,13.4z"/>
<path opacity="0.15" fill="#FFFFFF" enable-background="new    " d="M48.9,15.1v7c0,1-0.8,1.8-1.8,1.8h-7c-1,0-1.8-0.8-1.8-1.8v-7
	c0-1,0.8-1.8,1.8-1.8h7C48.1,13.4,48.9,14.2,48.9,15.1z"/>
<path opacity="0.15" fill="#FFFFFF" enable-background="new    " d="M36.4,2.7v7c0,1-0.8,1.8-1.8,1.8h-7c-1,0-1.8-0.8-1.8-1.8v-7
	c0-1,0.8-1.8,1.8-1.8h7C35.6,0.8,36.4,1.7,36.4,2.7z"/>
<path opacity="0.15" fill="#FFFFFF" enable-background="new    " d="M15.1,25.9h7c1,0,1.8,0.8,1.8,1.8v7c0,1-0.8,1.8-1.8,1.8h-7
	c-1,0-1.8-0.8-1.8-1.8v-7C13.3,26.7,14.1,25.9,15.1,25.9z"/>
<path opacity="0.15" fill="#FFFFFF" enable-background="new    " d="M2.6,38.4h7c1,0,1.8,0.8,1.8,1.8v7c0,1-0.8,1.8-1.8,1.8h-7
	c-1,0-1.8-0.8-1.8-1.8v-7C0.8,39.2,1.6,38.4,2.6,38.4z"/>
<path opacity="0.15" fill="#FFFFFF" enable-background="new    " d="M23.9,40.2v7c0,1-0.8,1.8-1.8,1.8h-6.9c-1,0-1.8-0.8-1.8-1.8v-7
	c0-1,0.8-1.8,1.8-1.8h7C23.1,38.4,23.9,39.2,23.9,40.2z"/>
<path opacity="0.15" fill="#FFFFFF" enable-background="new    " d="M11.4,27.7v7c0,1-0.8,1.8-1.8,1.8h-7c-1,0-1.8-0.8-1.8-1.8v-7
	c0-1,0.8-1.8,1.8-1.8h7C10.6,25.9,11.4,26.7,11.4,27.7z"/>
<path opacity="0.15" fill="#FFFFFF" enable-background="new    " d="M50.8,59.7v-7c0-1,0.8-1.8,1.8-1.8h7c1,0,1.8,0.8,1.8,1.8v7
	c0,1-0.8,1.8-1.8,1.8h-7C51.6,61.5,50.8,60.7,50.8,59.7z"/>
<path opacity="0.15" fill="#FFFFFF" enable-background="new    " d="M63.3,72.2v-7c0-1,0.8-1.8,1.8-1.8h7c1,0,1.8,0.8,1.8,1.8v7
	c0,1-0.8,1.8-1.8,1.8h-7C64.2,74,63.3,73.2,63.3,72.2z"/>
<path opacity="0.15" fill="#FFFFFF" enable-background="new    " d="M65.1,50.9h7c1,0,1.8,0.8,1.8,1.8v7c0,1-0.8,1.8-1.8,1.8h-7
	c-1,0-1.8-0.8-1.8-1.8v-7C63.3,51.7,64.2,50.9,65.1,50.9z"/>
<path opacity="0.15" fill="#FFFFFF" enable-background="new    " d="M52.7,63.4h7c1,0,1.8,0.8,1.8,1.8v7c0,1-0.8,1.8-1.8,1.8h-7
	c-1,0-1.8-0.8-1.8-1.8v-7C50.8,64.2,51.6,63.4,52.7,63.4z"/>
<path opacity="0.15" fill="#FFFFFF" enable-background="new    " d="M15.1,75.9h7c1,0,1.8,0.8,1.8,1.8v7c0,1-0.8,1.8-1.8,1.8h-7
	c-1,0-1.8-0.8-1.8-1.8v-7C13.3,76.7,14.1,75.9,15.1,75.9z"/>
<path opacity="0.15" fill="#FFFFFF" enable-background="new    " d="M2.6,88.4h7c1,0,1.8,0.8,1.8,1.8v7c0,1-0.8,1.8-1.8,1.8h-7
	c-1,0-1.8-0.8-1.8-1.8v-7C0.8,89.2,1.6,88.4,2.6,88.4z"/>
<path opacity="0.15" fill="#FFFFFF" enable-background="new    " d="M23.9,90.2v7c0,1-0.8,1.8-1.8,1.8h-6.9c-1,0-1.8-0.8-1.8-1.8v-7
	c0-1,0.8-1.8,1.8-1.8h7C23.1,88.4,23.9,89.2,23.9,90.2z"/>
<path opacity="0.15" fill="#FFFFFF" enable-background="new    " d="M11.4,77.7v7c0,1-0.8,1.8-1.8,1.8h-7c-1,0-1.8-0.8-1.8-1.8v-7
	c0-1,0.8-1.8,1.8-1.8h7C10.6,75.9,11.4,76.7,11.4,77.7z"/>
<path opacity="0.15" fill="#FFFFFF" enable-background="new    " d="M90.2,50.9h6.9c1,0,1.8,0.8,1.8,1.8v7c0,1-0.8,1.8-1.8,1.8h-7
	c-1,0-1.8-0.8-1.8-1.8v-7C88.4,51.7,89.1,50.9,90.2,50.9z"/>
<path opacity="0.15" fill="#FFFFFF" enable-background="new    " d="M77.6,63.4h7c1,0,1.8,0.8,1.8,1.8v7c0,1-0.8,1.8-1.8,1.8h-7
	c-1,0-1.8-0.8-1.8-1.8v-7C75.9,64.2,76.7,63.4,77.6,63.4z"/>
<path opacity="0.15" fill="#FFFFFF" enable-background="new    " d="M34.6,99h-7c-1,0-1.8-0.8-1.8-1.8v-7c0-1,0.8-1.8,1.8-1.8h7
	c1,0,1.8,0.8,1.8,1.8v7.1C36.4,98.2,35.6,99,34.6,99z"/>
<path opacity="0.15" fill="#FFFFFF" enable-background="new    " d="M86.5,52.7v7c0,1-0.8,1.8-1.8,1.8h-7c-1,0-1.8-0.8-1.8-1.8v-7
	c0-1,0.8-1.8,1.8-1.8h7C85.6,50.9,86.5,51.7,86.5,52.7z"/>
<path opacity="0.15" fill="#FFFFFF" enable-background="new    " d="M65.1,75.9h7c1,0,1.8,0.8,1.8,1.8v7c0,1-0.8,1.8-1.8,1.8h-7
	c-1,0-1.8-0.8-1.8-1.8v-7C63.3,76.7,64.2,75.9,65.1,75.9z"/>
<path opacity="0.15" fill="#FFFFFF" enable-background="new    " d="M52.7,88.4h7c1,0,1.8,0.8,1.8,1.8v7c0,1-0.8,1.8-1.8,1.8h-7
	c-1,0-1.8-0.8-1.8-1.8v-7C50.8,89.2,51.6,88.4,52.7,88.4z"/>
<path opacity="0.15" fill="#FFFFFF" enable-background="new    " d="M9.6,74h-7c-1,0-1.8-0.8-1.8-1.8v-7c0-1,0.8-1.8,1.8-1.8h7
	c1,0,1.8,0.8,1.8,1.8v7C11.4,73.2,10.6,74,9.6,74z"/>
<path opacity="0.15" fill="#FFFFFF" enable-background="new    " d="M61.4,77.7v7c0,1-0.8,1.8-1.8,1.8h-6.9c-1,0-1.8-0.8-1.8-1.8v-7
	c0-1,0.8-1.8,1.8-1.8h7C60.6,75.9,61.4,76.7,61.4,77.7z"/>
<path opacity="0.15" fill="#FFFFFF" enable-background="new    " d="M90.2,0.8h6.9c1,0,1.8,0.8,1.8,1.8v7c0,1-0.8,1.8-1.8,1.8h-7
	c-1,0-1.8-0.8-1.8-1.8v-7C88.4,1.7,89.1,0.8,90.2,0.8z"/>
<path opacity="0.15" fill="#FFFFFF" enable-background="new    " d="M77.6,13.4h7c1,0,1.8,0.8,1.8,1.8v7c0,1-0.8,1.8-1.8,1.8h-7
	c-1,0-1.8-0.8-1.8-1.8v-7.1C75.9,14.2,76.7,13.4,77.6,13.4z"/>
<path opacity="0.15" fill="#FFFFFF" enable-background="new    " d="M99,15.1v7c0,1-0.8,1.8-1.8,1.8h-7c-1,0-1.8-0.8-1.8-1.8v-7
	c0-1,0.8-1.8,1.8-1.8h7C98.2,13.4,99,14.2,99,15.1z"/>
<path opacity="0.15" fill="#FFFFFF" enable-background="new    " d="M86.5,2.7v7c0,1-0.8,1.8-1.8,1.8h-7c-1,0-1.8-0.8-1.8-1.8v-7
	c0-1,0.8-1.8,1.8-1.8h7C85.6,0.8,86.5,1.7,86.5,2.7z"/>
<path opacity="0.15" fill="#FFFFFF" enable-background="new    " d="M65.1,25.9h7c1,0,1.8,0.8,1.8,1.8v7c0,1-0.8,1.8-1.8,1.8h-7
	c-1,0-1.8-0.8-1.8-1.8v-7C63.3,26.7,64.2,25.9,65.1,25.9z"/>
<path opacity="0.15" fill="#FFFFFF" enable-background="new    " d="M52.7,38.4h7c1,0,1.8,0.8,1.8,1.8v7c0,1-0.8,1.8-1.8,1.8h-7
	c-1,0-1.8-0.8-1.8-1.8v-7C50.8,39.2,51.6,38.4,52.7,38.4z"/>
<path opacity="0.15" fill="#FFFFFF" enable-background="new    " d="M73.9,40.2v7c0,1-0.8,1.8-1.8,1.8h-7c-1,0-1.8-0.8-1.8-1.8v-7
	c0-1,0.8-1.8,1.8-1.8h7.1C73.1,38.4,73.9,39.2,73.9,40.2z"/>
<path opacity="0.15" fill="#FFFFFF" enable-background="new    " d="M61.4,27.7v7c0,1-0.8,1.8-1.8,1.8h-6.9c-1,0-1.8-0.8-1.8-1.8v-7
	c0-1,0.8-1.8,1.8-1.8h7C60.6,25.9,61.4,26.7,61.4,27.7z"/>
<path opacity="0.15" fill="#FFFFFF" enable-background="new    " d="M99,40.2v7c0,1-0.8,1.8-1.8,1.8h-7c-1,0-1.8-0.8-1.8-1.8v-7
	c0-1,0.8-1.8,1.8-1.8h7C98.2,38.4,99,39.2,99,40.2z"/>
<path opacity="0.15" fill="#FFFFFF" enable-background="new    " d="M86.5,27.7v7c0,1-0.8,1.8-1.8,1.8h-7c-1,0-1.8-0.8-1.8-1.8v-7
	c0-1,0.8-1.8,1.8-1.8h7C85.6,25.9,86.5,26.7,86.5,27.7z"/>
<path opacity="0.15" fill="#FFFFFF" enable-background="new    " d="M84.6,49h-7c-1,0-1.8-0.8-1.8-1.8v-6.9c0-1,0.8-1.8,1.8-1.8h7
	c1,0,1.8,0.8,1.8,1.8v7C86.5,48.2,85.6,49,84.6,49z"/>
<path opacity="0.15" fill="#FFFFFF" enable-background="new    " d="M97.1,36.5h-7c-1,0-1.8-0.8-1.8-1.8v-6.9c0-1,0.8-1.8,1.8-1.8h7
	c1,0,1.8,0.8,1.8,1.8v7C99,35.7,98.2,36.5,97.1,36.5z"/>
<path opacity="0.15" fill="#FFFFFF" enable-background="new    " d="M73.9,15.1v7c0,1-0.8,1.8-1.8,1.8h-7c-1,0-1.8-0.8-1.8-1.8v-7
	c0-1,0.8-1.8,1.8-1.8h7.1C73.1,13.4,73.9,14.2,73.9,15.1z"/>
<path opacity="0.15" fill="#FFFFFF" enable-background="new    " d="M61.4,2.7v7c0,1-0.8,1.8-1.8,1.8h-6.9c-1,0-1.8-0.8-1.8-1.8v-7
	c0-1,0.8-1.8,1.8-1.8h7C60.6,0.8,61.4,1.7,61.4,2.7z"/>
<path opacity="0.15" fill="#FFFFFF" enable-background="new    " d="M59.7,24h-7c-1,0-1.8-0.8-1.8-1.8v-7c0-1,0.8-1.8,1.8-1.8h7
	c1,0,1.8,0.8,1.8,1.8v7C61.4,23.2,60.6,24,59.7,24z"/>
<path opacity="0.15" fill="#FFFFFF" enable-background="new    " d="M72.2,11.5h-7c-1,0-1.8-0.8-1.8-1.8v-7c0-1,0.8-1.8,1.8-1.8h7
	c1,0,1.8,0.8,1.8,1.8v7C73.9,10.6,73.1,11.5,72.2,11.5z"/>
<path opacity="0.15" fill="#FFFFFF" enable-background="new    " d="M40.1,50.9h7c1,0,1.8,0.8,1.8,1.8v7c0,1-0.8,1.8-1.8,1.8h-7
	c-1,0-1.8-0.8-1.8-1.8v-7C38.3,51.7,39.1,50.9,40.1,50.9z"/>
<path opacity="0.15" fill="#FFFFFF" enable-background="new    " d="M27.6,63.4h7c1,0,1.8,0.8,1.8,1.8v7c0,1-0.8,1.8-1.8,1.8h-7
	c-1,0-1.8-0.8-1.8-1.8v-7C25.8,64.2,26.6,63.4,27.6,63.4z"/>
<path opacity="0.15" fill="#FFFFFF" enable-background="new    " d="M48.9,65.2v7c0,1-0.8,1.8-1.8,1.8h-7c-1,0-1.8-0.8-1.8-1.8v-7
	c0-1,0.8-1.8,1.8-1.8h7C48.1,63.4,48.9,64.2,48.9,65.2z"/>
<path opacity="0.15" fill="#FFFFFF" enable-background="new    " d="M36.4,52.7v7c0,1-0.8,1.8-1.8,1.8h-7c-1,0-1.8-0.8-1.8-1.8v-7
	c0-1,0.8-1.8,1.8-1.8h7C35.6,50.9,36.4,51.7,36.4,52.7z"/>
<path opacity="0.15" fill="#FFFFFF" enable-background="new    " d="M75.9,84.7v-7c0-1,0.8-1.8,1.8-1.8h7c1,0,1.8,0.8,1.8,1.8v7
	c0,1-0.8,1.8-1.8,1.8h-7.1C76.7,86.5,75.9,85.7,75.9,84.7z"/>
<path opacity="0.15" fill="#FFFFFF" enable-background="new    " d="M88.4,97.2v-7c0-1,0.8-1.8,1.8-1.8h6.9c1,0,1.8,0.8,1.8,1.8v7
	c0,1-0.8,1.8-1.8,1.8h-7C89.1,99,88.4,98.2,88.4,97.2z"/>
<path opacity="0.15" fill="#FFFFFF" enable-background="new    " d="M90.2,75.9h6.9c1,0,1.8,0.8,1.8,1.8v7c0,1-0.8,1.8-1.8,1.8h-7
	c-1,0-1.8-0.8-1.8-1.8v-7C88.4,76.7,89.1,75.9,90.2,75.9z"/>
<path opacity="0.15" fill="#FFFFFF" enable-background="new    " d="M77.6,88.4h7c1,0,1.8,0.8,1.8,1.8v7c0,1-0.8,1.8-1.8,1.8h-7
	c-1,0-1.8-0.8-1.8-1.8v-7C75.9,89.2,76.7,88.4,77.6,88.4z"/>
<path opacity="0.15" fill="#FFFFFF" enable-background="new    " d="M48.9,90.2v7c0,1-0.8,1.8-1.8,1.8h-7c-1,0-1.8-0.8-1.8-1.8v-7
	c0-1,0.8-1.8,1.8-1.8h7C48.1,88.4,48.9,89.2,48.9,90.2z"/>
<path opacity="0.15" fill="#FFFFFF" enable-background="new    " d="M36.4,77.7v7c0,1-0.8,1.8-1.8,1.8h-7c-1,0-1.8-0.8-1.8-1.8v-7
	c0-1,0.8-1.8,1.8-1.8h7C35.6,75.9,36.4,76.7,36.4,77.7z"/>
<path opacity="0.15" fill="#FFFFFF" enable-background="new    " d="M99,65.2v7c0,1-0.8,1.8-1.8,1.8h-7c-1,0-1.8-0.8-1.8-1.8v-7
	c0-1,0.8-1.8,1.8-1.8h7C98.2,63.4,99,64.2,99,65.2z"/>
<path opacity="0.15" fill="#FFFFFF" enable-background="new    " d="M47.1,86.5h-7c-1,0-1.8-0.8-1.8-1.8v-6.9c0-1,0.8-1.8,1.8-1.8h7
	c1,0,1.8,0.8,1.8,1.8v7C48.9,85.7,48.1,86.5,47.1,86.5z"/>
<path opacity="0.15" fill="#FFFFFF" enable-background="new    " d="M23.9,65.2v7c0,1-0.8,1.8-1.8,1.8h-6.9c-1,0-1.8-0.8-1.8-1.8v-7
	c0-1,0.8-1.8,1.8-1.8h7C23.1,63.4,23.9,64.2,23.9,65.2z"/>
<path opacity="0.15" fill="#FFFFFF" enable-background="new    " d="M11.4,52.7v7c0,1-0.8,1.8-1.8,1.8h-7c-1,0-1.8-0.8-1.8-1.8v-7
	c0-1,0.8-1.8,1.8-1.8h7C10.6,50.9,11.4,51.7,11.4,52.7z"/>
<path opacity="0.15" fill="#FFFFFF" enable-background="new    " d="M73.9,90.2v7c0,1-0.8,1.8-1.8,1.8h-7c-1,0-1.8-0.8-1.8-1.8v-7
	c0-1,0.8-1.8,1.8-1.8h7.1C73.1,88.4,73.9,89.2,73.9,90.2z"/>
<path opacity="0.15" fill="#FFFFFF" enable-background="new    " d="M22.1,61.5h-7c-1,0-1.8-0.8-1.8-1.8v-7c0-1,0.8-1.8,1.8-1.8h7
	c1,0,1.8,0.8,1.8,1.8v7C23.9,60.7,23.1,61.5,22.1,61.5z"/>
<path opacity="0.15" fill="#FFFFFF" enable-background="new    " d="M190.2,0.8h7c1,0,1.8,0.8,1.8,1.8v7c0,1-0.8,1.8-1.8,1.8h-7
	c-1,0-1.8-0.8-1.8-1.8v-7C188.4,1.7,189.2,0.8,190.2,0.8z"/>
<path opacity="0.15" fill="#FFFFFF" enable-background="new    " d="M177.7,13.4h7c1,0,1.8,0.8,1.8,1.8v7c0,1-0.8,1.8-1.8,1.8h-7
	c-1,0-1.8-0.8-1.8-1.8v-7.1C175.9,14.2,176.7,13.4,177.7,13.4z"/>
<path opacity="0.15" fill="#FFFFFF" enable-background="new    " d="M199,15.1v7c0,1-0.8,1.8-1.8,1.8h-7c-1,0-1.8-0.8-1.8-1.8v-7
	c0-1,0.8-1.8,1.8-1.8h7C198.2,13.4,199,14.2,199,15.1z"/>
<path opacity="0.15" fill="#FFFFFF" enable-background="new    " d="M186.5,2.7v7c0,1-0.8,1.8-1.8,1.8h-7c-1,0-1.8-0.8-1.8-1.8v-7
	c0-1,0.8-1.8,1.8-1.8h7C185.7,0.8,186.5,1.7,186.5,2.7z"/>
<path opacity="0.15" fill="#FFFFFF" enable-background="new    " d="M165.2,25.9h7c1,0,1.8,0.8,1.8,1.8v7c0,1-0.8,1.8-1.8,1.8h-7
	c-1,0-1.8-0.8-1.8-1.8v-7C163.4,26.7,164.2,25.9,165.2,25.9z"/>
<path opacity="0.15" fill="#FFFFFF" enable-background="new    " d="M152.7,38.4h7c1,0,1.8,0.8,1.8,1.8v7c0,1-0.8,1.8-1.8,1.8h-7
	c-1,0-1.8-0.8-1.8-1.8v-7C150.9,39.2,151.7,38.4,152.7,38.4L152.7,38.4z"/>
<path opacity="0.15" fill="#FFFFFF" enable-background="new    " d="M174,40.2v7c0,1-0.8,1.8-1.8,1.8h-7c-1,0-1.8-0.8-1.8-1.8v-7
	c0-1,0.8-1.8,1.8-1.8h7C173.2,38.4,174,39.2,174,40.2z"/>
<path opacity="0.15" fill="#FFFFFF" enable-background="new    " d="M161.5,27.7v7c0,1-0.8,1.8-1.8,1.8h-7c-1,0-1.8-0.8-1.8-1.8v-7
	c0-1,0.8-1.8,1.8-1.8h7C160.7,25.9,161.5,26.7,161.5,27.7z"/>
<path opacity="0.15" fill="#FFFFFF" enable-background="new    " d="M199,40.2v7c0,1-0.8,1.8-1.8,1.8h-7c-1,0-1.8-0.8-1.8-1.8v-7
	c0-1,0.8-1.8,1.8-1.8h7C198.2,38.4,199,39.2,199,40.2z"/>
<path opacity="0.15" fill="#FFFFFF" enable-background="new    " d="M186.5,27.7v7c0,1-0.8,1.8-1.8,1.8h-7c-1,0-1.8-0.8-1.8-1.8v-7
	c0-1,0.8-1.8,1.8-1.8h7C185.7,25.9,186.5,26.7,186.5,27.7z"/>
<path opacity="0.15" fill="#FFFFFF" enable-background="new    " d="M184.7,49h-7c-1,0-1.8-0.8-1.8-1.8v-6.9c0-1,0.8-1.8,1.8-1.8h7
	c1,0,1.8,0.8,1.8,1.8v7C186.5,48.2,185.7,49,184.7,49z"/>
<path opacity="0.15" fill="#FFFFFF" enable-background="new    " d="M197.2,36.5h-7c-1,0-1.8-0.8-1.8-1.8v-6.9c0-1,0.8-1.8,1.8-1.8
	h7c1,0,1.8,0.8,1.8,1.8v7C199,35.7,198.2,36.5,197.2,36.5z"/>
<path opacity="0.15" fill="#FFFFFF" enable-background="new    " d="M174,15.1v7c0,1-0.8,1.8-1.8,1.8h-7c-1,0-1.8-0.8-1.8-1.8v-7
	c0-1,0.8-1.8,1.8-1.8h7C173.2,13.4,174,14.2,174,15.1z"/>
<path opacity="0.15" fill="#FFFFFF" enable-background="new    " d="M161.5,2.7v7c0,1-0.8,1.8-1.8,1.8h-7c-1,0-1.8-0.8-1.8-1.8v-7
	c0-1,0.8-1.8,1.8-1.8h7C160.7,0.8,161.5,1.7,161.5,2.7z"/>
<path opacity="0.15" fill="#FFFFFF" enable-background="new    " d="M159.7,24h-7c-1,0-1.8-0.8-1.8-1.8v-7c0-1,0.8-1.8,1.8-1.8h7
	c1,0,1.8,0.8,1.8,1.8v7C161.5,23.2,160.7,24,159.7,24z"/>
<path opacity="0.15" fill="#FFFFFF" enable-background="new    " d="M172.2,11.5h-7c-1,0-1.8-0.8-1.8-1.8v-7c0-1,0.8-1.8,1.8-1.8h7
	c1,0,1.8,0.8,1.8,1.8v7C174,10.6,173.2,11.5,172.2,11.5z"/>
<path opacity="0.15" fill="#FFFFFF" enable-background="new    " d="M140.2,50.9h7c1,0,1.8,0.8,1.8,1.8v7c0,1-0.8,1.8-1.8,1.8h-7
	c-1,0-1.8-0.8-1.8-1.8v-7C138.4,51.7,139.2,50.9,140.2,50.9z"/>
<path opacity="0.15" fill="#FFFFFF" enable-background="new    " d="M127.7,63.4h7c1,0,1.8,0.8,1.8,1.8v7c0,1-0.8,1.8-1.8,1.8h-7
	c-1,0-1.8-0.8-1.8-1.8v-7C125.9,64.2,126.7,63.4,127.7,63.4z"/>
<path opacity="0.15" fill="#FFFFFF" enable-background="new    " d="M149,65.2v7c0,1-0.8,1.8-1.8,1.8h-7c-1,0-1.8-0.8-1.8-1.8v-7
	c0-1,0.8-1.8,1.8-1.8h7C148.2,63.4,149,64.2,149,65.2z"/>
<path opacity="0.15" fill="#FFFFFF" enable-background="new    " d="M136.5,52.7v7c0,1-0.8,1.8-1.8,1.8h-7c-1,0-1.8-0.8-1.8-1.8v-7
	c0-1,0.8-1.8,1.8-1.8h7C135.7,50.9,136.5,51.7,136.5,52.7z"/>
<path opacity="0.15" fill="#FFFFFF" enable-background="new    " d="M124,15.1v7c0,1-0.8,1.8-1.8,1.8h-7c-1,0-1.8-0.8-1.8-1.8v-7
	c0-1,0.8-1.8,1.8-1.8h7C123.1,13.4,124,14.2,124,15.1z"/>
<path opacity="0.15" fill="#FFFFFF" enable-background="new    " d="M111.4,2.7v7c0,1-0.8,1.8-1.8,1.8h-7c-1,0-1.8-0.8-1.8-1.8v-7
	c0-1,0.8-1.8,1.8-1.8h7C110.7,0.8,111.4,1.7,111.4,2.7z"/>
<path opacity="0.15" fill="#FFFFFF" enable-background="new    " d="M109.7,24h-7c-1,0-1.8-0.8-1.8-1.8v-7c0-1,0.8-1.8,1.8-1.8h7
	c1,0,1.8,0.8,1.8,1.8v7C111.4,23.2,110.7,24,109.7,24z"/>
<path opacity="0.15" fill="#FFFFFF" enable-background="new    " d="M122.2,11.5h-7c-1,0-1.8-0.8-1.8-1.8v-7c0-1,0.8-1.8,1.8-1.8h7
	c1,0,1.8,0.8,1.8,1.8v7C124,10.6,123.1,11.5,122.2,11.5z"/>
<path opacity="0.15" fill="#FFFFFF" enable-background="new    " d="M149,90.2v7c0,1-0.8,1.8-1.8,1.8h-7c-1,0-1.8-0.8-1.8-1.8v-7
	c0-1,0.8-1.8,1.8-1.8h7C148.2,88.4,149,89.2,149,90.2z"/>
<path opacity="0.15" fill="#FFFFFF" enable-background="new    " d="M136.5,77.7v7c0,1-0.8,1.8-1.8,1.8h-7c-1,0-1.8-0.8-1.8-1.8v-7
	c0-1,0.8-1.8,1.8-1.8h7C135.7,75.9,136.5,76.7,136.5,77.7z"/>
<path opacity="0.15" fill="#FFFFFF" enable-background="new    " d="M100.8,34.6v-6.9c0-1,0.8-1.8,1.8-1.8h7c1,0,1.8,0.8,1.8,1.8v7
	c0,1-0.8,1.8-1.8,1.8h-7C101.6,36.5,100.8,35.7,100.8,34.6z"/>
<path opacity="0.15" fill="#FFFFFF" enable-background="new    " d="M147.2,86.5h-7c-1,0-1.8-0.8-1.8-1.8v-6.9c0-1,0.8-1.8,1.8-1.8
	h7c1,0,1.8,0.8,1.8,1.8v7C149,85.7,148.2,86.5,147.2,86.5z"/>
<path opacity="0.15" fill="#FFFFFF" enable-background="new    " d="M124,65.2v7c0,1-0.8,1.8-1.8,1.8h-7c-1,0-1.8-0.8-1.8-1.8v-7
	c0-1,0.8-1.8,1.8-1.8h7C123.1,63.4,124,64.2,124,65.2z"/>
<path opacity="0.15" fill="#FFFFFF" enable-background="new    " d="M111.4,52.7v7c0,1-0.8,1.8-1.8,1.8h-7c-1,0-1.8-0.8-1.8-1.8v-7
	c0-1,0.8-1.8,1.8-1.8h7C110.7,50.9,111.4,51.7,111.4,52.7z"/>
<path opacity="0.15" fill="#FFFFFF" enable-background="new    " d="M125.9,9.7v-7c0-1,0.8-1.8,1.8-1.8h7c1,0,1.8,0.8,1.8,1.8v7
	c0,1-0.8,1.8-1.8,1.8h-7C126.7,11.5,125.9,10.6,125.9,9.7z"/>
<path opacity="0.15" fill="#FFFFFF" enable-background="new    " d="M122.2,61.5h-7c-1,0-1.8-0.8-1.8-1.8v-7c0-1,0.8-1.8,1.8-1.8h7
	c1,0,1.8,0.8,1.8,1.8v7C124,60.7,123.1,61.5,122.2,61.5z"/>
<path opacity="0.15" fill="#FFFFFF" enable-background="new    " d="M199,90.2v7c0,1-0.8,1.8-1.8,1.8h-7c-1,0-1.8-0.8-1.8-1.8v-7
	c0-1,0.8-1.8,1.8-1.8h7C198.2,88.4,199,89.2,199,90.2z"/>
<path opacity="0.15" fill="#FFFFFF" enable-background="new    " d="M186.5,77.7v7c0,1-0.8,1.8-1.8,1.8h-7c-1,0-1.8-0.8-1.8-1.8v-7
	c0-1,0.8-1.8,1.8-1.8h7C185.7,75.9,186.5,76.7,186.5,77.7z"/>
<path opacity="0.15" fill="#FFFFFF" enable-background="new    " d="M184.7,99h-7c-1,0-1.8-0.8-1.8-1.8v-7c0-1,0.8-1.8,1.8-1.8h7
	c1,0,1.8,0.8,1.8,1.8v7.1C186.5,98.2,185.7,99,184.7,99z"/>
<path opacity="0.15" fill="#FFFFFF" enable-background="new    " d="M197.2,86.5h-7c-1,0-1.8-0.8-1.8-1.8v-6.9c0-1,0.8-1.8,1.8-1.8
	h7c1,0,1.8,0.8,1.8,1.8v7C199,85.7,198.2,86.5,197.2,86.5z"/>
<path opacity="0.15" fill="#FFFFFF" enable-background="new    " d="M174,65.2v7c0,1-0.8,1.8-1.8,1.8h-7c-1,0-1.8-0.8-1.8-1.8v-7
	c0-1,0.8-1.8,1.8-1.8h7C173.2,63.4,174,64.2,174,65.2z"/>
<path opacity="0.15" fill="#FFFFFF" enable-background="new    " d="M161.5,52.7v7c0,1-0.8,1.8-1.8,1.8h-7c-1,0-1.8-0.8-1.8-1.8v-7
	c0-1,0.8-1.8,1.8-1.8h7C160.7,50.9,161.5,51.7,161.5,52.7z"/>
<path opacity="0.15" fill="#FFFFFF" enable-background="new    " d="M159.7,74h-7c-1,0-1.8-0.8-1.8-1.8v-7c0-1,0.8-1.8,1.8-1.8h7
	c1,0,1.8,0.8,1.8,1.8v7C161.5,73.2,160.7,74,159.7,74z"/>
<path opacity="0.15" fill="#FFFFFF" enable-background="new    " d="M172.2,61.5h-7c-1,0-1.8-0.8-1.8-1.8v-7c0-1,0.8-1.8,1.8-1.8h7
	c1,0,1.8,0.8,1.8,1.8v7C174,60.7,173.2,61.5,172.2,61.5z"/>
<path opacity="0.15" fill="#FFFFFF" enable-background="new    " d="M159.7,99h-7c-1,0-1.8-0.8-1.8-1.8v-7c0-1,0.8-1.8,1.8-1.8h7
	c1,0,1.8,0.8,1.8,1.8v7.1C161.5,98.2,160.7,99,159.7,99z"/>
<path opacity="0.15" fill="#FFFFFF" enable-background="new    " d="M172.2,86.5h-7c-1,0-1.8-0.8-1.8-1.8v-6.9c0-1,0.8-1.8,1.8-1.8
	h7c1,0,1.8,0.8,1.8,1.8v7C174,85.7,173.2,86.5,172.2,86.5z"/>
<path opacity="0.15" fill="#FFFFFF" enable-background="new    " d="M150.9,84.7v-7c0-1,0.8-1.8,1.8-1.8h7c1,0,1.8,0.8,1.8,1.8v7
	c0,1-0.8,1.8-1.8,1.8h-7C151.7,86.5,150.9,85.7,150.9,84.7L150.9,84.7z"/>
<path opacity="0.15" fill="#FFFFFF" enable-background="new    " d="M163.4,97.2v-7c0-1,0.8-1.8,1.8-1.8h7c1,0,1.8,0.8,1.8,1.8v7
	c0,1-0.8,1.8-1.8,1.8h-7C164.2,99,163.4,98.2,163.4,97.2z"/>
<path opacity="0.15" fill="#FFFFFF" enable-background="new    " d="M184.7,74h-7c-1,0-1.8-0.8-1.8-1.8v-7c0-1,0.8-1.8,1.8-1.8h7
	c1,0,1.8,0.8,1.8,1.8v7C186.5,73.2,185.7,74,184.7,74z"/>
<path opacity="0.15" fill="#FFFFFF" enable-background="new    " d="M197.2,61.5h-7c-1,0-1.8-0.8-1.8-1.8v-7c0-1,0.8-1.8,1.8-1.8h7
	c1,0,1.8,0.8,1.8,1.8v7C199,60.7,198.2,61.5,197.2,61.5z"/>
<path opacity="0.15" fill="#FFFFFF" enable-background="new    " d="M175.9,59.7v-7c0-1,0.8-1.8,1.8-1.8h7c1,0,1.8,0.8,1.8,1.8v7
	c0,1-0.8,1.8-1.8,1.8h-7C176.7,61.5,175.9,60.7,175.9,59.7z"/>
<path opacity="0.15" fill="#FFFFFF" enable-background="new    " d="M188.4,72.2v-7c0-1,0.8-1.8,1.8-1.8h7c1,0,1.8,0.8,1.8,1.8v7
	c0,1-0.8,1.8-1.8,1.8h-7C189.2,74,188.4,73.2,188.4,72.2z"/>
<path opacity="0.15" fill="#FFFFFF" enable-background="new    " d="M149,40.2v7c0,1-0.8,1.8-1.8,1.8h-7c-1,0-1.8-0.8-1.8-1.8v-7
	c0-1,0.8-1.8,1.8-1.8h7C148.2,38.4,149,39.2,149,40.2z"/>
<path opacity="0.15" fill="#FFFFFF" enable-background="new    " d="M136.5,27.7v7c0,1-0.8,1.8-1.8,1.8h-7c-1,0-1.8-0.8-1.8-1.8v-7
	c0-1,0.8-1.8,1.8-1.8h7C135.7,25.9,136.5,26.7,136.5,27.7z"/>
<path opacity="0.15" fill="#FFFFFF" enable-background="new    " d="M134.7,49h-7c-1,0-1.8-0.8-1.8-1.8v-6.9c0-1,0.8-1.8,1.8-1.8h7
	c1,0,1.8,0.8,1.8,1.8v7C136.5,48.2,135.7,49,134.7,49z"/>
<path opacity="0.15" fill="#FFFFFF" enable-background="new    " d="M147.2,36.5h-7c-1,0-1.8-0.8-1.8-1.8v-6.9c0-1,0.8-1.8,1.8-1.8
	h7c1,0,1.8,0.8,1.8,1.8v7C149,35.7,148.2,36.5,147.2,36.5z"/>
<path opacity="0.15" fill="#FFFFFF" enable-background="new    " d="M115.2,75.9h7c1,0,1.8,0.8,1.8,1.8v7c0,1-0.8,1.8-1.8,1.8h-7
	c-1,0-1.8-0.8-1.8-1.8v-7C113.3,76.7,114.2,75.9,115.2,75.9z"/>
<path opacity="0.15" fill="#FFFFFF" enable-background="new    " d="M102.7,88.4h7c1,0,1.8,0.8,1.8,1.8v7c0,1-0.8,1.8-1.8,1.8h-7
	c-1,0-1.8-0.8-1.8-1.8v-7C100.8,89.2,101.6,88.4,102.7,88.4z"/>
<path opacity="0.15" fill="#FFFFFF" enable-background="new    " d="M124,90.2v7c0,1-0.8,1.8-1.8,1.8h-7c-1,0-1.8-0.8-1.8-1.8v-7
	c0-1,0.8-1.8,1.8-1.8h7C123.1,88.4,124,89.2,124,90.2z"/>
<path opacity="0.15" fill="#FFFFFF" enable-background="new    " d="M111.4,77.7v7c0,1-0.8,1.8-1.8,1.8h-7c-1,0-1.8-0.8-1.8-1.8v-7
	c0-1,0.8-1.8,1.8-1.8h7C110.7,75.9,111.4,76.7,111.4,77.7z"/>
<path opacity="0.15" fill="#FFFFFF" enable-background="new    " d="M109.7,49h-7c-1,0-1.8-0.8-1.8-1.8v-6.9c0-1,0.8-1.8,1.8-1.8h7
	c1,0,1.8,0.8,1.8,1.8v7C111.4,48.2,110.7,49,109.7,49z"/>
<path opacity="0.15" fill="#FFFFFF" enable-background="new    " d="M122.2,36.5h-7c-1,0-1.8-0.8-1.8-1.8v-6.9c0-1,0.8-1.8,1.8-1.8
	h7c1,0,1.8,0.8,1.8,1.8v7C124,35.7,123.1,36.5,122.2,36.5z"/>
<path opacity="0.15" fill="#FFFFFF" enable-background="new    " d="M134.7,99h-7c-1,0-1.8-0.8-1.8-1.8v-7c0-1,0.8-1.8,1.8-1.8h7
	c1,0,1.8,0.8,1.8,1.8v7.1C136.5,98.2,135.7,99,134.7,99z"/>
<path opacity="0.15" fill="#FFFFFF" enable-background="new    " d="M113.3,47.2v-7c0-1,0.8-1.8,1.8-1.8h7c1,0,1.8,0.8,1.8,1.8v7
	c0,1-0.8,1.8-1.8,1.8h-7C114.2,49,113.3,48.2,113.3,47.2z"/>
<path opacity="0.15" fill="#FFFFFF" enable-background="new    " d="M134.7,24h-7c-1,0-1.8-0.8-1.8-1.8v-7c0-1,0.8-1.8,1.8-1.8h7
	c1,0,1.8,0.8,1.8,1.8v7C136.5,23.2,135.7,24,134.7,24z"/>
<path opacity="0.15" fill="#FFFFFF" enable-background="new    " d="M147.2,11.5h-7c-1,0-1.8-0.8-1.8-1.8v-7c0-1,0.8-1.8,1.8-1.8h7
	c1,0,1.8,0.8,1.8,1.8v7C149,10.6,148.2,11.5,147.2,11.5z"/>
<path opacity="0.15" fill="#FFFFFF" enable-background="new    " d="M109.7,74h-7c-1,0-1.8-0.8-1.8-1.8v-7c0-1,0.8-1.8,1.8-1.8h7
	c1,0,1.8,0.8,1.8,1.8v7C111.4,73.2,110.7,74,109.7,74z"/>
<path opacity="0.15" fill="#FFFFFF" enable-background="new    " d="M138.4,22.2v-7c0-1,0.8-1.8,1.8-1.8h7c1,0,1.8,0.8,1.8,1.8v7
	c0,1-0.8,1.8-1.8,1.8h-7C139.2,24,138.4,23.2,138.4,22.2z"/>
<path opacity="0.15" fill="#FFFFFF" enable-background="new    " d="M100.8,109.7v-7c0-1,0.8-1.8,1.8-1.8h7c1,0,1.8,0.8,1.8,1.8v7
	c0,1-0.8,1.8-1.8,1.8h-7C101.6,111.5,100.8,110.7,100.8,109.7z"/>
<path opacity="0.15" fill="#FFFFFF" enable-background="new    " d="M113.3,122.2v-7c0-1,0.8-1.8,1.8-1.8h7c1,0,1.8,0.8,1.8,1.8v7
	c0,1-0.8,1.8-1.8,1.8h-7C114.2,124,113.3,123.2,113.3,122.2z"/>
<path opacity="0.15" fill="#FFFFFF" enable-background="new    " d="M115.2,100.9h7c1,0,1.8,0.8,1.8,1.8v7c0,1-0.8,1.8-1.8,1.8h-7
	c-1,0-1.8-0.8-1.8-1.8v-7.1C113.3,101.7,114.2,100.9,115.2,100.9z"/>
<path opacity="0.15" fill="#FFFFFF" enable-background="new    " d="M102.7,113.4h7c1,0,1.8,0.8,1.8,1.8v6.9c0,1-0.8,1.8-1.8,1.8h-7
	c-1,0-1.8-0.8-1.8-1.8v-7C100.8,114.2,101.6,113.4,102.7,113.4z"/>
<path opacity="0.15" fill="#FFFFFF" enable-background="new    " d="M125.9,134.7v-7c0-1,0.8-1.8,1.8-1.8h7c1,0,1.8,0.8,1.8,1.8v7
	c0,1-0.8,1.8-1.8,1.8h-7C126.7,136.5,125.9,135.7,125.9,134.7z"/>
<path opacity="0.15" fill="#FFFFFF" enable-background="new    " d="M138.4,147.2v-7c0-1,0.8-1.8,1.8-1.8h7c1,0,1.8,0.8,1.8,1.8v7
	c0,1-0.8,1.8-1.8,1.8h-7C139.2,149.1,138.4,148.2,138.4,147.2z"/>
<path opacity="0.15" fill="#FFFFFF" enable-background="new    " d="M140.2,125.9h7c1,0,1.8,0.8,1.8,1.8v7c0,1-0.8,1.8-1.8,1.8h-7
	c-1,0-1.8-0.8-1.8-1.8v-7C138.4,126.7,139.2,125.9,140.2,125.9z"/>
<path opacity="0.15" fill="#FFFFFF" enable-background="new    " d="M127.7,138.4h7c1,0,1.8,0.8,1.8,1.8v7c0,1-0.8,1.8-1.8,1.8h-7
	c-1,0-1.8-0.8-1.8-1.8v-7C125.9,139.3,126.7,138.4,127.7,138.4z"/>
<path opacity="0.15" fill="#FFFFFF" enable-background="new    " d="M140.2,100.9h7c1,0,1.8,0.8,1.8,1.8v7c0,1-0.8,1.8-1.8,1.8h-7
	c-1,0-1.8-0.8-1.8-1.8v-7.1C138.4,101.7,139.2,100.9,140.2,100.9z"/>
<path opacity="0.15" fill="#FFFFFF" enable-background="new    " d="M127.7,113.4h7c1,0,1.8,0.8,1.8,1.8v6.9c0,1-0.8,1.8-1.8,1.8h-7
	c-1,0-1.8-0.8-1.8-1.8v-7C125.9,114.2,126.7,113.4,127.7,113.4z"/>
<path opacity="0.15" fill="#FFFFFF" enable-background="new    " d="M149,115.2v7c0,1-0.8,1.8-1.8,1.8h-7c-1,0-1.8-0.8-1.8-1.8v-7
	c0-1,0.8-1.8,1.8-1.8h7C148.2,113.4,149,114.2,149,115.2z"/>
<path opacity="0.15" fill="#FFFFFF" enable-background="new    " d="M136.5,102.7v7c0,1-0.8,1.8-1.8,1.8h-7c-1,0-1.8-0.8-1.8-1.8v-7
	c0-1,0.8-1.8,1.8-1.8h7C135.7,100.9,136.5,101.7,136.5,102.7z"/>
<path opacity="0.15" fill="#FFFFFF" enable-background="new    " d="M115.2,125.9h7c1,0,1.8,0.8,1.8,1.8v7c0,1-0.8,1.8-1.8,1.8h-7
	c-1,0-1.8-0.8-1.8-1.8v-7C113.3,126.7,114.2,125.9,115.2,125.9z"/>
<path opacity="0.15" fill="#FFFFFF" enable-background="new    " d="M102.7,138.4h7c1,0,1.8,0.8,1.8,1.8v7c0,1-0.8,1.8-1.8,1.8h-7
	c-1,0-1.8-0.8-1.8-1.8v-7C100.8,139.3,101.6,138.4,102.7,138.4z"/>
<path opacity="0.15" fill="#FFFFFF" enable-background="new    " d="M124,140.2v7c0,1-0.8,1.8-1.8,1.8h-7c-1,0-1.8-0.8-1.8-1.8v-7
	c0-1,0.8-1.8,1.8-1.8h7C123.1,138.4,124,139.3,124,140.2z"/>
<path opacity="0.15" fill="#FFFFFF" enable-background="new    " d="M111.4,127.7v7c0,1-0.8,1.8-1.8,1.8h-7c-1,0-1.8-0.8-1.8-1.8v-7
	c0-1,0.8-1.8,1.8-1.8h7C110.7,125.9,111.4,126.7,111.4,127.7z"/>
<path opacity="0.15" fill="#FFFFFF" enable-background="new    " d="M111.4,177.8v7c0,1-0.8,1.8-1.8,1.8h-7c-1,0-1.8-0.8-1.8-1.8v-7
	c0-1,0.8-1.8,1.8-1.8h7C110.7,175.9,111.4,176.7,111.4,177.8z"/>
<path opacity="0.15" fill="#FFFFFF" enable-background="new    " d="M109.7,174h-7c-1,0-1.8-0.8-1.8-1.8v-7c0-1,0.8-1.8,1.8-1.8h7
	c1,0,1.8,0.8,1.8,1.8v7C111.4,173.3,110.7,174,109.7,174z"/>
<path opacity="0.15" fill="#FFFFFF" enable-background="new    " d="M186.5,102.7v7c0,1-0.8,1.8-1.8,1.8h-7c-1,0-1.8-0.8-1.8-1.8v-7
	c0-1,0.8-1.8,1.8-1.8h7C185.7,100.9,186.5,101.7,186.5,102.7z"/>
<path opacity="0.15" fill="#FFFFFF" enable-background="new    " d="M161.5,127.7v7c0,1-0.8,1.8-1.8,1.8h-7c-1,0-1.8-0.8-1.8-1.8v-7
	c0-1,0.8-1.8,1.8-1.8h7C160.7,125.9,161.5,126.7,161.5,127.7z"/>
<path opacity="0.15" fill="#FFFFFF" enable-background="new    " d="M174,115.2v7c0,1-0.8,1.8-1.8,1.8h-7c-1,0-1.8-0.8-1.8-1.8v-7
	c0-1,0.8-1.8,1.8-1.8h7C173.2,113.4,174,114.2,174,115.2z"/>
<path opacity="0.15" fill="#FFFFFF" enable-background="new    " d="M161.5,102.7v7c0,1-0.8,1.8-1.8,1.8h-7c-1,0-1.8-0.8-1.8-1.8v-7
	c0-1,0.8-1.8,1.8-1.8h7C160.7,100.9,161.5,101.7,161.5,102.7z"/>
<path opacity="0.15" fill="#FFFFFF" enable-background="new    " d="M159.7,124h-7c-1,0-1.8-0.8-1.8-1.8v-7c0-1,0.8-1.8,1.8-1.8h7
	c1,0,1.8,0.8,1.8,1.8v7C161.5,123.2,160.7,124,159.7,124z"/>
<path opacity="0.15" fill="#FFFFFF" enable-background="new    " d="M172.2,111.5h-7c-1,0-1.8-0.8-1.8-1.8v-7c0-1,0.8-1.8,1.8-1.8h7
	c1,0,1.8,0.8,1.8,1.8v7C174,110.7,173.2,111.5,172.2,111.5z"/>
<path opacity="0.15" fill="#FFFFFF" enable-background="new    " d="M136.5,152.7v7c0,1-0.8,1.8-1.8,1.8h-7c-1,0-1.8-0.8-1.8-1.8v-7
	c0-1,0.8-1.8,1.8-1.8h7C135.7,151,136.5,151.7,136.5,152.7L136.5,152.7z"/>
<path opacity="0.15" fill="#FFFFFF" enable-background="new    " d="M124,165.3v7c0,1-0.8,1.8-1.8,1.8h-7c-1,0-1.8-0.8-1.8-1.8v-7
	c0-1,0.8-1.8,1.8-1.8h7C123.1,163.4,124,164.2,124,165.3z"/>
<path opacity="0.15" fill="#FFFFFF" enable-background="new    " d="M111.4,152.7v7c0,1-0.8,1.8-1.8,1.8h-7c-1,0-1.8-0.8-1.8-1.8v-7
	c0-1,0.8-1.8,1.8-1.8h7C110.7,151,111.4,151.7,111.4,152.7L111.4,152.7z"/>
<path opacity="0.15" fill="#FFFFFF" enable-background="new    " d="M122.2,161.6h-7c-1,0-1.8-0.8-1.8-1.8v-7c0-1,0.8-1.8,1.8-1.8h7
	c1,0,1.8,0.8,1.8,1.8v7C124,160.8,123.1,161.6,122.2,161.6z"/>
<path opacity="0.15" fill="#FFFFFF" enable-background="new    " d="M150.9,159.7v-7c0-1,0.8-1.8,1.8-1.8h7c1,0,1.8,0.8,1.8,1.8v7
	c0,1-0.8,1.8-1.8,1.8h-7C151.7,161.6,150.9,160.8,150.9,159.7L150.9,159.7z"/>
<path opacity="0.15" fill="#FFFFFF" enable-background="new    " d="M163.4,172.2v-7c0-1,0.8-1.8,1.8-1.8h7c1,0,1.8,0.8,1.8,1.8v7
	c0,1-0.8,1.8-1.8,1.8h-7C164.2,174,163.4,173.3,163.4,172.2z"/>
<path opacity="0.15" fill="#FFFFFF" enable-background="new    " d="M165.2,151h7c1,0,1.8,0.8,1.8,1.8v7c0,1-0.8,1.8-1.8,1.8h-7
	c-1,0-1.8-0.8-1.8-1.8v-7C163.4,151.7,164.2,151,165.2,151L165.2,151z"/>
<path opacity="0.15" fill="#FFFFFF" enable-background="new    " d="M152.7,163.4h7c1,0,1.8,0.8,1.8,1.8v7c0,1-0.8,1.8-1.8,1.8h-7
	c-1,0-1.8-0.8-1.8-1.8v-7C150.9,164.2,151.7,163.4,152.7,163.4L152.7,163.4z"/>
<path opacity="0.15" fill="#FFFFFF" enable-background="new    " d="M115.2,175.9h7c1,0,1.8,0.8,1.8,1.8v7c0,1-0.8,1.8-1.8,1.8h-7
	c-1,0-1.8-0.8-1.8-1.8v-7C113.3,176.7,114.2,175.9,115.2,175.9z"/>
<path opacity="0.15" fill="#FFFFFF" enable-background="new    " d="M102.7,188.4h7c1,0,1.8,0.8,1.8,1.8v7c0,1-0.8,1.8-1.8,1.8h-7
	c-1,0-1.8-0.8-1.8-1.8v-7C100.8,189.3,101.6,188.4,102.7,188.4z"/>
<path opacity="0.15" fill="#FFFFFF" enable-background="new    " d="M124,190.3v7c0,1-0.8,1.8-1.8,1.8h-7c-1,0-1.8-0.8-1.8-1.8v-7
	c0-1,0.8-1.8,1.8-1.8h7C123.1,188.4,124,189.3,124,190.3z"/>
<path opacity="0.15" fill="#FFFFFF" enable-background="new    " d="M190.2,151h7c1,0,1.8,0.8,1.8,1.8v7c0,1-0.8,1.8-1.8,1.8h-7
	c-1,0-1.8-0.8-1.8-1.8v-7C188.4,151.7,189.2,151,190.2,151L190.2,151z"/>
<path opacity="0.15" fill="#FFFFFF" enable-background="new    " d="M177.7,163.4h7c1,0,1.8,0.8,1.8,1.8v7c0,1-0.8,1.8-1.8,1.8h-7
	c-1,0-1.8-0.8-1.8-1.8v-7C175.9,164.2,176.7,163.4,177.7,163.4z"/>
<path opacity="0.15" fill="#FFFFFF" enable-background="new    " d="M134.7,199.1h-7c-1,0-1.8-0.8-1.8-1.8v-7c0-1,0.8-1.8,1.8-1.8h7
	c1,0,1.8,0.8,1.8,1.8v7C136.5,198.2,135.7,199.1,134.7,199.1z"/>
<path opacity="0.15" fill="#FFFFFF" enable-background="new    " d="M186.5,152.7v7c0,1-0.8,1.8-1.8,1.8h-7c-1,0-1.8-0.8-1.8-1.8v-7
	c0-1,0.8-1.8,1.8-1.8h7C185.7,151,186.5,151.7,186.5,152.7L186.5,152.7z"/>
<path opacity="0.15" fill="#FFFFFF" enable-background="new    " d="M165.2,175.9h7c1,0,1.8,0.8,1.8,1.8v7c0,1-0.8,1.8-1.8,1.8h-7
	c-1,0-1.8-0.8-1.8-1.8v-7C163.4,176.7,164.2,175.9,165.2,175.9z"/>
<path opacity="0.15" fill="#FFFFFF" enable-background="new    " d="M152.7,188.4h7c1,0,1.8,0.8,1.8,1.8v7c0,1-0.8,1.8-1.8,1.8h-7
	c-1,0-1.8-0.8-1.8-1.8v-7C150.9,189.3,151.7,188.4,152.7,188.4L152.7,188.4z"/>
<path opacity="0.15" fill="#FFFFFF" enable-background="new    " d="M161.5,177.8v7c0,1-0.8,1.8-1.8,1.8h-7c-1,0-1.8-0.8-1.8-1.8v-7
	c0-1,0.8-1.8,1.8-1.8h7C160.7,175.9,161.5,176.7,161.5,177.8z"/>
<path opacity="0.15" fill="#FFFFFF" enable-background="new    " d="M190.2,100.9h7c1,0,1.8,0.8,1.8,1.8v7c0,1-0.8,1.8-1.8,1.8h-7
	c-1,0-1.8-0.8-1.8-1.8v-7.1C188.4,101.7,189.2,100.9,190.2,100.9z"/>
<path opacity="0.15" fill="#FFFFFF" enable-background="new    " d="M177.7,113.4h7c1,0,1.8,0.8,1.8,1.8v6.9c0,1-0.8,1.8-1.8,1.8h-7
	c-1,0-1.8-0.8-1.8-1.8v-7C175.9,114.2,176.7,113.4,177.7,113.4z"/>
<path opacity="0.15" fill="#FFFFFF" enable-background="new    " d="M199,115.2v7c0,1-0.8,1.8-1.8,1.8h-7c-1,0-1.8-0.8-1.8-1.8v-7
	c0-1,0.8-1.8,1.8-1.8h7C198.2,113.4,199,114.2,199,115.2z"/>
<path opacity="0.15" fill="#FFFFFF" enable-background="new    " d="M165.2,125.9h7c1,0,1.8,0.8,1.8,1.8v7c0,1-0.8,1.8-1.8,1.8h-7
	c-1,0-1.8-0.8-1.8-1.8v-7C163.4,126.7,164.2,125.9,165.2,125.9z"/>
<path opacity="0.15" fill="#FFFFFF" enable-background="new    " d="M152.7,138.4h7c1,0,1.8,0.8,1.8,1.8v7c0,1-0.8,1.8-1.8,1.8h-7
	c-1,0-1.8-0.8-1.8-1.8v-7C150.9,139.3,151.7,138.4,152.7,138.4L152.7,138.4z"/>
<path opacity="0.15" fill="#FFFFFF" enable-background="new    " d="M174,140.2v7c0,1-0.8,1.8-1.8,1.8h-7c-1,0-1.8-0.8-1.8-1.8v-7
	c0-1,0.8-1.8,1.8-1.8h7C173.2,138.4,174,139.3,174,140.2z"/>
<path opacity="0.15" fill="#FFFFFF" enable-background="new    " d="M199,140.2v7c0,1-0.8,1.8-1.8,1.8h-7c-1,0-1.8-0.8-1.8-1.8v-7
	c0-1,0.8-1.8,1.8-1.8h7C198.2,138.4,199,139.3,199,140.2z"/>
<path opacity="0.15" fill="#FFFFFF" enable-background="new    " d="M186.5,127.7v7c0,1-0.8,1.8-1.8,1.8h-7c-1,0-1.8-0.8-1.8-1.8v-7
	c0-1,0.8-1.8,1.8-1.8h7C185.7,125.9,186.5,126.7,186.5,127.7z"/>
<path opacity="0.15" fill="#FFFFFF" enable-background="new    " d="M184.7,149.1h-7c-1,0-1.8-0.8-1.8-1.8v-7c0-1,0.8-1.8,1.8-1.8h7
	c1,0,1.8,0.8,1.8,1.8v7C186.5,148.2,185.7,149.1,184.7,149.1z"/>
<path opacity="0.15" fill="#FFFFFF" enable-background="new    " d="M197.2,136.5h-7c-1,0-1.8-0.8-1.8-1.8v-7c0-1,0.8-1.8,1.8-1.8h7
	c1,0,1.8,0.8,1.8,1.8v7C199,135.7,198.2,136.5,197.2,136.5z"/>
<path opacity="0.15" fill="#FFFFFF" enable-background="new    " d="M140.2,151h7c1,0,1.8,0.8,1.8,1.8v7c0,1-0.8,1.8-1.8,1.8h-7
	c-1,0-1.8-0.8-1.8-1.8v-7C138.4,151.7,139.2,151,140.2,151L140.2,151z"/>
<path opacity="0.15" fill="#FFFFFF" enable-background="new    " d="M127.7,163.4h7c1,0,1.8,0.8,1.8,1.8v7c0,1-0.8,1.8-1.8,1.8h-7
	c-1,0-1.8-0.8-1.8-1.8v-7C125.9,164.2,126.7,163.4,127.7,163.4z"/>
<path opacity="0.15" fill="#FFFFFF" enable-background="new    " d="M149,165.3v7c0,1-0.8,1.8-1.8,1.8h-7c-1,0-1.8-0.8-1.8-1.8v-7
	c0-1,0.8-1.8,1.8-1.8h7C148.2,163.4,149,164.2,149,165.3z"/>
<path opacity="0.15" fill="#FFFFFF" enable-background="new    " d="M175.9,184.8v-7c0-1,0.8-1.8,1.8-1.8h7c1,0,1.8,0.8,1.8,1.8v7
	c0,1-0.8,1.8-1.8,1.8h-7C176.7,186.5,175.9,185.7,175.9,184.8z"/>
<path opacity="0.15" fill="#FFFFFF" enable-background="new    " d="M188.4,197.3v-7c0-1,0.8-1.8,1.8-1.8h7c1,0,1.8,0.8,1.8,1.8v7
	c0,1-0.8,1.8-1.8,1.8h-7C189.2,199.1,188.4,198.2,188.4,197.3z"/>
<path opacity="0.15" fill="#FFFFFF" enable-background="new    " d="M190.2,175.9h7c1,0,1.8,0.8,1.8,1.8v7c0,1-0.8,1.8-1.8,1.8h-7
	c-1,0-1.8-0.8-1.8-1.8v-7C188.4,176.7,189.2,175.9,190.2,175.9z"/>
<path opacity="0.15" fill="#FFFFFF" enable-background="new    " d="M177.7,188.4h7c1,0,1.8,0.8,1.8,1.8v7c0,1-0.8,1.8-1.8,1.8h-7
	c-1,0-1.8-0.8-1.8-1.8v-7C175.9,189.3,176.7,188.4,177.7,188.4z"/>
<path opacity="0.15" fill="#FFFFFF" enable-background="new    " d="M149,190.3v7c0,1-0.8,1.8-1.8,1.8h-7c-1,0-1.8-0.8-1.8-1.8v-7
	c0-1,0.8-1.8,1.8-1.8h7C148.2,188.4,149,189.3,149,190.3z"/>
<path opacity="0.15" fill="#FFFFFF" enable-background="new    " d="M136.5,177.8v7c0,1-0.8,1.8-1.8,1.8h-7c-1,0-1.8-0.8-1.8-1.8v-7
	c0-1,0.8-1.8,1.8-1.8h7C135.7,175.9,136.5,176.7,136.5,177.8z"/>
<path opacity="0.15" fill="#FFFFFF" enable-background="new    " d="M199,165.3v7c0,1-0.8,1.8-1.8,1.8h-7c-1,0-1.8-0.8-1.8-1.8v-7
	c0-1,0.8-1.8,1.8-1.8h7C198.2,163.4,199,164.2,199,165.3z"/>
<path opacity="0.15" fill="#FFFFFF" enable-background="new    " d="M147.2,186.5h-7c-1,0-1.8-0.8-1.8-1.8v-7c0-1,0.8-1.8,1.8-1.8h7
	c1,0,1.8,0.8,1.8,1.8v7C149,185.7,148.2,186.5,147.2,186.5z"/>
<path opacity="0.15" fill="#FFFFFF" enable-background="new    " d="M174,190.3v7c0,1-0.8,1.8-1.8,1.8h-7c-1,0-1.8-0.8-1.8-1.8v-7
	c0-1,0.8-1.8,1.8-1.8h7C173.2,188.4,174,189.3,174,190.3z"/>
<path opacity="0.15" fill="#FFFFFF" enable-background="new    " d="M40.1,151h7c1,0,1.8,0.8,1.8,1.8v7c0,1-0.8,1.8-1.8,1.8h-7
	c-1,0-1.8-0.8-1.8-1.8v-7C38.3,151.7,39.1,151,40.1,151L40.1,151z"/>
<path opacity="0.15" fill="#FFFFFF" enable-background="new    " d="M27.6,163.4h7c1,0,1.8,0.8,1.8,1.8v7c0,1-0.8,1.8-1.8,1.8h-7
	c-1,0-1.8-0.8-1.8-1.8v-7C25.8,164.2,26.6,163.4,27.6,163.4z"/>
<path opacity="0.15" fill="#FFFFFF" enable-background="new    " d="M48.9,165.3v7c0,1-0.8,1.8-1.8,1.8h-7c-1,0-1.8-0.8-1.8-1.8v-7
	c0-1,0.8-1.8,1.8-1.8h7C48.1,163.4,48.9,164.2,48.9,165.3z"/>
<path opacity="0.15" fill="#FFFFFF" enable-background="new    " d="M36.4,152.7v7c0,1-0.8,1.8-1.8,1.8h-7c-1,0-1.8-0.8-1.8-1.8v-7
	c0-1,0.8-1.8,1.8-1.8h7C35.6,151,36.4,151.7,36.4,152.7L36.4,152.7z"/>
<path opacity="0.15" fill="#FFFFFF" enable-background="new    " d="M23.9,115.2v7c0,1-0.8,1.8-1.8,1.8h-6.9c-1,0-1.8-0.8-1.8-1.8
	v-7c0-1,0.8-1.8,1.8-1.8h7C23.1,113.4,23.9,114.2,23.9,115.2z"/>
<path opacity="0.15" fill="#FFFFFF" enable-background="new    " d="M11.4,102.7v7c0,1-0.8,1.8-1.8,1.8h-7c-1,0-1.8-0.8-1.8-1.8v-7
	c0-1,0.8-1.8,1.8-1.8h7C10.6,100.9,11.4,101.7,11.4,102.7z"/>
<path opacity="0.15" fill="#FFFFFF" enable-background="new    " d="M9.6,124h-7c-1,0-1.8-0.8-1.8-1.8v-7c0-1,0.8-1.8,1.8-1.8h7
	c1,0,1.8,0.8,1.8,1.8v7C11.4,123.2,10.6,124,9.6,124z"/>
<path opacity="0.15" fill="#FFFFFF" enable-background="new    " d="M48.9,190.3v7c0,1-0.8,1.8-1.8,1.8h-7c-1,0-1.8-0.8-1.8-1.8v-7
	c0-1,0.8-1.8,1.8-1.8h7C48.1,188.4,48.9,189.3,48.9,190.3z"/>
<path opacity="0.15" fill="#FFFFFF" enable-background="new    " d="M36.4,177.8v7c0,1-0.8,1.8-1.8,1.8h-7c-1,0-1.8-0.8-1.8-1.8v-7
	c0-1,0.8-1.8,1.8-1.8h7C35.6,175.9,36.4,176.7,36.4,177.8z"/>
<path opacity="0.15" fill="#FFFFFF" enable-background="new    " d="M0.8,134.7v-7c0-1,0.8-1.8,1.8-1.8h7c1,0,1.8,0.8,1.8,1.8v7
	c0,1-0.8,1.8-1.8,1.8h-7C1.6,136.5,0.8,135.7,0.8,134.7z"/>
<path opacity="0.15" fill="#FFFFFF" enable-background="new    " d="M47.1,186.5h-7c-1,0-1.8-0.8-1.8-1.8v-7c0-1,0.8-1.8,1.8-1.8h7
	c1,0,1.8,0.8,1.8,1.8v7C48.9,185.7,48.1,186.5,47.1,186.5z"/>
<path opacity="0.15" fill="#FFFFFF" enable-background="new    " d="M23.9,165.3v7c0,1-0.8,1.8-1.8,1.8h-6.9c-1,0-1.8-0.8-1.8-1.8
	v-7c0-1,0.8-1.8,1.8-1.8h7C23.1,163.4,23.9,164.2,23.9,165.3z"/>
<path opacity="0.15" fill="#FFFFFF" enable-background="new    " d="M11.4,152.7v7c0,1-0.8,1.8-1.8,1.8h-7c-1,0-1.8-0.8-1.8-1.8v-7
	c0-1,0.8-1.8,1.8-1.8h7C10.6,151,11.4,151.7,11.4,152.7L11.4,152.7z"/>
<path opacity="0.15" fill="#FFFFFF" enable-background="new    " d="M22.1,161.6h-7c-1,0-1.8-0.8-1.8-1.8v-7c0-1,0.8-1.8,1.8-1.8h7
	c1,0,1.8,0.8,1.8,1.8v7C23.9,160.8,23.1,161.6,22.1,161.6z"/>
<path opacity="0.15" fill="#FFFFFF" enable-background="new    " d="M99,190.3v7c0,1-0.8,1.8-1.8,1.8h-7c-1,0-1.8-0.8-1.8-1.8v-7
	c0-1,0.8-1.8,1.8-1.8h7C98.2,188.4,99,189.3,99,190.3z"/>
<path opacity="0.15" fill="#FFFFFF" enable-background="new    " d="M86.5,177.8v7c0,1-0.8,1.8-1.8,1.8h-7c-1,0-1.8-0.8-1.8-1.8v-7
	c0-1,0.8-1.8,1.8-1.8h7C85.6,175.9,86.5,176.7,86.5,177.8z"/>
<path opacity="0.15" fill="#FFFFFF" enable-background="new    " d="M84.6,199.1h-7c-1,0-1.8-0.8-1.8-1.8v-7c0-1,0.8-1.8,1.8-1.8h7
	c1,0,1.8,0.8,1.8,1.8v7C86.5,198.2,85.6,199.1,84.6,199.1z"/>
<path opacity="0.15" fill="#FFFFFF" enable-background="new    " d="M73.9,165.3v7c0,1-0.8,1.8-1.8,1.8h-7c-1,0-1.8-0.8-1.8-1.8v-7
	c0-1,0.8-1.8,1.8-1.8h7.1C73.1,163.4,73.9,164.2,73.9,165.3z"/>
<path opacity="0.15" fill="#FFFFFF" enable-background="new    " d="M61.4,152.7v7c0,1-0.8,1.8-1.8,1.8h-6.9c-1,0-1.8-0.8-1.8-1.8
	v-7c0-1,0.8-1.8,1.8-1.8h7C60.6,151,61.4,151.7,61.4,152.7L61.4,152.7z"/>
<path opacity="0.15" fill="#FFFFFF" enable-background="new    " d="M59.7,174h-7c-1,0-1.8-0.8-1.8-1.8v-7c0-1,0.8-1.8,1.8-1.8h7
	c1,0,1.8,0.8,1.8,1.8v7C61.4,173.3,60.6,174,59.7,174z"/>
<path opacity="0.15" fill="#FFFFFF" enable-background="new    " d="M59.7,199.1h-7c-1,0-1.8-0.8-1.8-1.8v-7c0-1,0.8-1.8,1.8-1.8h7
	c1,0,1.8,0.8,1.8,1.8v7C61.4,198.2,60.6,199.1,59.7,199.1z"/>
<path opacity="0.15" fill="#FFFFFF" enable-background="new    " d="M72.2,186.5h-7c-1,0-1.8-0.8-1.8-1.8v-7c0-1,0.8-1.8,1.8-1.8h7
	c1,0,1.8,0.8,1.8,1.8v7C73.9,185.7,73.1,186.5,72.2,186.5z"/>
<path opacity="0.15" fill="#FFFFFF" enable-background="new    " d="M50.8,184.8v-7c0-1,0.8-1.8,1.8-1.8h7c1,0,1.8,0.8,1.8,1.8v7
	c0,1-0.8,1.8-1.8,1.8h-7C51.6,186.5,50.8,185.7,50.8,184.8z"/>
<path opacity="0.15" fill="#FFFFFF" enable-background="new    " d="M63.3,197.3v-7c0-1,0.8-1.8,1.8-1.8h7c1,0,1.8,0.8,1.8,1.8v7
	c0,1-0.8,1.8-1.8,1.8h-7C64.2,199.1,63.3,198.2,63.3,197.3z"/>
<path opacity="0.15" fill="#FFFFFF" enable-background="new    " d="M48.9,140.2v7c0,1-0.8,1.8-1.8,1.8h-7c-1,0-1.8-0.8-1.8-1.8v-7
	c0-1,0.8-1.8,1.8-1.8h7C48.1,138.4,48.9,139.3,48.9,140.2z"/>
<path opacity="0.15" fill="#FFFFFF" enable-background="new    " d="M36.4,127.7v7c0,1-0.8,1.8-1.8,1.8h-7c-1,0-1.8-0.8-1.8-1.8v-7
	c0-1,0.8-1.8,1.8-1.8h7C35.6,125.9,36.4,126.7,36.4,127.7z"/>
<path opacity="0.15" fill="#FFFFFF" enable-background="new    " d="M34.6,149.1h-7c-1,0-1.8-0.8-1.8-1.8v-7c0-1,0.8-1.8,1.8-1.8h7
	c1,0,1.8,0.8,1.8,1.8v7C36.4,148.2,35.6,149.1,34.6,149.1z"/>
<path opacity="0.15" fill="#FFFFFF" enable-background="new    " d="M15.1,175.9h7c1,0,1.8,0.8,1.8,1.8v7c0,1-0.8,1.8-1.8,1.8h-7
	c-1,0-1.8-0.8-1.8-1.8v-7C13.3,176.7,14.1,175.9,15.1,175.9z"/>
<path opacity="0.15" fill="#FFFFFF" enable-background="new    " d="M2.6,188.4h7c1,0,1.8,0.8,1.8,1.8v7c0,1-0.8,1.8-1.8,1.8h-7
	c-1,0-1.8-0.8-1.8-1.8v-7C0.8,189.3,1.6,188.4,2.6,188.4z"/>
<path opacity="0.15" fill="#FFFFFF" enable-background="new    " d="M23.9,190.3v7c0,1-0.8,1.8-1.8,1.8h-6.9c-1,0-1.8-0.8-1.8-1.8
	v-7c0-1,0.8-1.8,1.8-1.8h7C23.1,188.4,23.9,189.3,23.9,190.3z"/>
<path opacity="0.15" fill="#FFFFFF" enable-background="new    " d="M11.4,177.8v7c0,1-0.8,1.8-1.8,1.8h-7c-1,0-1.8-0.8-1.8-1.8v-7
	c0-1,0.8-1.8,1.8-1.8h7C10.6,175.9,11.4,176.7,11.4,177.8z"/>
<path opacity="0.15" fill="#FFFFFF" enable-background="new    " d="M9.6,149.1h-7c-1,0-1.8-0.8-1.8-1.8v-7c0-1,0.8-1.8,1.8-1.8h7
	c1,0,1.8,0.8,1.8,1.8v7C11.4,148.2,10.6,149.1,9.6,149.1z"/>
<path opacity="0.15" fill="#FFFFFF" enable-background="new    " d="M22.1,136.5h-7c-1,0-1.8-0.8-1.8-1.8v-7c0-1,0.8-1.8,1.8-1.8h7
	c1,0,1.8,0.8,1.8,1.8v7C23.9,135.7,23.1,136.5,22.1,136.5z"/>
<path opacity="0.15" fill="#FFFFFF" enable-background="new    " d="M34.6,199.1h-7c-1,0-1.8-0.8-1.8-1.8v-7c0-1,0.8-1.8,1.8-1.8h7
	c1,0,1.8,0.8,1.8,1.8v7C36.4,198.2,35.6,199.1,34.6,199.1z"/>
<path opacity="0.15" fill="#FFFFFF" enable-background="new    " d="M13.3,147.2v-7c0-1,0.8-1.8,1.8-1.8h7c1,0,1.8,0.8,1.8,1.8v7
	c0,1-0.8,1.8-1.8,1.8h-7C14.1,149.1,13.3,148.2,13.3,147.2z"/>
<path opacity="0.15" fill="#FFFFFF" enable-background="new    " d="M9.6,174h-7c-1,0-1.8-0.8-1.8-1.8v-7c0-1,0.8-1.8,1.8-1.8h7
	c1,0,1.8,0.8,1.8,1.8v7C11.4,173.3,10.6,174,9.6,174z"/>
<path opacity="0.15" fill="#FFFFFF" enable-background="new    " d="M90.2,100.9h6.9c1,0,1.8,0.8,1.8,1.8v7c0,1-0.8,1.8-1.8,1.8h-7
	c-1,0-1.8-0.8-1.8-1.8v-7.1C88.4,101.7,89.1,100.9,90.2,100.9z"/>
<path opacity="0.15" fill="#FFFFFF" enable-background="new    " d="M77.6,113.4h7c1,0,1.8,0.8,1.8,1.8v6.9c0,1-0.8,1.8-1.8,1.8h-7
	c-1,0-1.8-0.8-1.8-1.8v-7C75.9,114.2,76.7,113.4,77.6,113.4z"/>
<path opacity="0.15" fill="#FFFFFF" enable-background="new    " d="M99,115.2v7c0,1-0.8,1.8-1.8,1.8h-7c-1,0-1.8-0.8-1.8-1.8v-7
	c0-1,0.8-1.8,1.8-1.8h7C98.2,113.4,99,114.2,99,115.2z"/>
<path opacity="0.15" fill="#FFFFFF" enable-background="new    " d="M86.5,102.7v7c0,1-0.8,1.8-1.8,1.8h-7c-1,0-1.8-0.8-1.8-1.8v-7
	c0-1,0.8-1.8,1.8-1.8h7C85.6,100.9,86.5,101.7,86.5,102.7z"/>
<path opacity="0.15" fill="#FFFFFF" enable-background="new    " d="M65.1,125.9h7c1,0,1.8,0.8,1.8,1.8v7c0,1-0.8,1.8-1.8,1.8h-7
	c-1,0-1.8-0.8-1.8-1.8v-7C63.3,126.7,64.2,125.9,65.1,125.9z"/>
<path opacity="0.15" fill="#FFFFFF" enable-background="new    " d="M52.7,138.4h7c1,0,1.8,0.8,1.8,1.8v7c0,1-0.8,1.8-1.8,1.8h-7
	c-1,0-1.8-0.8-1.8-1.8v-7C50.8,139.3,51.6,138.4,52.7,138.4z"/>
<path opacity="0.15" fill="#FFFFFF" enable-background="new    " d="M73.9,140.2v7c0,1-0.8,1.8-1.8,1.8h-7c-1,0-1.8-0.8-1.8-1.8v-7
	c0-1,0.8-1.8,1.8-1.8h7.1C73.1,138.4,73.9,139.3,73.9,140.2z"/>
<path opacity="0.15" fill="#FFFFFF" enable-background="new    " d="M61.4,127.7v7c0,1-0.8,1.8-1.8,1.8h-6.9c-1,0-1.8-0.8-1.8-1.8
	v-7c0-1,0.8-1.8,1.8-1.8h7C60.6,125.9,61.4,126.7,61.4,127.7z"/>
<path opacity="0.15" fill="#FFFFFF" enable-background="new    " d="M99,140.2v7c0,1-0.8,1.8-1.8,1.8h-7c-1,0-1.8-0.8-1.8-1.8v-7
	c0-1,0.8-1.8,1.8-1.8h7C98.2,138.4,99,139.3,99,140.2z"/>
<path opacity="0.15" fill="#FFFFFF" enable-background="new    " d="M86.5,127.7v7c0,1-0.8,1.8-1.8,1.8h-7c-1,0-1.8-0.8-1.8-1.8v-7
	c0-1,0.8-1.8,1.8-1.8h7C85.6,125.9,86.5,126.7,86.5,127.7z"/>
<path opacity="0.15" fill="#FFFFFF" enable-background="new    " d="M84.6,149.1h-7c-1,0-1.8-0.8-1.8-1.8v-7c0-1,0.8-1.8,1.8-1.8h7
	c1,0,1.8,0.8,1.8,1.8v7C86.5,148.2,85.6,149.1,84.6,149.1z"/>
<path opacity="0.15" fill="#FFFFFF" enable-background="new    " d="M97.1,136.5h-7c-1,0-1.8-0.8-1.8-1.8v-7c0-1,0.8-1.8,1.8-1.8h7
	c1,0,1.8,0.8,1.8,1.8v7C99,135.7,98.2,136.5,97.1,136.5z"/>
<path opacity="0.15" fill="#FFFFFF" enable-background="new    " d="M73.9,115.2v7c0,1-0.8,1.8-1.8,1.8h-7c-1,0-1.8-0.8-1.8-1.8v-7
	c0-1,0.8-1.8,1.8-1.8h7.1C73.1,113.4,73.9,114.2,73.9,115.2z"/>
<path opacity="0.15" fill="#FFFFFF" enable-background="new    " d="M61.4,102.7v7c0,1-0.8,1.8-1.8,1.8h-6.9c-1,0-1.8-0.8-1.8-1.8
	v-7c0-1,0.8-1.8,1.8-1.8h7C60.6,100.9,61.4,101.7,61.4,102.7z"/>
<path opacity="0.15" fill="#FFFFFF" enable-background="new    " d="M59.7,124h-7c-1,0-1.8-0.8-1.8-1.8v-7c0-1,0.8-1.8,1.8-1.8h7
	c1,0,1.8,0.8,1.8,1.8v7C61.4,123.2,60.6,124,59.7,124z"/>
<path opacity="0.15" fill="#FFFFFF" enable-background="new    " d="M72.2,111.5h-7c-1,0-1.8-0.8-1.8-1.8v-7c0-1,0.8-1.8,1.8-1.8h7
	c1,0,1.8,0.8,1.8,1.8v7C73.9,110.7,73.1,111.5,72.2,111.5z"/>
<path opacity="0.15" fill="#FFFFFF" enable-background="new    " d="M22.1,111.5h-7c-1,0-1.8-0.8-1.8-1.8v-7c0-1,0.8-1.8,1.8-1.8h7
	c1,0,1.8,0.8,1.8,1.8v7C23.9,110.7,23.1,111.5,22.1,111.5z"/>
<path opacity="0.15" fill="#FFFFFF" enable-background="new    " d="M25.8,109.7v-7c0-1,0.8-1.8,1.8-1.8h7c1,0,1.8,0.8,1.8,1.8v7
	c0,1-0.8,1.8-1.8,1.8h-7C26.6,111.5,25.8,110.7,25.8,109.7z"/>
<path opacity="0.15" fill="#FFFFFF" enable-background="new    " d="M97.1,186.5h-7c-1,0-1.8-0.8-1.8-1.8v-7c0-1,0.8-1.8,1.8-1.8h7
	c1,0,1.8,0.8,1.8,1.8v7C99,185.7,98.2,186.5,97.1,186.5z"/>
<path opacity="0.15" fill="#FFFFFF" enable-background="new    " d="M72.2,161.6h-7c-1,0-1.8-0.8-1.8-1.8v-7c0-1,0.8-1.8,1.8-1.8h7
	c1,0,1.8,0.8,1.8,1.8v7C73.9,160.8,73.1,161.6,72.2,161.6z"/>
<path opacity="0.15" fill="#FFFFFF" enable-background="new    " d="M84.6,174h-7c-1,0-1.8-0.8-1.8-1.8v-7c0-1,0.8-1.8,1.8-1.8h7
	c1,0,1.8,0.8,1.8,1.8v7C86.5,173.3,85.6,174,84.6,174z"/>
<path opacity="0.15" fill="#FFFFFF" enable-background="new    " d="M97.1,161.6h-7c-1,0-1.8-0.8-1.8-1.8v-7c0-1,0.8-1.8,1.8-1.8h7
	c1,0,1.8,0.8,1.8,1.8v7C99,160.8,98.2,161.6,97.1,161.6z"/>
<path opacity="0.15" fill="#FFFFFF" enable-background="new    " d="M75.9,159.7v-7c0-1,0.8-1.8,1.8-1.8h7c1,0,1.8,0.8,1.8,1.8v7
	c0,1-0.8,1.8-1.8,1.8h-7.1C76.7,161.6,75.9,160.8,75.9,159.7z"/>
<path opacity="0.15" fill="#FFFFFF" enable-background="new    " d="M88.4,172.2v-7c0-1,0.8-1.8,1.8-1.8h6.9c1,0,1.8,0.8,1.8,1.8v7
	c0,1-0.8,1.8-1.8,1.8h-7C89.1,174,88.4,173.3,88.4,172.2z"/>
<path opacity="0.15" fill="#FFFFFF" enable-background="new    " d="M47.1,136.5h-7c-1,0-1.8-0.8-1.8-1.8v-7c0-1,0.8-1.8,1.8-1.8h7
	c1,0,1.8,0.8,1.8,1.8v7C48.9,135.7,48.1,136.5,47.1,136.5z"/>
<path opacity="0.15" fill="#FFFFFF" enable-background="new    " d="M34.6,124h-7c-1,0-1.8-0.8-1.8-1.8v-7c0-1,0.8-1.8,1.8-1.8h7
	c1,0,1.8,0.8,1.8,1.8v7C36.4,123.2,35.6,124,34.6,124z"/>
<path opacity="0.15" fill="#FFFFFF" enable-background="new    " d="M47.1,111.5h-7c-1,0-1.8-0.8-1.8-1.8v-7c0-1,0.8-1.8,1.8-1.8h7
	c1,0,1.8,0.8,1.8,1.8v7C48.9,110.7,48.1,111.5,47.1,111.5z"/>
<path opacity="0.15" fill="#FFFFFF" enable-background="new    " d="M38.3,122.2v-7c0-1,0.8-1.8,1.8-1.8h7c1,0,1.8,0.8,1.8,1.8v7
	c0,1-0.8,1.8-1.8,1.8H40C39.1,124,38.3,123.2,38.3,122.2z"/>
<path opacity="0.15" fill="#FFFFFF" enable-background="new    " d="M0.4,209.7v-7c0-1,0.8-1.8,1.8-1.8h7c1,0,1.8,0.8,1.8,1.8v7
	c0,1-0.8,1.8-1.8,1.8h-7C1.3,211.6,0.4,210.8,0.4,209.7z"/>
<path opacity="0.15" fill="#FFFFFF" enable-background="new    " d="M13,222.3v-7c0-1,0.8-1.8,1.8-1.8h7c1,0,1.8,0.8,1.8,1.8v7
	c0,1-0.8,1.8-1.8,1.8h-7.1C13.8,224.1,13,223.3,13,222.3z"/>
<path opacity="0.15" fill="#FFFFFF" enable-background="new    " d="M14.8,201h7c1,0,1.8,0.8,1.8,1.8v7c0,1-0.8,1.8-1.8,1.8h-7
	c-1,0-1.8-0.8-1.8-1.8v-7C13,201.8,13.8,201,14.8,201z"/>
<path opacity="0.15" fill="#FFFFFF" enable-background="new    " d="M2.3,213.5h7c1,0,1.8,0.8,1.8,1.8v7c0,1-0.8,1.8-1.8,1.8h-7
	c-1,0-1.8-0.8-1.8-1.8v-7C0.4,214.3,1.3,213.5,2.3,213.5z"/>
<path opacity="0.15" fill="#FFFFFF" enable-background="new    " d="M25.5,234.8v-7c0-1,0.8-1.8,1.8-1.8h7c1,0,1.8,0.8,1.8,1.8v7
	c0,1-0.8,1.8-1.8,1.8h-7C26.3,236.6,25.5,235.8,25.5,234.8z"/>
<path opacity="0.15" fill="#FFFFFF" enable-background="new    " d="M38,247.3v-7c0-1,0.8-1.8,1.8-1.8h7c1,0,1.8,0.8,1.8,1.8v7
	c0,1-0.8,1.8-1.8,1.8h-7C38.8,249.1,38,248.3,38,247.3z"/>
<path opacity="0.15" fill="#FFFFFF" enable-background="new    " d="M39.8,226h7c1,0,1.8,0.8,1.8,1.8v7c0,1-0.8,1.8-1.8,1.8h-7
	c-1,0-1.8-0.8-1.8-1.8v-7C38,226.8,38.8,226,39.8,226z"/>
<path opacity="0.15" fill="#FFFFFF" enable-background="new    " d="M27.3,238.5h7c1,0,1.8,0.8,1.8,1.8v7c0,1-0.8,1.8-1.8,1.8h-7
	c-1,0-1.8-0.8-1.8-1.8v-7C25.5,239.3,26.3,238.5,27.3,238.5z"/>
<path opacity="0.15" fill="#FFFFFF" enable-background="new    " d="M39.8,201h7c1,0,1.8,0.8,1.8,1.8v7c0,1-0.8,1.8-1.8,1.8h-7
	c-1,0-1.8-0.8-1.8-1.8v-7C38,201.8,38.8,201,39.8,201z"/>
<path opacity="0.15" fill="#FFFFFF" enable-background="new    " d="M27.3,213.5h7c1,0,1.8,0.8,1.8,1.8v7c0,1-0.8,1.8-1.8,1.8h-7
	c-1,0-1.8-0.8-1.8-1.8v-7C25.5,214.3,26.3,213.5,27.3,213.5z"/>
<path opacity="0.15" fill="#FFFFFF" enable-background="new    " d="M48.6,215.3v7c0,1-0.8,1.8-1.8,1.8h-6.9c-1,0-1.8-0.8-1.8-1.8
	v-7c0-1,0.8-1.8,1.8-1.8h7C47.8,213.5,48.6,214.3,48.6,215.3z"/>
<path opacity="0.15" fill="#FFFFFF" enable-background="new    " d="M36.1,202.7v7c0,1-0.8,1.8-1.8,1.8h-6.9c-1,0-1.8-0.8-1.8-1.8
	v-7c0-1,0.8-1.8,1.8-1.8h7C35.3,201,36.1,201.8,36.1,202.7z"/>
<path opacity="0.15" fill="#FFFFFF" enable-background="new    " d="M14.8,226h7c1,0,1.8,0.8,1.8,1.8v7c0,1-0.8,1.8-1.8,1.8h-7
	c-1,0-1.8-0.8-1.8-1.8v-7C13,226.8,13.8,226,14.8,226z"/>
<path opacity="0.15" fill="#FFFFFF" enable-background="new    " d="M2.3,238.5h7c1,0,1.8,0.8,1.8,1.8v7c0,1-0.8,1.8-1.8,1.8h-7
	c-1,0-1.8-0.8-1.8-1.8v-7C0.4,239.3,1.3,238.5,2.3,238.5z"/>
<path opacity="0.15" fill="#FFFFFF" enable-background="new    " d="M23.6,240.3v7c0,1-0.8,1.8-1.8,1.8h-7c-1,0-1.8-0.8-1.8-1.8v-7
	c0-1,0.8-1.8,1.8-1.8h7C22.8,238.5,23.6,239.3,23.6,240.3z"/>
<path opacity="0.15" fill="#FFFFFF" enable-background="new    " d="M11.1,227.8v7c0,1-0.8,1.8-1.8,1.8h-7c-1,0-1.8-0.8-1.8-1.8v-7
	c0-1,0.8-1.8,1.8-1.8h7C10.2,226,11.1,226.8,11.1,227.8z"/>
<path opacity="0.15" fill="#FFFFFF" enable-background="new    " d="M50.5,259.8v-7c0-1,0.8-1.8,1.8-1.8h7c1,0,1.8,0.8,1.8,1.8v7
	c0,1-0.8,1.8-1.8,1.8h-7C51.3,261.6,50.5,260.8,50.5,259.8z"/>
<path opacity="0.15" fill="#FFFFFF" enable-background="new    " d="M63,272.3v-7c0-1,0.8-1.8,1.8-1.8h7c1,0,1.8,0.8,1.8,1.8v7
	c0,1-0.8,1.8-1.8,1.8h-7C63.8,274.1,63,273.3,63,272.3z"/>
<path opacity="0.15" fill="#FFFFFF" enable-background="new    " d="M64.8,251h7c1,0,1.8,0.8,1.8,1.8v7c0,1-0.8,1.8-1.8,1.8h-7
	c-1,0-1.8-0.8-1.8-1.8v-7C63,251.8,63.8,251,64.8,251z"/>
<path opacity="0.15" fill="#FFFFFF" enable-background="new    " d="M52.3,263.5h7c1,0,1.8,0.8,1.8,1.8v7c0,1-0.8,1.8-1.8,1.8h-7
	c-1,0-1.8-0.8-1.8-1.8v-7C50.5,264.3,51.3,263.5,52.3,263.5z"/>
<path opacity="0.15" fill="#FFFFFF" enable-background="new    " d="M14.8,276h7c1,0,1.8,0.8,1.8,1.8v7c0,1-0.8,1.8-1.8,1.8h-7
	c-1,0-1.8-0.8-1.8-1.8v-7C13,276.8,13.8,276,14.8,276z"/>
<path opacity="0.15" fill="#FFFFFF" enable-background="new    " d="M2.3,288.5h7c1,0,1.8,0.8,1.8,1.8v7c0,1-0.8,1.8-1.8,1.8h-7
	c-1,0-1.8-0.8-1.8-1.8v-7C0.4,289.3,1.3,288.5,2.3,288.5z"/>
<path opacity="0.15" fill="#FFFFFF" enable-background="new    " d="M23.6,290.3v7c0,1-0.8,1.8-1.8,1.8h-7c-1,0-1.8-0.8-1.8-1.8v-7
	c0-1,0.8-1.8,1.8-1.8h7C22.8,288.5,23.6,289.3,23.6,290.3z"/>
<path opacity="0.15" fill="#FFFFFF" enable-background="new    " d="M11.1,277.8v7c0,1-0.8,1.8-1.8,1.8h-7c-1,0-1.8-0.8-1.8-1.8v-7
	c0-1,0.8-1.8,1.8-1.8h7C10.2,276,11.1,276.8,11.1,277.8z"/>
<path opacity="0.15" fill="#FFFFFF" enable-background="new    " d="M89.8,251h7c1,0,1.8,0.8,1.8,1.8v7c0,1-0.8,1.8-1.8,1.8h-7
	c-1,0-1.8-0.8-1.8-1.8v-7C88,251.8,88.8,251,89.8,251z"/>
<path opacity="0.15" fill="#FFFFFF" enable-background="new    " d="M77.3,263.5h7c1,0,1.8,0.8,1.8,1.8v7c0,1-0.8,1.8-1.8,1.8h-7
	c-1,0-1.8-0.8-1.8-1.8v-7C75.5,264.3,76.3,263.5,77.3,263.5z"/>
<path opacity="0.15" fill="#FFFFFF" enable-background="new    " d="M34.3,299.1h-6.9c-1,0-1.8-0.8-1.8-1.8v-7c0-1,0.8-1.8,1.8-1.8
	h7c1,0,1.8,0.8,1.8,1.8v7C36.1,298.3,35.3,299.1,34.3,299.1z"/>
<path opacity="0.15" fill="#FFFFFF" enable-background="new    " d="M86.1,252.8v7c0,1-0.8,1.8-1.8,1.8h-7c-1,0-1.8-0.8-1.8-1.8v-7
	c0-1,0.8-1.8,1.8-1.8h7.1C85.3,251,86.1,251.8,86.1,252.8z"/>
<path opacity="0.15" fill="#FFFFFF" enable-background="new    " d="M64.8,276h7c1,0,1.8,0.8,1.8,1.8v7c0,1-0.8,1.8-1.8,1.8h-7
	c-1,0-1.8-0.8-1.8-1.8v-7C63,276.8,63.8,276,64.8,276z"/>
<path opacity="0.15" fill="#FFFFFF" enable-background="new    " d="M52.3,288.5h7c1,0,1.8,0.8,1.8,1.8v7c0,1-0.8,1.8-1.8,1.8h-7
	c-1,0-1.8-0.8-1.8-1.8v-7C50.5,289.3,51.3,288.5,52.3,288.5z"/>
<path opacity="0.15" fill="#FFFFFF" enable-background="new    " d="M9.3,274.1h-7c-1,0-1.8-0.8-1.8-1.8v-7c0-1,0.8-1.8,1.8-1.8h7
	c1,0,1.8,0.8,1.8,1.8v7C11.1,273.3,10.2,274.1,9.3,274.1z"/>
<path opacity="0.15" fill="#FFFFFF" enable-background="new    " d="M61.1,277.8v7c0,1-0.8,1.8-1.8,1.8h-7c-1,0-1.8-0.8-1.8-1.8v-7
	c0-1,0.8-1.8,1.8-1.8h7C60.3,276,61.1,276.8,61.1,277.8z"/>
<path opacity="0.15" fill="#FFFFFF" enable-background="new    " d="M89.8,201h7c1,0,1.8,0.8,1.8,1.8v7c0,1-0.8,1.8-1.8,1.8h-7
	c-1,0-1.8-0.8-1.8-1.8v-7C88,201.8,88.8,201,89.8,201z"/>
<path opacity="0.15" fill="#FFFFFF" enable-background="new    " d="M77.3,213.5h7c1,0,1.8,0.8,1.8,1.8v7c0,1-0.8,1.8-1.8,1.8h-7
	c-1,0-1.8-0.8-1.8-1.8v-7C75.5,214.3,76.3,213.5,77.3,213.5z"/>
<path opacity="0.15" fill="#FFFFFF" enable-background="new    " d="M98.6,215.3v7c0,1-0.8,1.8-1.8,1.8h-6.9c-1,0-1.8-0.8-1.8-1.8
	v-7c0-1,0.8-1.8,1.8-1.8h7C97.8,213.5,98.6,214.3,98.6,215.3z"/>
<path opacity="0.15" fill="#FFFFFF" enable-background="new    " d="M86.1,202.7v7c0,1-0.8,1.8-1.8,1.8h-7c-1,0-1.8-0.8-1.8-1.8v-7
	c0-1,0.8-1.8,1.8-1.8h7.1C85.3,201,86.1,201.8,86.1,202.7z"/>
<path opacity="0.15" fill="#FFFFFF" enable-background="new    " d="M64.8,226h7c1,0,1.8,0.8,1.8,1.8v7c0,1-0.8,1.8-1.8,1.8h-7
	c-1,0-1.8-0.8-1.8-1.8v-7C63,226.8,63.8,226,64.8,226z"/>
<path opacity="0.15" fill="#FFFFFF" enable-background="new    " d="M52.3,238.5h7c1,0,1.8,0.8,1.8,1.8v7c0,1-0.8,1.8-1.8,1.8h-7
	c-1,0-1.8-0.8-1.8-1.8v-7C50.5,239.3,51.3,238.5,52.3,238.5z"/>
<path opacity="0.15" fill="#FFFFFF" enable-background="new    " d="M73.6,240.3v7c0,1-0.8,1.8-1.8,1.8h-7c-1,0-1.8-0.8-1.8-1.8v-7
	c0-1,0.8-1.8,1.8-1.8h7C72.8,238.5,73.6,239.3,73.6,240.3z"/>
<path opacity="0.15" fill="#FFFFFF" enable-background="new    " d="M61.1,227.8v7c0,1-0.8,1.8-1.8,1.8h-7c-1,0-1.8-0.8-1.8-1.8v-7
	c0-1,0.8-1.8,1.8-1.8h7C60.3,226,61.1,226.8,61.1,227.8z"/>
<path opacity="0.15" fill="#FFFFFF" enable-background="new    " d="M98.6,240.3v7c0,1-0.8,1.8-1.8,1.8h-6.9c-1,0-1.8-0.8-1.8-1.8
	v-7c0-1,0.8-1.8,1.8-1.8h7C97.8,238.5,98.6,239.3,98.6,240.3z"/>
<path opacity="0.15" fill="#FFFFFF" enable-background="new    " d="M86.1,227.8v7c0,1-0.8,1.8-1.8,1.8h-7c-1,0-1.8-0.8-1.8-1.8v-7
	c0-1,0.8-1.8,1.8-1.8h7.1C85.3,226,86.1,226.8,86.1,227.8z"/>
<path opacity="0.15" fill="#FFFFFF" enable-background="new    " d="M84.3,249.1h-7c-1,0-1.8-0.8-1.8-1.8v-7c0-1,0.8-1.8,1.8-1.8h7
	c1,0,1.8,0.8,1.8,1.8v7C86.1,248.3,85.3,249.1,84.3,249.1z"/>
<path opacity="0.15" fill="#FFFFFF" enable-background="new    " d="M96.8,236.6h-7c-1,0-1.8-0.8-1.8-1.8v-7c0-1,0.8-1.8,1.8-1.8h7
	c1,0,1.8,0.8,1.8,1.8v7C98.6,235.8,97.8,236.6,96.8,236.6z"/>
<path opacity="0.15" fill="#FFFFFF" enable-background="new    " d="M73.6,215.3v7c0,1-0.8,1.8-1.8,1.8h-7c-1,0-1.8-0.8-1.8-1.8v-7
	c0-1,0.8-1.8,1.8-1.8h7C72.8,213.5,73.6,214.3,73.6,215.3z"/>
<path opacity="0.15" fill="#FFFFFF" enable-background="new    " d="M61.1,202.7v7c0,1-0.8,1.8-1.8,1.8h-7c-1,0-1.8-0.8-1.8-1.8v-7
	c0-1,0.8-1.8,1.8-1.8h7C60.3,201,61.1,201.8,61.1,202.7z"/>
<path opacity="0.15" fill="#FFFFFF" enable-background="new    " d="M59.3,224.1h-7c-1,0-1.8-0.8-1.8-1.8v-7c0-1,0.8-1.8,1.8-1.8h7
	c1,0,1.8,0.8,1.8,1.8v7C61.1,223.3,60.3,224.1,59.3,224.1z"/>
<path opacity="0.15" fill="#FFFFFF" enable-background="new    " d="M71.8,211.6h-7c-1,0-1.8-0.8-1.8-1.8v-7c0-1,0.8-1.8,1.8-1.8h7
	c1,0,1.8,0.8,1.8,1.8v7C73.6,210.8,72.8,211.6,71.8,211.6z"/>
<path opacity="0.15" fill="#FFFFFF" enable-background="new    " d="M39.8,251h7c1,0,1.8,0.8,1.8,1.8v7c0,1-0.8,1.8-1.8,1.8h-7
	c-1,0-1.8-0.8-1.8-1.8v-7C38,251.8,38.8,251,39.8,251z"/>
<path opacity="0.15" fill="#FFFFFF" enable-background="new    " d="M27.3,263.5h7c1,0,1.8,0.8,1.8,1.8v7c0,1-0.8,1.8-1.8,1.8h-7
	c-1,0-1.8-0.8-1.8-1.8v-7C25.5,264.3,26.3,263.5,27.3,263.5z"/>
<path opacity="0.15" fill="#FFFFFF" enable-background="new    " d="M48.6,265.3v7c0,1-0.8,1.8-1.8,1.8h-6.9c-1,0-1.8-0.8-1.8-1.8
	v-7c0-1,0.8-1.8,1.8-1.8h7C47.8,263.5,48.6,264.3,48.6,265.3z"/>
<path opacity="0.15" fill="#FFFFFF" enable-background="new    " d="M36.1,252.8v7c0,1-0.8,1.8-1.8,1.8h-6.9c-1,0-1.8-0.8-1.8-1.8
	v-7c0-1,0.8-1.8,1.8-1.8h7C35.3,251,36.1,251.8,36.1,252.8z"/>
<path opacity="0.15" fill="#FFFFFF" enable-background="new    " d="M75.5,284.8v-7c0-1,0.8-1.8,1.8-1.8h7c1,0,1.8,0.8,1.8,1.8v7
	c0,1-0.8,1.8-1.8,1.8h-7C76.3,286.6,75.5,285.8,75.5,284.8z"/>
<path opacity="0.15" fill="#FFFFFF" enable-background="new    " d="M88,297.3v-7c0-1,0.8-1.8,1.8-1.8h7c1,0,1.8,0.8,1.8,1.8v7
	c0,1-0.8,1.8-1.8,1.8h-7C88.8,299.1,88,298.3,88,297.3z"/>
<path opacity="0.15" fill="#FFFFFF" enable-background="new    " d="M89.8,276h7c1,0,1.8,0.8,1.8,1.8v7c0,1-0.8,1.8-1.8,1.8h-7
	c-1,0-1.8-0.8-1.8-1.8v-7C88,276.8,88.8,276,89.8,276z"/>
<path opacity="0.15" fill="#FFFFFF" enable-background="new    " d="M77.3,288.5h7c1,0,1.8,0.8,1.8,1.8v7c0,1-0.8,1.8-1.8,1.8h-7
	c-1,0-1.8-0.8-1.8-1.8v-7C75.5,289.3,76.3,288.5,77.3,288.5z"/>
<path opacity="0.15" fill="#FFFFFF" enable-background="new    " d="M48.6,290.3v7c0,1-0.8,1.8-1.8,1.8h-6.9c-1,0-1.8-0.8-1.8-1.8
	v-7c0-1,0.8-1.8,1.8-1.8h7C47.8,288.5,48.6,289.3,48.6,290.3z"/>
<path opacity="0.15" fill="#FFFFFF" enable-background="new    " d="M36.1,277.8v7c0,1-0.8,1.8-1.8,1.8h-6.9c-1,0-1.8-0.8-1.8-1.8
	v-7c0-1,0.8-1.8,1.8-1.8h7C35.3,276,36.1,276.8,36.1,277.8z"/>
<path opacity="0.15" fill="#FFFFFF" enable-background="new    " d="M98.6,265.3v7c0,1-0.8,1.8-1.8,1.8h-6.9c-1,0-1.8-0.8-1.8-1.8
	v-7c0-1,0.8-1.8,1.8-1.8h7C97.8,263.5,98.6,264.3,98.6,265.3z"/>
<path opacity="0.15" fill="#FFFFFF" enable-background="new    " d="M46.8,286.6h-7c-1,0-1.8-0.8-1.8-1.8v-7c0-1,0.8-1.8,1.8-1.8h7
	c1,0,1.8,0.8,1.8,1.8v7C48.6,285.8,47.8,286.6,46.8,286.6z"/>
<path opacity="0.15" fill="#FFFFFF" enable-background="new    " d="M23.6,265.3v7c0,1-0.8,1.8-1.8,1.8h-7c-1,0-1.8-0.8-1.8-1.8v-7
	c0-1,0.8-1.8,1.8-1.8h7C22.8,263.5,23.6,264.3,23.6,265.3z"/>
<path opacity="0.15" fill="#FFFFFF" enable-background="new    " d="M11.1,252.8v7c0,1-0.8,1.8-1.8,1.8h-7c-1,0-1.8-0.8-1.8-1.8v-7
	c0-1,0.8-1.8,1.8-1.8h7C10.2,251,11.1,251.8,11.1,252.8z"/>
<path opacity="0.15" fill="#FFFFFF" enable-background="new    " d="M73.6,290.3v7c0,1-0.8,1.8-1.8,1.8h-7c-1,0-1.8-0.8-1.8-1.8v-7
	c0-1,0.8-1.8,1.8-1.8h7C72.8,288.5,73.6,289.3,73.6,290.3z"/>
<path opacity="0.15" fill="#FFFFFF" enable-background="new    " d="M21.8,261.6h-7c-1,0-1.8-0.8-1.8-1.8v-7c0-1,0.8-1.8,1.8-1.8h7
	c1,0,1.8,0.8,1.8,1.8v7C23.6,260.8,22.8,261.6,21.8,261.6z"/>
<path opacity="0.15" fill="#FFFFFF" enable-background="new    " d="M189.9,201h7c1,0,1.8,0.8,1.8,1.8v7c0,1-0.8,1.8-1.8,1.8h-7
	c-1,0-1.8-0.8-1.8-1.8v-7C188.1,201.8,188.9,201,189.9,201z"/>
<path opacity="0.15" fill="#FFFFFF" enable-background="new    " d="M177.4,213.5h7c1,0,1.8,0.8,1.8,1.8v7c0,1-0.8,1.8-1.8,1.8h-7
	c-1,0-1.8-0.8-1.8-1.8v-7C175.5,214.3,176.4,213.5,177.4,213.5z"/>
<path opacity="0.15" fill="#FFFFFF" enable-background="new    " d="M198.7,215.3v7c0,1-0.8,1.8-1.8,1.8h-7c-1,0-1.8-0.8-1.8-1.8v-7
	c0-1,0.8-1.8,1.8-1.8h7C197.8,213.5,198.7,214.3,198.7,215.3z"/>
<path opacity="0.15" fill="#FFFFFF" enable-background="new    " d="M186.1,202.7v7c0,1-0.8,1.8-1.8,1.8h-7c-1,0-1.8-0.8-1.8-1.8v-7
	c0-1,0.8-1.8,1.8-1.8h7C185.4,201,186.1,201.8,186.1,202.7z"/>
<path opacity="0.15" fill="#FFFFFF" enable-background="new    " d="M164.9,226h7c1,0,1.8,0.8,1.8,1.8v7c0,1-0.8,1.8-1.8,1.8h-7
	c-1,0-1.8-0.8-1.8-1.8v-7C163.1,226.8,163.8,226,164.9,226z"/>
<path opacity="0.15" fill="#FFFFFF" enable-background="new    " d="M152.3,238.5h7c1,0,1.8,0.8,1.8,1.8v7c0,1-0.8,1.8-1.8,1.8h-7
	c-1,0-1.8-0.8-1.8-1.8v-7C150.6,239.3,151.4,238.5,152.3,238.5L152.3,238.5z"/>
<path opacity="0.15" fill="#FFFFFF" enable-background="new    " d="M173.7,240.3v7c0,1-0.8,1.8-1.8,1.8h-7c-1,0-1.8-0.8-1.8-1.8v-7
	c0-1,0.8-1.8,1.8-1.8h7C172.9,238.5,173.7,239.3,173.7,240.3z"/>
<path opacity="0.15" fill="#FFFFFF" enable-background="new    " d="M161.2,227.8v7c0,1-0.8,1.8-1.8,1.8h-7c-1,0-1.8-0.8-1.8-1.8v-7
	c0-1,0.8-1.8,1.8-1.8h7C160.4,226,161.2,226.8,161.2,227.8z"/>
<path opacity="0.15" fill="#FFFFFF" enable-background="new    " d="M198.7,240.3v7c0,1-0.8,1.8-1.8,1.8h-7c-1,0-1.8-0.8-1.8-1.8v-7
	c0-1,0.8-1.8,1.8-1.8h7C197.8,238.5,198.7,239.3,198.7,240.3z"/>
<path opacity="0.15" fill="#FFFFFF" enable-background="new    " d="M186.1,227.8v7c0,1-0.8,1.8-1.8,1.8h-7c-1,0-1.8-0.8-1.8-1.8v-7
	c0-1,0.8-1.8,1.8-1.8h7C185.4,226,186.1,226.8,186.1,227.8z"/>
<path opacity="0.15" fill="#FFFFFF" enable-background="new    " d="M184.4,249.1h-7c-1,0-1.8-0.8-1.8-1.8v-7c0-1,0.8-1.8,1.8-1.8h7
	c1,0,1.8,0.8,1.8,1.8v7C186.1,248.3,185.4,249.1,184.4,249.1z"/>
<path opacity="0.15" fill="#FFFFFF" enable-background="new    " d="M196.9,236.6h-7c-1,0-1.8-0.8-1.8-1.8v-7c0-1,0.8-1.8,1.8-1.8h7
	c1,0,1.8,0.8,1.8,1.8v7C198.7,235.8,197.8,236.6,196.9,236.6z"/>
<path opacity="0.15" fill="#FFFFFF" enable-background="new    " d="M173.7,215.3v7c0,1-0.8,1.8-1.8,1.8h-7c-1,0-1.8-0.8-1.8-1.8v-7
	c0-1,0.8-1.8,1.8-1.8h7C172.9,213.5,173.7,214.3,173.7,215.3z"/>
<path opacity="0.15" fill="#FFFFFF" enable-background="new    " d="M161.2,202.7v7c0,1-0.8,1.8-1.8,1.8h-7c-1,0-1.8-0.8-1.8-1.8v-7
	c0-1,0.8-1.8,1.8-1.8h7C160.4,201,161.2,201.8,161.2,202.7z"/>
<path opacity="0.15" fill="#FFFFFF" enable-background="new    " d="M159.3,224.1h-7c-1,0-1.8-0.8-1.8-1.8v-7c0-1,0.8-1.8,1.8-1.8h7
	c1,0,1.8,0.8,1.8,1.8v7C161.2,223.3,160.4,224.1,159.3,224.1z"/>
<path opacity="0.15" fill="#FFFFFF" enable-background="new    " d="M171.9,211.6h-7c-1,0-1.8-0.8-1.8-1.8v-7c0-1,0.8-1.8,1.8-1.8h7
	c1,0,1.8,0.8,1.8,1.8v7C173.7,210.8,172.9,211.6,171.9,211.6z"/>
<path opacity="0.15" fill="#FFFFFF" enable-background="new    " d="M139.8,251h7c1,0,1.8,0.8,1.8,1.8v7c0,1-0.8,1.8-1.8,1.8h-7
	c-1,0-1.8-0.8-1.8-1.8v-7C138,251.8,138.9,251,139.8,251z"/>
<path opacity="0.15" fill="#FFFFFF" enable-background="new    " d="M127.3,263.5h7c1,0,1.8,0.8,1.8,1.8v7c0,1-0.8,1.8-1.8,1.8h-7
	c-1,0-1.8-0.8-1.8-1.8v-7C125.5,264.3,126.3,263.5,127.3,263.5z"/>
<path opacity="0.15" fill="#FFFFFF" enable-background="new    " d="M148.7,265.3v7c0,1-0.8,1.8-1.8,1.8h-7c-1,0-1.8-0.8-1.8-1.8v-7
	c0-1,0.8-1.8,1.8-1.8h7C147.8,263.5,148.7,264.3,148.7,265.3z"/>
<path opacity="0.15" fill="#FFFFFF" enable-background="new    " d="M136.1,252.8v7c0,1-0.8,1.8-1.8,1.8h-7c-1,0-1.8-0.8-1.8-1.8v-7
	c0-1,0.8-1.8,1.8-1.8h7C135.3,251,136.1,251.8,136.1,252.8z"/>
<path opacity="0.15" fill="#FFFFFF" enable-background="new    " d="M123.6,215.3v7c0,1-0.8,1.8-1.8,1.8h-7c-1,0-1.8-0.8-1.8-1.8v-7
	c0-1,0.8-1.8,1.8-1.8h7C122.8,213.5,123.6,214.3,123.6,215.3z"/>
<path opacity="0.15" fill="#FFFFFF" enable-background="new    " d="M111.1,202.7v7c0,1-0.8,1.8-1.8,1.8h-7c-1,0-1.8-0.8-1.8-1.8v-7
	c0-1,0.8-1.8,1.8-1.8h7C110.4,201,111.1,201.8,111.1,202.7z"/>
<path opacity="0.15" fill="#FFFFFF" enable-background="new    " d="M109.3,224.1h-7c-1,0-1.8-0.8-1.8-1.8v-7c0-1,0.8-1.8,1.8-1.8h7
	c1,0,1.8,0.8,1.8,1.8v7C111.1,223.3,110.4,224.1,109.3,224.1z"/>
<path opacity="0.15" fill="#FFFFFF" enable-background="new    " d="M121.8,211.6h-7c-1,0-1.8-0.8-1.8-1.8v-7c0-1,0.8-1.8,1.8-1.8h7
	c1,0,1.8,0.8,1.8,1.8v7C123.6,210.8,122.8,211.6,121.8,211.6z"/>
<path opacity="0.15" fill="#FFFFFF" enable-background="new    " d="M148.7,290.3v7c0,1-0.8,1.8-1.8,1.8h-7c-1,0-1.8-0.8-1.8-1.8v-7
	c0-1,0.8-1.8,1.8-1.8h7C147.8,288.5,148.7,289.3,148.7,290.3z"/>
<path opacity="0.15" fill="#FFFFFF" enable-background="new    " d="M136.1,277.8v7c0,1-0.8,1.8-1.8,1.8h-7c-1,0-1.8-0.8-1.8-1.8v-7
	c0-1,0.8-1.8,1.8-1.8h7C135.3,276,136.1,276.8,136.1,277.8z"/>
<path opacity="0.15" fill="#FFFFFF" enable-background="new    " d="M100.5,234.8v-7c0-1,0.8-1.8,1.8-1.8h6.9c1,0,1.8,0.8,1.8,1.8v7
	c0,1-0.8,1.8-1.8,1.8h-7C101.3,236.6,100.5,235.8,100.5,234.8z"/>
<path opacity="0.15" fill="#FFFFFF" enable-background="new    " d="M146.8,286.6h-7c-1,0-1.8-0.8-1.8-1.8v-7c0-1,0.8-1.8,1.8-1.8h7
	c1,0,1.8,0.8,1.8,1.8v7C148.7,285.8,147.8,286.6,146.8,286.6z"/>
<path opacity="0.15" fill="#FFFFFF" enable-background="new    " d="M123.6,265.3v7c0,1-0.8,1.8-1.8,1.8h-7c-1,0-1.8-0.8-1.8-1.8v-7
	c0-1,0.8-1.8,1.8-1.8h7C122.8,263.5,123.6,264.3,123.6,265.3z"/>
<path opacity="0.15" fill="#FFFFFF" enable-background="new    " d="M111.1,252.8v7c0,1-0.8,1.8-1.8,1.8h-7c-1,0-1.8-0.8-1.8-1.8v-7
	c0-1,0.8-1.8,1.8-1.8h7C110.4,251,111.1,251.8,111.1,252.8z"/>
<path opacity="0.15" fill="#FFFFFF" enable-background="new    " d="M125.5,209.7v-7c0-1,0.8-1.8,1.8-1.8h7c1,0,1.8,0.8,1.8,1.8v7
	c0,1-0.8,1.8-1.8,1.8h-7C126.3,211.6,125.5,210.8,125.5,209.7z"/>
<path opacity="0.15" fill="#FFFFFF" enable-background="new    " d="M121.8,261.6h-7c-1,0-1.8-0.8-1.8-1.8v-7c0-1,0.8-1.8,1.8-1.8h7
	c1,0,1.8,0.8,1.8,1.8v7C123.6,260.8,122.8,261.6,121.8,261.6z"/>
<path opacity="0.15" fill="#FFFFFF" enable-background="new    " d="M198.7,290.3v7c0,1-0.8,1.8-1.8,1.8h-7c-1,0-1.8-0.8-1.8-1.8v-7
	c0-1,0.8-1.8,1.8-1.8h7C197.8,288.5,198.7,289.3,198.7,290.3z"/>
<path opacity="0.15" fill="#FFFFFF" enable-background="new    " d="M186.1,277.8v7c0,1-0.8,1.8-1.8,1.8h-7c-1,0-1.8-0.8-1.8-1.8v-7
	c0-1,0.8-1.8,1.8-1.8h7C185.4,276,186.1,276.8,186.1,277.8z"/>
<path opacity="0.15" fill="#FFFFFF" enable-background="new    " d="M184.4,299.1h-7c-1,0-1.8-0.8-1.8-1.8v-7c0-1,0.8-1.8,1.8-1.8h7
	c1,0,1.8,0.8,1.8,1.8v7C186.1,298.3,185.4,299.1,184.4,299.1z"/>
<path opacity="0.15" fill="#FFFFFF" enable-background="new    " d="M196.9,286.6h-7c-1,0-1.8-0.8-1.8-1.8v-7c0-1,0.8-1.8,1.8-1.8h7
	c1,0,1.8,0.8,1.8,1.8v7C198.7,285.8,197.8,286.6,196.9,286.6z"/>
<path opacity="0.15" fill="#FFFFFF" enable-background="new    " d="M173.7,265.3v7c0,1-0.8,1.8-1.8,1.8h-7c-1,0-1.8-0.8-1.8-1.8v-7
	c0-1,0.8-1.8,1.8-1.8h7C172.9,263.5,173.7,264.3,173.7,265.3z"/>
<path opacity="0.15" fill="#FFFFFF" enable-background="new    " d="M161.2,252.8v7c0,1-0.8,1.8-1.8,1.8h-7c-1,0-1.8-0.8-1.8-1.8v-7
	c0-1,0.8-1.8,1.8-1.8h7C160.4,251,161.2,251.8,161.2,252.8z"/>
<path opacity="0.15" fill="#FFFFFF" enable-background="new    " d="M159.3,274.1h-7c-1,0-1.8-0.8-1.8-1.8v-7c0-1,0.8-1.8,1.8-1.8h7
	c1,0,1.8,0.8,1.8,1.8v7C161.2,273.3,160.4,274.1,159.3,274.1z"/>
<path opacity="0.15" fill="#FFFFFF" enable-background="new    " d="M171.9,261.6h-7c-1,0-1.8-0.8-1.8-1.8v-7c0-1,0.8-1.8,1.8-1.8h7
	c1,0,1.8,0.8,1.8,1.8v7C173.7,260.8,172.9,261.6,171.9,261.6z"/>
<path opacity="0.15" fill="#FFFFFF" enable-background="new    " d="M159.3,299.1h-7c-1,0-1.8-0.8-1.8-1.8v-7c0-1,0.8-1.8,1.8-1.8h7
	c1,0,1.8,0.8,1.8,1.8v7C161.2,298.3,160.4,299.1,159.3,299.1z"/>
<path opacity="0.15" fill="#FFFFFF" enable-background="new    " d="M171.9,286.6h-7c-1,0-1.8-0.8-1.8-1.8v-7c0-1,0.8-1.8,1.8-1.8h7
	c1,0,1.8,0.8,1.8,1.8v7C173.7,285.8,172.9,286.6,171.9,286.6z"/>
<path opacity="0.15" fill="#FFFFFF" enable-background="new    " d="M150.6,284.8v-7c0-1,0.8-1.8,1.8-1.8h7c1,0,1.8,0.8,1.8,1.8v7
	c0,1-0.8,1.8-1.8,1.8h-7C151.4,286.6,150.6,285.8,150.6,284.8L150.6,284.8z"/>
<path opacity="0.15" fill="#FFFFFF" enable-background="new    " d="M163.1,297.3v-7c0-1,0.8-1.8,1.8-1.8h7c1,0,1.8,0.8,1.8,1.8v7
	c0,1-0.8,1.8-1.8,1.8h-7C163.8,299.1,163.1,298.3,163.1,297.3z"/>
<path opacity="0.15" fill="#FFFFFF" enable-background="new    " d="M184.4,274.1h-7c-1,0-1.8-0.8-1.8-1.8v-7c0-1,0.8-1.8,1.8-1.8h7
	c1,0,1.8,0.8,1.8,1.8v7C186.1,273.3,185.4,274.1,184.4,274.1z"/>
<path opacity="0.15" fill="#FFFFFF" enable-background="new    " d="M196.9,261.6h-7c-1,0-1.8-0.8-1.8-1.8v-7c0-1,0.8-1.8,1.8-1.8h7
	c1,0,1.8,0.8,1.8,1.8v7C198.7,260.8,197.8,261.6,196.9,261.6z"/>
<path opacity="0.15" fill="#FFFFFF" enable-background="new    " d="M175.5,259.8v-7c0-1,0.8-1.8,1.8-1.8h7c1,0,1.8,0.8,1.8,1.8v7
	c0,1-0.8,1.8-1.8,1.8h-7C176.4,261.6,175.5,260.8,175.5,259.8z"/>
<path opacity="0.15" fill="#FFFFFF" enable-background="new    " d="M188.1,272.3v-7c0-1,0.8-1.8,1.8-1.8h7c1,0,1.8,0.8,1.8,1.8v7
	c0,1-0.8,1.8-1.8,1.8h-7C188.9,274.1,188.1,273.3,188.1,272.3z"/>
<path opacity="0.15" fill="#FFFFFF" enable-background="new    " d="M148.7,240.3v7c0,1-0.8,1.8-1.8,1.8h-7c-1,0-1.8-0.8-1.8-1.8v-7
	c0-1,0.8-1.8,1.8-1.8h7C147.8,238.5,148.7,239.3,148.7,240.3z"/>
<path opacity="0.15" fill="#FFFFFF" enable-background="new    " d="M136.1,227.8v7c0,1-0.8,1.8-1.8,1.8h-7c-1,0-1.8-0.8-1.8-1.8v-7
	c0-1,0.8-1.8,1.8-1.8h7C135.3,226,136.1,226.8,136.1,227.8z"/>
<path opacity="0.15" fill="#FFFFFF" enable-background="new    " d="M134.4,249.1h-7c-1,0-1.8-0.8-1.8-1.8v-7c0-1,0.8-1.8,1.8-1.8h7
	c1,0,1.8,0.8,1.8,1.8v7C136.1,248.3,135.3,249.1,134.4,249.1z"/>
<path opacity="0.15" fill="#FFFFFF" enable-background="new    " d="M146.8,236.6h-7c-1,0-1.8-0.8-1.8-1.8v-7c0-1,0.8-1.8,1.8-1.8h7
	c1,0,1.8,0.8,1.8,1.8v7C148.7,235.8,147.8,236.6,146.8,236.6z"/>
<path opacity="0.15" fill="#FFFFFF" enable-background="new    " d="M114.9,276h7c1,0,1.8,0.8,1.8,1.8v7c0,1-0.8,1.8-1.8,1.8h-7
	c-1,0-1.8-0.8-1.8-1.8v-7C113,276.8,113.8,276,114.9,276z"/>
<path opacity="0.15" fill="#FFFFFF" enable-background="new    " d="M102.3,288.5h7c1,0,1.8,0.8,1.8,1.8v7c0,1-0.8,1.8-1.8,1.8h-7
	c-1,0-1.8-0.8-1.8-1.8v-7C100.5,289.3,101.3,288.5,102.3,288.5z"/>
<path opacity="0.15" fill="#FFFFFF" enable-background="new    " d="M123.6,290.3v7c0,1-0.8,1.8-1.8,1.8h-7c-1,0-1.8-0.8-1.8-1.8v-7
	c0-1,0.8-1.8,1.8-1.8h7C122.8,288.5,123.6,289.3,123.6,290.3z"/>
<path opacity="0.15" fill="#FFFFFF" enable-background="new    " d="M111.1,277.8v7c0,1-0.8,1.8-1.8,1.8h-7c-1,0-1.8-0.8-1.8-1.8v-7
	c0-1,0.8-1.8,1.8-1.8h7C110.4,276,111.1,276.8,111.1,277.8z"/>
<path opacity="0.15" fill="#FFFFFF" enable-background="new    " d="M109.3,249.1h-7c-1,0-1.8-0.8-1.8-1.8v-7c0-1,0.8-1.8,1.8-1.8h7
	c1,0,1.8,0.8,1.8,1.8v7C111.1,248.3,110.4,249.1,109.3,249.1z"/>
<path opacity="0.15" fill="#FFFFFF" enable-background="new    " d="M121.8,236.6h-7c-1,0-1.8-0.8-1.8-1.8v-7c0-1,0.8-1.8,1.8-1.8h7
	c1,0,1.8,0.8,1.8,1.8v7C123.6,235.8,122.8,236.6,121.8,236.6z"/>
<path opacity="0.15" fill="#FFFFFF" enable-background="new    " d="M134.4,299.1h-7c-1,0-1.8-0.8-1.8-1.8v-7c0-1,0.8-1.8,1.8-1.8h7
	c1,0,1.8,0.8,1.8,1.8v7C136.1,298.3,135.3,299.1,134.4,299.1z"/>
<path opacity="0.15" fill="#FFFFFF" enable-background="new    " d="M113,247.3v-7c0-1,0.8-1.8,1.8-1.8h7c1,0,1.8,0.8,1.8,1.8v7
	c0,1-0.8,1.8-1.8,1.8h-7C113.8,249.1,113,248.3,113,247.3z"/>
<path opacity="0.15" fill="#FFFFFF" enable-background="new    " d="M134.4,224.1h-7c-1,0-1.8-0.8-1.8-1.8v-7c0-1,0.8-1.8,1.8-1.8h7
	c1,0,1.8,0.8,1.8,1.8v7C136.1,223.3,135.3,224.1,134.4,224.1z"/>
<path opacity="0.15" fill="#FFFFFF" enable-background="new    " d="M146.8,211.6h-7c-1,0-1.8-0.8-1.8-1.8v-7c0-1,0.8-1.8,1.8-1.8h7
	c1,0,1.8,0.8,1.8,1.8v7C148.7,210.8,147.8,211.6,146.8,211.6z"/>
<path opacity="0.15" fill="#FFFFFF" enable-background="new    " d="M109.3,274.1h-7c-1,0-1.8-0.8-1.8-1.8v-7c0-1,0.8-1.8,1.8-1.8h7
	c1,0,1.8,0.8,1.8,1.8v7C111.1,273.3,110.4,274.1,109.3,274.1z"/>
<path opacity="0.15" fill="#FFFFFF" enable-background="new    " d="M138,222.3v-7c0-1,0.8-1.8,1.8-1.8h7c1,0,1.8,0.8,1.8,1.8v7
	c0,1-0.8,1.8-1.8,1.8h-7C138.9,224.1,138,223.3,138,222.3z"/>
<path opacity="0.15" fill="#FFFFFF" enable-background="new    " d="M100.5,309.9v-7c0-1,0.8-1.8,1.8-1.8h6.9c1,0,1.8,0.8,1.8,1.8v7
	c0,1-0.8,1.8-1.8,1.8h-7C101.3,311.6,100.5,310.8,100.5,309.9z"/>
<path opacity="0.15" fill="#FFFFFF" enable-background="new    " d="M113,322.3v-7c0-1,0.8-1.8,1.8-1.8h7c1,0,1.8,0.8,1.8,1.8v7
	c0,1-0.8,1.8-1.8,1.8h-7C113.8,324.1,113,323.3,113,322.3z"/>
<path opacity="0.15" fill="#FFFFFF" enable-background="new    " d="M114.9,301h7c1,0,1.8,0.8,1.8,1.8v7c0,1-0.8,1.8-1.8,1.8h-7
	c-1,0-1.8-0.8-1.8-1.8v-7C113,301.8,113.8,301,114.9,301z"/>
<path opacity="0.15" fill="#FFFFFF" enable-background="new    " d="M102.3,313.5h7c1,0,1.8,0.8,1.8,1.8v7c0,1-0.8,1.8-1.8,1.8h-7
	c-1,0-1.8-0.8-1.8-1.8v-7C100.5,314.4,101.3,313.5,102.3,313.5z"/>
<path opacity="0.15" fill="#FFFFFF" enable-background="new    " d="M125.5,334.8v-7c0-1,0.8-1.8,1.8-1.8h7c1,0,1.8,0.8,1.8,1.8v7
	c0,1-0.8,1.8-1.8,1.8h-7C126.3,336.7,125.5,335.8,125.5,334.8z"/>
<path opacity="0.15" fill="#FFFFFF" enable-background="new    " d="M138,347.3v-7c0-1,0.8-1.8,1.8-1.8h7c1,0,1.8,0.8,1.8,1.8v7
	c0,1-0.8,1.8-1.8,1.8h-7C138.9,349.1,138,348.4,138,347.3z"/>
<path opacity="0.15" fill="#FFFFFF" enable-background="new    " d="M139.8,326.1h7c1,0,1.8,0.8,1.8,1.8v6.9c0,1-0.8,1.8-1.8,1.8h-7
	c-1,0-1.8-0.8-1.8-1.8v-7C138,326.8,138.9,326.1,139.8,326.1z"/>
<path opacity="0.15" fill="#FFFFFF" enable-background="new    " d="M127.3,338.5h7c1,0,1.8,0.8,1.8,1.8v7c0,1-0.8,1.8-1.8,1.8h-7
	c-1,0-1.8-0.8-1.8-1.8v-7.1C125.5,339.3,126.3,338.5,127.3,338.5z"/>
<path opacity="0.15" fill="#FFFFFF" enable-background="new    " d="M139.8,301h7c1,0,1.8,0.8,1.8,1.8v7c0,1-0.8,1.8-1.8,1.8h-7
	c-1,0-1.8-0.8-1.8-1.8v-7C138,301.8,138.9,301,139.8,301z"/>
<path opacity="0.15" fill="#FFFFFF" enable-background="new    " d="M127.3,313.5h7c1,0,1.8,0.8,1.8,1.8v7c0,1-0.8,1.8-1.8,1.8h-7
	c-1,0-1.8-0.8-1.8-1.8v-7C125.5,314.4,126.3,313.5,127.3,313.5z"/>
<path opacity="0.15" fill="#FFFFFF" enable-background="new    " d="M148.7,315.3v7c0,1-0.8,1.8-1.8,1.8h-7c-1,0-1.8-0.8-1.8-1.8v-7
	c0-1,0.8-1.8,1.8-1.8h7C147.8,313.5,148.7,314.4,148.7,315.3z"/>
<path opacity="0.15" fill="#FFFFFF" enable-background="new    " d="M136.1,302.8v7c0,1-0.8,1.8-1.8,1.8h-7c-1,0-1.8-0.8-1.8-1.8v-7
	c0-1,0.8-1.8,1.8-1.8h7C135.3,301,136.1,301.8,136.1,302.8z"/>
<path opacity="0.15" fill="#FFFFFF" enable-background="new    " d="M114.9,326.1h7c1,0,1.8,0.8,1.8,1.8v6.9c0,1-0.8,1.8-1.8,1.8h-7
	c-1,0-1.8-0.8-1.8-1.8v-7C113,326.8,113.8,326.1,114.9,326.1z"/>
<path opacity="0.15" fill="#FFFFFF" enable-background="new    " d="M102.3,338.5h7c1,0,1.8,0.8,1.8,1.8v7c0,1-0.8,1.8-1.8,1.8h-7
	c-1,0-1.8-0.8-1.8-1.8v-7.1C100.5,339.3,101.3,338.5,102.3,338.5z"/>
<path opacity="0.15" fill="#FFFFFF" enable-background="new    " d="M123.6,340.3v7c0,1-0.8,1.8-1.8,1.8h-7c-1,0-1.8-0.8-1.8-1.8v-7
	c0-1,0.8-1.8,1.8-1.8h7C122.8,338.5,123.6,339.3,123.6,340.3z"/>
<path opacity="0.15" fill="#FFFFFF" enable-background="new    " d="M111.1,327.8v7c0,1-0.8,1.8-1.8,1.8h-7c-1,0-1.8-0.8-1.8-1.8v-7
	c0-1,0.8-1.8,1.8-1.8h7C110.4,326.1,111.1,326.8,111.1,327.8z"/>
<path opacity="0.15" fill="#FFFFFF" enable-background="new    " d="M111.1,377.8v7c0,1-0.8,1.8-1.8,1.8h-7c-1,0-1.8-0.8-1.8-1.8v-7
	c0-1,0.8-1.8,1.8-1.8h7C110.4,376.1,111.1,376.9,111.1,377.8z"/>
<path opacity="0.15" fill="#FFFFFF" enable-background="new    " d="M109.3,374.2h-7c-1,0-1.8-0.8-1.8-1.8v-7c0-1,0.8-1.8,1.8-1.8h7
	c1,0,1.8,0.8,1.8,1.8v7C111.1,373.3,110.4,374.2,109.3,374.2z"/>
<path opacity="0.15" fill="#FFFFFF" enable-background="new    " d="M186.1,302.8v7c0,1-0.8,1.8-1.8,1.8h-7c-1,0-1.8-0.8-1.8-1.8v-7
	c0-1,0.8-1.8,1.8-1.8h7C185.4,301,186.1,301.8,186.1,302.8z"/>
<path opacity="0.15" fill="#FFFFFF" enable-background="new    " d="M161.2,327.8v7c0,1-0.8,1.8-1.8,1.8h-7c-1,0-1.8-0.8-1.8-1.8v-7
	c0-1,0.8-1.8,1.8-1.8h7C160.4,326.1,161.2,326.8,161.2,327.8z"/>
<path opacity="0.15" fill="#FFFFFF" enable-background="new    " d="M173.7,315.3v7c0,1-0.8,1.8-1.8,1.8h-7c-1,0-1.8-0.8-1.8-1.8v-7
	c0-1,0.8-1.8,1.8-1.8h7C172.9,313.5,173.7,314.4,173.7,315.3z"/>
<path opacity="0.15" fill="#FFFFFF" enable-background="new    " d="M161.2,302.8v7c0,1-0.8,1.8-1.8,1.8h-7c-1,0-1.8-0.8-1.8-1.8v-7
	c0-1,0.8-1.8,1.8-1.8h7C160.4,301,161.2,301.8,161.2,302.8z"/>
<path opacity="0.15" fill="#FFFFFF" enable-background="new    " d="M159.3,324.1h-7c-1,0-1.8-0.8-1.8-1.8v-6.9c0-1,0.8-1.8,1.8-1.8
	h7c1,0,1.8,0.8,1.8,1.8v7C161.2,323.3,160.4,324.1,159.3,324.1z"/>
<path opacity="0.15" fill="#FFFFFF" enable-background="new    " d="M171.9,311.6h-7c-1,0-1.8-0.8-1.8-1.8v-7c0-1,0.8-1.8,1.8-1.8h7
	c1,0,1.8,0.8,1.8,1.8v7.1C173.7,310.8,172.9,311.6,171.9,311.6z"/>
<path opacity="0.15" fill="#FFFFFF" enable-background="new    " d="M136.1,352.9v7c0,1-0.8,1.8-1.8,1.8h-7c-1,0-1.8-0.8-1.8-1.8v-7
	c0-1,0.8-1.8,1.8-1.8h7C135.3,351,136.1,351.8,136.1,352.9z"/>
<path opacity="0.15" fill="#FFFFFF" enable-background="new    " d="M123.6,365.4v7c0,1-0.8,1.8-1.8,1.8h-7c-1,0-1.8-0.8-1.8-1.8v-7
	c0-1,0.8-1.8,1.8-1.8h7C122.8,363.5,123.6,364.4,123.6,365.4z"/>
<path opacity="0.15" fill="#FFFFFF" enable-background="new    " d="M111.1,352.9v7c0,1-0.8,1.8-1.8,1.8h-7c-1,0-1.8-0.8-1.8-1.8v-7
	c0-1,0.8-1.8,1.8-1.8h7C110.4,351,111.1,351.8,111.1,352.9z"/>
<path opacity="0.15" fill="#FFFFFF" enable-background="new    " d="M121.8,361.6h-7c-1,0-1.8-0.8-1.8-1.8v-7c0-1,0.8-1.8,1.8-1.8h7
	c1,0,1.8,0.8,1.8,1.8v7C123.6,360.8,122.8,361.6,121.8,361.6z"/>
<path opacity="0.15" fill="#FFFFFF" enable-background="new    " d="M150.6,359.9v-7c0-1,0.8-1.8,1.8-1.8h7c1,0,1.8,0.8,1.8,1.8v7
	c0,1-0.8,1.8-1.8,1.8h-7C151.4,361.6,150.6,360.8,150.6,359.9L150.6,359.9z"/>
<path opacity="0.15" fill="#FFFFFF" enable-background="new    " d="M163.1,372.4v-7c0-1,0.8-1.8,1.8-1.8h7c1,0,1.8,0.8,1.8,1.8v7
	c0,1-0.8,1.8-1.8,1.8h-7C163.8,374.2,163.1,373.3,163.1,372.4z"/>
<path opacity="0.15" fill="#FFFFFF" enable-background="new    " d="M164.9,351h7c1,0,1.8,0.8,1.8,1.8v7c0,1-0.8,1.8-1.8,1.8h-7
	c-1,0-1.8-0.8-1.8-1.8v-7C163.1,351.8,163.8,351,164.9,351z"/>
<path opacity="0.15" fill="#FFFFFF" enable-background="new    " d="M152.3,363.5h7c1,0,1.8,0.8,1.8,1.8v7c0,1-0.8,1.8-1.8,1.8h-7
	c-1,0-1.8-0.8-1.8-1.8v-7C150.6,364.4,151.4,363.5,152.3,363.5L152.3,363.5z"/>
<path opacity="0.15" fill="#FFFFFF" enable-background="new    " d="M114.9,376.1h7c1,0,1.8,0.8,1.8,1.8v7c0,1-0.8,1.8-1.8,1.8h-7
	c-1,0-1.8-0.8-1.8-1.8v-7C113,376.9,113.8,376.1,114.9,376.1z"/>
<path opacity="0.15" fill="#FFFFFF" enable-background="new    " d="M102.3,388.6h7c1,0,1.8,0.8,1.8,1.8v7c0,1-0.8,1.8-1.8,1.8h-7
	c-1,0-1.8-0.8-1.8-1.8v-7C100.5,389.4,101.3,388.6,102.3,388.6z"/>
<path opacity="0.15" fill="#FFFFFF" enable-background="new    " d="M123.6,390.4v7c0,1-0.8,1.8-1.8,1.8h-7c-1,0-1.8-0.8-1.8-1.8v-7
	c0-1,0.8-1.8,1.8-1.8h7C122.8,388.6,123.6,389.4,123.6,390.4z"/>
<path opacity="0.15" fill="#FFFFFF" enable-background="new    " d="M189.9,351h7c1,0,1.8,0.8,1.8,1.8v7c0,1-0.8,1.8-1.8,1.8h-7
	c-1,0-1.8-0.8-1.8-1.8v-7C188.1,351.8,188.9,351,189.9,351z"/>
<path opacity="0.15" fill="#FFFFFF" enable-background="new    " d="M177.4,363.5h7c1,0,1.8,0.8,1.8,1.8v7c0,1-0.8,1.8-1.8,1.8h-7
	c-1,0-1.8-0.8-1.8-1.8v-7C175.5,364.4,176.4,363.5,177.4,363.5z"/>
<path opacity="0.15" fill="#FFFFFF" enable-background="new    " d="M134.4,399.2h-7c-1,0-1.8-0.8-1.8-1.8v-7c0-1,0.8-1.8,1.8-1.8h7
	c1,0,1.8,0.8,1.8,1.8v7C136.1,398.4,135.3,399.2,134.4,399.2z"/>
<path opacity="0.15" fill="#FFFFFF" enable-background="new    " d="M186.1,352.9v7c0,1-0.8,1.8-1.8,1.8h-7c-1,0-1.8-0.8-1.8-1.8v-7
	c0-1,0.8-1.8,1.8-1.8h7C185.4,351,186.1,351.8,186.1,352.9z"/>
<path opacity="0.15" fill="#FFFFFF" enable-background="new    " d="M164.9,376.1h7c1,0,1.8,0.8,1.8,1.8v7c0,1-0.8,1.8-1.8,1.8h-7
	c-1,0-1.8-0.8-1.8-1.8v-7C163.1,376.9,163.8,376.1,164.9,376.1z"/>
<path opacity="0.15" fill="#FFFFFF" enable-background="new    " d="M152.3,388.6h7c1,0,1.8,0.8,1.8,1.8v7c0,1-0.8,1.8-1.8,1.8h-7
	c-1,0-1.8-0.8-1.8-1.8v-7C150.6,389.4,151.4,388.6,152.3,388.6L152.3,388.6z"/>
<path opacity="0.15" fill="#FFFFFF" enable-background="new    " d="M161.2,377.8v7c0,1-0.8,1.8-1.8,1.8h-7c-1,0-1.8-0.8-1.8-1.8v-7
	c0-1,0.8-1.8,1.8-1.8h7C160.4,376.1,161.2,376.9,161.2,377.8z"/>
<path opacity="0.15" fill="#FFFFFF" enable-background="new    " d="M189.9,301h7c1,0,1.8,0.8,1.8,1.8v7c0,1-0.8,1.8-1.8,1.8h-7
	c-1,0-1.8-0.8-1.8-1.8v-7C188.1,301.8,188.9,301,189.9,301z"/>
<path opacity="0.15" fill="#FFFFFF" enable-background="new    " d="M177.4,313.5h7c1,0,1.8,0.8,1.8,1.8v7c0,1-0.8,1.8-1.8,1.8h-7
	c-1,0-1.8-0.8-1.8-1.8v-7C175.5,314.4,176.4,313.5,177.4,313.5z"/>
<path opacity="0.15" fill="#FFFFFF" enable-background="new    " d="M198.7,315.3v7c0,1-0.8,1.8-1.8,1.8h-7c-1,0-1.8-0.8-1.8-1.8v-7
	c0-1,0.8-1.8,1.8-1.8h7C197.8,313.5,198.7,314.4,198.7,315.3z"/>
<path opacity="0.15" fill="#FFFFFF" enable-background="new    " d="M164.9,326.1h7c1,0,1.8,0.8,1.8,1.8v6.9c0,1-0.8,1.8-1.8,1.8h-7
	c-1,0-1.8-0.8-1.8-1.8v-7C163.1,326.8,163.8,326.1,164.9,326.1z"/>
<path opacity="0.15" fill="#FFFFFF" enable-background="new    " d="M152.3,338.5h7c1,0,1.8,0.8,1.8,1.8v7c0,1-0.8,1.8-1.8,1.8h-7
	c-1,0-1.8-0.8-1.8-1.8v-7.1C150.6,339.3,151.4,338.5,152.3,338.5L152.3,338.5z"/>
<path opacity="0.15" fill="#FFFFFF" enable-background="new    " d="M173.7,340.3v7c0,1-0.8,1.8-1.8,1.8h-7c-1,0-1.8-0.8-1.8-1.8v-7
	c0-1,0.8-1.8,1.8-1.8h7C172.9,338.5,173.7,339.3,173.7,340.3z"/>
<path opacity="0.15" fill="#FFFFFF" enable-background="new    " d="M198.7,340.3v7c0,1-0.8,1.8-1.8,1.8h-7c-1,0-1.8-0.8-1.8-1.8v-7
	c0-1,0.8-1.8,1.8-1.8h7C197.8,338.5,198.7,339.3,198.7,340.3z"/>
<path opacity="0.15" fill="#FFFFFF" enable-background="new    " d="M186.1,327.8v7c0,1-0.8,1.8-1.8,1.8h-7c-1,0-1.8-0.8-1.8-1.8v-7
	c0-1,0.8-1.8,1.8-1.8h7C185.4,326.1,186.1,326.8,186.1,327.8z"/>
<path opacity="0.15" fill="#FFFFFF" enable-background="new    " d="M184.4,349.1h-7c-1,0-1.8-0.8-1.8-1.8v-7c0-1,0.8-1.8,1.8-1.8h7
	c1,0,1.8,0.8,1.8,1.8v7C186.1,348.4,185.4,349.1,184.4,349.1z"/>
<path opacity="0.15" fill="#FFFFFF" enable-background="new    " d="M196.9,336.7h-7c-1,0-1.8-0.8-1.8-1.8v-7c0-1,0.8-1.8,1.8-1.8h7
	c1,0,1.8,0.8,1.8,1.8v7C198.7,335.8,197.8,336.7,196.9,336.7z"/>
<path opacity="0.15" fill="#FFFFFF" enable-background="new    " d="M139.8,351h7c1,0,1.8,0.8,1.8,1.8v7c0,1-0.8,1.8-1.8,1.8h-7
	c-1,0-1.8-0.8-1.8-1.8v-7C138,351.8,138.9,351,139.8,351z"/>
<path opacity="0.15" fill="#FFFFFF" enable-background="new    " d="M127.3,363.5h7c1,0,1.8,0.8,1.8,1.8v7c0,1-0.8,1.8-1.8,1.8h-7
	c-1,0-1.8-0.8-1.8-1.8v-7C125.5,364.4,126.3,363.5,127.3,363.5z"/>
<path opacity="0.15" fill="#FFFFFF" enable-background="new    " d="M148.7,365.4v7c0,1-0.8,1.8-1.8,1.8h-7c-1,0-1.8-0.8-1.8-1.8v-7
	c0-1,0.8-1.8,1.8-1.8h7C147.8,363.5,148.7,364.4,148.7,365.4z"/>
<path opacity="0.15" fill="#FFFFFF" enable-background="new    " d="M175.5,384.9v-7c0-1,0.8-1.8,1.8-1.8h7c1,0,1.8,0.8,1.8,1.8v7
	c0,1-0.8,1.8-1.8,1.8h-7C176.4,386.7,175.5,385.9,175.5,384.9z"/>
<path opacity="0.15" fill="#FFFFFF" enable-background="new    " d="M188.1,397.3v-7c0-1,0.8-1.8,1.8-1.8h7c1,0,1.8,0.8,1.8,1.8v7
	c0,1-0.8,1.8-1.8,1.8h-7C188.9,399.2,188.1,398.4,188.1,397.3z"/>
<path opacity="0.15" fill="#FFFFFF" enable-background="new    " d="M189.9,376.1h7c1,0,1.8,0.8,1.8,1.8v7c0,1-0.8,1.8-1.8,1.8h-7
	c-1,0-1.8-0.8-1.8-1.8v-7C188.1,376.9,188.9,376.1,189.9,376.1z"/>
<path opacity="0.15" fill="#FFFFFF" enable-background="new    " d="M177.4,388.6h7c1,0,1.8,0.8,1.8,1.8v7c0,1-0.8,1.8-1.8,1.8h-7
	c-1,0-1.8-0.8-1.8-1.8v-7C175.5,389.4,176.4,388.6,177.4,388.6z"/>
<path opacity="0.15" fill="#FFFFFF" enable-background="new    " d="M148.7,390.4v7c0,1-0.8,1.8-1.8,1.8h-7c-1,0-1.8-0.8-1.8-1.8v-7
	c0-1,0.8-1.8,1.8-1.8h7C147.8,388.6,148.7,389.4,148.7,390.4z"/>
<path opacity="0.15" fill="#FFFFFF" enable-background="new    " d="M136.1,377.8v7c0,1-0.8,1.8-1.8,1.8h-7c-1,0-1.8-0.8-1.8-1.8v-7
	c0-1,0.8-1.8,1.8-1.8h7C135.3,376.1,136.1,376.9,136.1,377.8z"/>
<path opacity="0.15" fill="#FFFFFF" enable-background="new    " d="M198.7,365.4v7c0,1-0.8,1.8-1.8,1.8h-7c-1,0-1.8-0.8-1.8-1.8v-7
	c0-1,0.8-1.8,1.8-1.8h7C197.8,363.5,198.7,364.4,198.7,365.4z"/>
<path opacity="0.15" fill="#FFFFFF" enable-background="new    " d="M146.8,386.7h-7c-1,0-1.8-0.8-1.8-1.8v-7c0-1,0.8-1.8,1.8-1.8h7
	c1,0,1.8,0.8,1.8,1.8v7C148.7,385.9,147.8,386.7,146.8,386.7z"/>
<path opacity="0.15" fill="#FFFFFF" enable-background="new    " d="M173.7,390.4v7c0,1-0.8,1.8-1.8,1.8h-7c-1,0-1.8-0.8-1.8-1.8v-7
	c0-1,0.8-1.8,1.8-1.8h7C172.9,388.6,173.7,389.4,173.7,390.4z"/>
<path opacity="0.15" fill="#FFFFFF" enable-background="new    " d="M39.8,351h7c1,0,1.8,0.8,1.8,1.8v7c0,1-0.8,1.8-1.8,1.8h-7
	c-1,0-1.8-0.8-1.8-1.8v-7C38,351.8,38.8,351,39.8,351z"/>
<path opacity="0.15" fill="#FFFFFF" enable-background="new    " d="M27.3,363.5h7c1,0,1.8,0.8,1.8,1.8v7c0,1-0.8,1.8-1.8,1.8h-7
	c-1,0-1.8-0.8-1.8-1.8v-7C25.5,364.4,26.3,363.5,27.3,363.5z"/>
<path opacity="0.15" fill="#FFFFFF" enable-background="new    " d="M48.6,365.4v7c0,1-0.8,1.8-1.8,1.8h-6.9c-1,0-1.8-0.8-1.8-1.8
	v-7c0-1,0.8-1.8,1.8-1.8h7C47.8,363.5,48.6,364.4,48.6,365.4z"/>
<path opacity="0.15" fill="#FFFFFF" enable-background="new    " d="M36.1,352.9v7c0,1-0.8,1.8-1.8,1.8h-6.9c-1,0-1.8-0.8-1.8-1.8
	v-7c0-1,0.8-1.8,1.8-1.8h7C35.3,351,36.1,351.8,36.1,352.9z"/>
<path opacity="0.15" fill="#FFFFFF" enable-background="new    " d="M23.6,315.3v7c0,1-0.8,1.8-1.8,1.8h-7c-1,0-1.8-0.8-1.8-1.8v-7
	c0-1,0.8-1.8,1.8-1.8h7C22.8,313.5,23.6,314.4,23.6,315.3z"/>
<path opacity="0.15" fill="#FFFFFF" enable-background="new    " d="M11.1,302.8v7c0,1-0.8,1.8-1.8,1.8h-7c-1,0-1.8-0.8-1.8-1.8v-7
	c0-1,0.8-1.8,1.8-1.8h7C10.2,301,11.1,301.8,11.1,302.8z"/>
<path opacity="0.15" fill="#FFFFFF" enable-background="new    " d="M9.3,324.1h-7c-1,0-1.8-0.8-1.8-1.8v-6.9c0-1,0.8-1.8,1.8-1.8h7
	c1,0,1.8,0.8,1.8,1.8v7C11.1,323.3,10.2,324.1,9.3,324.1z"/>
<path opacity="0.15" fill="#FFFFFF" enable-background="new    " d="M48.6,390.4v7c0,1-0.8,1.8-1.8,1.8h-6.9c-1,0-1.8-0.8-1.8-1.8
	v-7c0-1,0.8-1.8,1.8-1.8h7C47.8,388.6,48.6,389.4,48.6,390.4z"/>
<path opacity="0.15" fill="#FFFFFF" enable-background="new    " d="M36.1,377.8v7c0,1-0.8,1.8-1.8,1.8h-6.9c-1,0-1.8-0.8-1.8-1.8
	v-7c0-1,0.8-1.8,1.8-1.8h7C35.3,376.1,36.1,376.9,36.1,377.8z"/>
<path opacity="0.15" fill="#FFFFFF" enable-background="new    " d="M0.4,334.8v-7c0-1,0.8-1.8,1.8-1.8h7c1,0,1.8,0.8,1.8,1.8v7
	c0,1-0.8,1.8-1.8,1.8h-7C1.3,336.7,0.4,335.8,0.4,334.8z"/>
<path opacity="0.15" fill="#FFFFFF" enable-background="new    " d="M46.8,386.7h-7c-1,0-1.8-0.8-1.8-1.8v-7c0-1,0.8-1.8,1.8-1.8h7
	c1,0,1.8,0.8,1.8,1.8v7C48.6,385.9,47.8,386.7,46.8,386.7z"/>
<path opacity="0.15" fill="#FFFFFF" enable-background="new    " d="M23.6,365.4v7c0,1-0.8,1.8-1.8,1.8h-7c-1,0-1.8-0.8-1.8-1.8v-7
	c0-1,0.8-1.8,1.8-1.8h7C22.8,363.5,23.6,364.4,23.6,365.4z"/>
<path opacity="0.15" fill="#FFFFFF" enable-background="new    " d="M11.1,352.9v7c0,1-0.8,1.8-1.8,1.8h-7c-1,0-1.8-0.8-1.8-1.8v-7
	c0-1,0.8-1.8,1.8-1.8h7C10.2,351,11.1,351.8,11.1,352.9z"/>
<path opacity="0.15" fill="#FFFFFF" enable-background="new    " d="M21.8,361.6h-7c-1,0-1.8-0.8-1.8-1.8v-7c0-1,0.8-1.8,1.8-1.8h7
	c1,0,1.8,0.8,1.8,1.8v7C23.6,360.8,22.8,361.6,21.8,361.6z"/>
<path opacity="0.15" fill="#FFFFFF" enable-background="new    " d="M98.6,390.4v7c0,1-0.8,1.8-1.8,1.8h-6.9c-1,0-1.8-0.8-1.8-1.8
	v-7c0-1,0.8-1.8,1.8-1.8h7C97.8,388.6,98.6,389.4,98.6,390.4z"/>
<path opacity="0.15" fill="#FFFFFF" enable-background="new    " d="M86.1,377.8v7c0,1-0.8,1.8-1.8,1.8h-7c-1,0-1.8-0.8-1.8-1.8v-7
	c0-1,0.8-1.8,1.8-1.8h7.1C85.3,376.1,86.1,376.9,86.1,377.8z"/>
<path opacity="0.15" fill="#FFFFFF" enable-background="new    " d="M84.3,399.2h-7c-1,0-1.8-0.8-1.8-1.8v-7c0-1,0.8-1.8,1.8-1.8h7
	c1,0,1.8,0.8,1.8,1.8v7C86.1,398.4,85.3,399.2,84.3,399.2z"/>
<path opacity="0.15" fill="#FFFFFF" enable-background="new    " d="M73.6,365.4v7c0,1-0.8,1.8-1.8,1.8h-7c-1,0-1.8-0.8-1.8-1.8v-7
	c0-1,0.8-1.8,1.8-1.8h7C72.8,363.5,73.6,364.4,73.6,365.4z"/>
<path opacity="0.15" fill="#FFFFFF" enable-background="new    " d="M61.1,352.9v7c0,1-0.8,1.8-1.8,1.8h-7c-1,0-1.8-0.8-1.8-1.8v-7
	c0-1,0.8-1.8,1.8-1.8h7C60.3,351,61.1,351.8,61.1,352.9z"/>
<path opacity="0.15" fill="#FFFFFF" enable-background="new    " d="M59.3,374.2h-7c-1,0-1.8-0.8-1.8-1.8v-7c0-1,0.8-1.8,1.8-1.8h7
	c1,0,1.8,0.8,1.8,1.8v7C61.1,373.3,60.3,374.2,59.3,374.2z"/>
<path opacity="0.15" fill="#FFFFFF" enable-background="new    " d="M59.3,399.2h-7c-1,0-1.8-0.8-1.8-1.8v-7c0-1,0.8-1.8,1.8-1.8h7
	c1,0,1.8,0.8,1.8,1.8v7C61.1,398.4,60.3,399.2,59.3,399.2z"/>
<path opacity="0.15" fill="#FFFFFF" enable-background="new    " d="M71.8,386.7h-7c-1,0-1.8-0.8-1.8-1.8v-7c0-1,0.8-1.8,1.8-1.8h7
	c1,0,1.8,0.8,1.8,1.8v7C73.6,385.9,72.8,386.7,71.8,386.7z"/>
<path opacity="0.15" fill="#FFFFFF" enable-background="new    " d="M50.5,384.9v-7c0-1,0.8-1.8,1.8-1.8h7c1,0,1.8,0.8,1.8,1.8v7
	c0,1-0.8,1.8-1.8,1.8h-7C51.3,386.7,50.5,385.9,50.5,384.9z"/>
<path opacity="0.15" fill="#FFFFFF" enable-background="new    " d="M63,397.3v-7c0-1,0.8-1.8,1.8-1.8h7c1,0,1.8,0.8,1.8,1.8v7
	c0,1-0.8,1.8-1.8,1.8h-7C63.8,399.2,63,398.4,63,397.3z"/>
<path opacity="0.15" fill="#FFFFFF" enable-background="new    " d="M48.6,340.3v7c0,1-0.8,1.8-1.8,1.8h-6.9c-1,0-1.8-0.8-1.8-1.8
	v-7c0-1,0.8-1.8,1.8-1.8h7C47.8,338.5,48.6,339.3,48.6,340.3z"/>
<path opacity="0.15" fill="#FFFFFF" enable-background="new    " d="M36.1,327.8v7c0,1-0.8,1.8-1.8,1.8h-6.9c-1,0-1.8-0.8-1.8-1.8
	v-7c0-1,0.8-1.8,1.8-1.8h7C35.3,326.1,36.1,326.8,36.1,327.8z"/>
<path opacity="0.15" fill="#FFFFFF" enable-background="new    " d="M34.3,349.1h-6.9c-1,0-1.8-0.8-1.8-1.8v-7c0-1,0.8-1.8,1.8-1.8
	h7c1,0,1.8,0.8,1.8,1.8v7C36.1,348.4,35.3,349.1,34.3,349.1z"/>
<path opacity="0.15" fill="#FFFFFF" enable-background="new    " d="M14.8,376.1h7c1,0,1.8,0.8,1.8,1.8v7c0,1-0.8,1.8-1.8,1.8h-7
	c-1,0-1.8-0.8-1.8-1.8v-7C13,376.9,13.8,376.1,14.8,376.1z"/>
<path opacity="0.15" fill="#FFFFFF" enable-background="new    " d="M2.3,388.6h7c1,0,1.8,0.8,1.8,1.8v7c0,1-0.8,1.8-1.8,1.8h-7
	c-1,0-1.8-0.8-1.8-1.8v-7C0.4,389.4,1.3,388.6,2.3,388.6z"/>
<path opacity="0.15" fill="#FFFFFF" enable-background="new    " d="M23.6,390.4v7c0,1-0.8,1.8-1.8,1.8h-7c-1,0-1.8-0.8-1.8-1.8v-7
	c0-1,0.8-1.8,1.8-1.8h7C22.8,388.6,23.6,389.4,23.6,390.4z"/>
<path opacity="0.15" fill="#FFFFFF" enable-background="new    " d="M11.1,377.8v7c0,1-0.8,1.8-1.8,1.8h-7c-1,0-1.8-0.8-1.8-1.8v-7
	c0-1,0.8-1.8,1.8-1.8h7C10.2,376.1,11.1,376.9,11.1,377.8z"/>
<path opacity="0.15" fill="#FFFFFF" enable-background="new    " d="M9.3,349.1h-7c-1,0-1.8-0.8-1.8-1.8v-7c0-1,0.8-1.8,1.8-1.8h7
	c1,0,1.8,0.8,1.8,1.8v7C11.1,348.4,10.2,349.1,9.3,349.1z"/>
<path opacity="0.15" fill="#FFFFFF" enable-background="new    " d="M21.8,336.7h-7c-1,0-1.8-0.8-1.8-1.8v-7c0-1,0.8-1.8,1.8-1.8h7
	c1,0,1.8,0.8,1.8,1.8v7C23.6,335.8,22.8,336.7,21.8,336.7z"/>
<path opacity="0.15" fill="#FFFFFF" enable-background="new    " d="M34.3,399.2h-6.9c-1,0-1.8-0.8-1.8-1.8v-7c0-1,0.8-1.8,1.8-1.8
	h7c1,0,1.8,0.8,1.8,1.8v7C36.1,398.4,35.3,399.2,34.3,399.2z"/>
<path opacity="0.15" fill="#FFFFFF" enable-background="new    " d="M13,347.3v-7c0-1,0.8-1.8,1.8-1.8h7c1,0,1.8,0.8,1.8,1.8v7
	c0,1-0.8,1.8-1.8,1.8h-7.1C13.8,349.1,13,348.4,13,347.3z"/>
<path opacity="0.15" fill="#FFFFFF" enable-background="new    " d="M9.3,374.2h-7c-1,0-1.8-0.8-1.8-1.8v-7c0-1,0.8-1.8,1.8-1.8h7
	c1,0,1.8,0.8,1.8,1.8v7C11.1,373.3,10.2,374.2,9.3,374.2z"/>
<path opacity="0.15" fill="#FFFFFF" enable-background="new    " d="M89.8,301h7c1,0,1.8,0.8,1.8,1.8v7c0,1-0.8,1.8-1.8,1.8h-7
	c-1,0-1.8-0.8-1.8-1.8v-7C88,301.8,88.8,301,89.8,301z"/>
<path opacity="0.15" fill="#FFFFFF" enable-background="new    " d="M77.3,313.5h7c1,0,1.8,0.8,1.8,1.8v7c0,1-0.8,1.8-1.8,1.8h-7
	c-1,0-1.8-0.8-1.8-1.8v-7C75.5,314.4,76.3,313.5,77.3,313.5z"/>
<path opacity="0.15" fill="#FFFFFF" enable-background="new    " d="M98.6,315.3v7c0,1-0.8,1.8-1.8,1.8h-6.9c-1,0-1.8-0.8-1.8-1.8
	v-7c0-1,0.8-1.8,1.8-1.8h7C97.8,313.5,98.6,314.4,98.6,315.3z"/>
<path opacity="0.15" fill="#FFFFFF" enable-background="new    " d="M86.1,302.8v7c0,1-0.8,1.8-1.8,1.8h-7c-1,0-1.8-0.8-1.8-1.8v-7
	c0-1,0.8-1.8,1.8-1.8h7.1C85.3,301,86.1,301.8,86.1,302.8z"/>
<path opacity="0.15" fill="#FFFFFF" enable-background="new    " d="M64.8,326.1h7c1,0,1.8,0.8,1.8,1.8v6.9c0,1-0.8,1.8-1.8,1.8h-7
	c-1,0-1.8-0.8-1.8-1.8v-7C63,326.8,63.8,326.1,64.8,326.1z"/>
<path opacity="0.15" fill="#FFFFFF" enable-background="new    " d="M52.3,338.5h7c1,0,1.8,0.8,1.8,1.8v7c0,1-0.8,1.8-1.8,1.8h-7
	c-1,0-1.8-0.8-1.8-1.8v-7.1C50.5,339.3,51.3,338.5,52.3,338.5z"/>
<path opacity="0.15" fill="#FFFFFF" enable-background="new    " d="M73.6,340.3v7c0,1-0.8,1.8-1.8,1.8h-7c-1,0-1.8-0.8-1.8-1.8v-7
	c0-1,0.8-1.8,1.8-1.8h7C72.8,338.5,73.6,339.3,73.6,340.3z"/>
<path opacity="0.15" fill="#FFFFFF" enable-background="new    " d="M61.1,327.8v7c0,1-0.8,1.8-1.8,1.8h-7c-1,0-1.8-0.8-1.8-1.8v-7
	c0-1,0.8-1.8,1.8-1.8h7C60.3,326.1,61.1,326.8,61.1,327.8z"/>
<path opacity="0.15" fill="#FFFFFF" enable-background="new    " d="M98.6,340.3v7c0,1-0.8,1.8-1.8,1.8h-6.9c-1,0-1.8-0.8-1.8-1.8
	v-7c0-1,0.8-1.8,1.8-1.8h7C97.8,338.5,98.6,339.3,98.6,340.3z"/>
<path opacity="0.15" fill="#FFFFFF" enable-background="new    " d="M86.1,327.8v7c0,1-0.8,1.8-1.8,1.8h-7c-1,0-1.8-0.8-1.8-1.8v-7
	c0-1,0.8-1.8,1.8-1.8h7.1C85.3,326.1,86.1,326.8,86.1,327.8z"/>
<path opacity="0.15" fill="#FFFFFF" enable-background="new    " d="M84.3,349.1h-7c-1,0-1.8-0.8-1.8-1.8v-7c0-1,0.8-1.8,1.8-1.8h7
	c1,0,1.8,0.8,1.8,1.8v7C86.1,348.4,85.3,349.1,84.3,349.1z"/>
<path opacity="0.15" fill="#FFFFFF" enable-background="new    " d="M96.8,336.7h-7c-1,0-1.8-0.8-1.8-1.8v-7c0-1,0.8-1.8,1.8-1.8h7
	c1,0,1.8,0.8,1.8,1.8v7C98.6,335.8,97.8,336.7,96.8,336.7z"/>
<path opacity="0.15" fill="#FFFFFF" enable-background="new    " d="M73.6,315.3v7c0,1-0.8,1.8-1.8,1.8h-7c-1,0-1.8-0.8-1.8-1.8v-7
	c0-1,0.8-1.8,1.8-1.8h7C72.8,313.5,73.6,314.4,73.6,315.3z"/>
<path opacity="0.15" fill="#FFFFFF" enable-background="new    " d="M61.1,302.8v7c0,1-0.8,1.8-1.8,1.8h-7c-1,0-1.8-0.8-1.8-1.8v-7
	c0-1,0.8-1.8,1.8-1.8h7C60.3,301,61.1,301.8,61.1,302.8z"/>
<path opacity="0.15" fill="#FFFFFF" enable-background="new    " d="M59.3,324.1h-7c-1,0-1.8-0.8-1.8-1.8v-6.9c0-1,0.8-1.8,1.8-1.8
	h7c1,0,1.8,0.8,1.8,1.8v7C61.1,323.3,60.3,324.1,59.3,324.1z"/>
<path opacity="0.15" fill="#FFFFFF" enable-background="new    " d="M71.8,311.6h-7c-1,0-1.8-0.8-1.8-1.8v-7c0-1,0.8-1.8,1.8-1.8h7
	c1,0,1.8,0.8,1.8,1.8v7.1C73.6,310.8,72.8,311.6,71.8,311.6z"/>
<path opacity="0.15" fill="#FFFFFF" enable-background="new    " d="M21.8,311.6h-7c-1,0-1.8-0.8-1.8-1.8v-7c0-1,0.8-1.8,1.8-1.8h7
	c1,0,1.8,0.8,1.8,1.8v7.1C23.6,310.8,22.8,311.6,21.8,311.6z"/>
<path opacity="0.15" fill="#FFFFFF" enable-background="new    " d="M25.5,309.9v-7c0-1,0.8-1.8,1.8-1.8h7c1,0,1.8,0.8,1.8,1.8v7
	c0,1-0.8,1.8-1.8,1.8h-7C26.3,311.6,25.5,310.8,25.5,309.9z"/>
<path opacity="0.15" fill="#FFFFFF" enable-background="new    " d="M96.8,386.7h-7c-1,0-1.8-0.8-1.8-1.8v-7c0-1,0.8-1.8,1.8-1.8h7
	c1,0,1.8,0.8,1.8,1.8v7C98.6,385.9,97.8,386.7,96.8,386.7z"/>
<path opacity="0.15" fill="#FFFFFF" enable-background="new    " d="M71.8,361.6h-7c-1,0-1.8-0.8-1.8-1.8v-7c0-1,0.8-1.8,1.8-1.8h7
	c1,0,1.8,0.8,1.8,1.8v7C73.6,360.8,72.8,361.6,71.8,361.6z"/>
<path opacity="0.15" fill="#FFFFFF" enable-background="new    " d="M84.3,374.2h-7c-1,0-1.8-0.8-1.8-1.8v-7c0-1,0.8-1.8,1.8-1.8h7
	c1,0,1.8,0.8,1.8,1.8v7C86.1,373.3,85.3,374.2,84.3,374.2z"/>
<path opacity="0.15" fill="#FFFFFF" enable-background="new    " d="M96.8,361.6h-7c-1,0-1.8-0.8-1.8-1.8v-7c0-1,0.8-1.8,1.8-1.8h7
	c1,0,1.8,0.8,1.8,1.8v7C98.6,360.8,97.8,361.6,96.8,361.6z"/>
<path opacity="0.15" fill="#FFFFFF" enable-background="new    " d="M75.5,359.9v-7c0-1,0.8-1.8,1.8-1.8h7c1,0,1.8,0.8,1.8,1.8v7
	c0,1-0.8,1.8-1.8,1.8h-7C76.3,361.6,75.5,360.8,75.5,359.9z"/>
<path opacity="0.15" fill="#FFFFFF" enable-background="new    " d="M88,372.4v-7c0-1,0.8-1.8,1.8-1.8h7c1,0,1.8,0.8,1.8,1.8v7
	c0,1-0.8,1.8-1.8,1.8h-7C88.8,374.2,88,373.3,88,372.4z"/>
<path opacity="0.15" fill="#FFFFFF" enable-background="new    " d="M46.8,336.7h-7c-1,0-1.8-0.8-1.8-1.8v-7c0-1,0.8-1.8,1.8-1.8h7
	c1,0,1.8,0.8,1.8,1.8v7C48.6,335.8,47.8,336.7,46.8,336.7z"/>
<path opacity="0.15" fill="#FFFFFF" enable-background="new    " d="M34.3,324.1h-6.9c-1,0-1.8-0.8-1.8-1.8v-6.9
	c0-1,0.8-1.8,1.8-1.8h7c1,0,1.8,0.8,1.8,1.8v7C36.1,323.3,35.3,324.1,34.3,324.1z"/>
<path opacity="0.15" fill="#FFFFFF" enable-background="new    " d="M46.8,311.6h-7c-1,0-1.8-0.8-1.8-1.8v-7c0-1,0.8-1.8,1.8-1.8h7
	c1,0,1.8,0.8,1.8,1.8v7.1C48.6,310.8,47.8,311.6,46.8,311.6z"/>
<path opacity="0.15" fill="#FFFFFF" enable-background="new    " d="M38,322.3v-7c0-1,0.8-1.8,1.8-1.8h7c1,0,1.8,0.8,1.8,1.8v7
	c0,1-0.8,1.8-1.8,1.8h-7C38.8,324.1,38,323.3,38,322.3z"/>
</svg>
