<svg xmlns="http://www.w3.org/2000/svg" x="0px" y="0px" width="60px" height="60px" viewBox="0 0 60 60" >
<path fill="#FFFFFF"  d="M44.4,48.2c-9.6,0-19.2,0-28.8,0c-0.1-0.2-0.2-0.4-0.3-0.6c-1.6-3.3-2.8-6.9-3-9.3c-0.1-1.1-0.2-2-0.1-2.7
c0.1-1.1,0.9-3,2.4-3.8c1.3-0.7,2.6-0.7,4.1-0.2c0-2-0.3-4,1.3-5.7c1.6-1.6,3.4-1.8,5.4-1.1c0.6-2,1.9-3,3.8-3.5c0.5,0,0.9,0,1.5,0
c1.3,0.4,2.4,0.9,3.2,2.1c0.3,0.5,0.5,0.9,0.7,1.4c1.4-0.5,2.8-0.5,4.1,0.1c1.3,0.7,2,1.8,2.4,3c1.1,0,2.1-0.1,3,0
c2.3,0.5,3.6,2.3,3.6,4.8c0,4,0.1,3,0,7C47.6,43.5,45.9,45.1,44.4,48.2z M25.3,30.5c0-1.3,0-1.5-0.1-1.9c-0.1-0.6-0.6-1.2-1.5-1.3
s-1.7,0.3-2,1.1c-0.1,0.3-0.1,0.8-0.1,1.2c0,4.5,0,2.1,0,6.6c0,0.3,0,0.6,0,1c-1,0-1.8,0-2.8,0c0-0.3,0-0.7,0-0.9
c0-2.4-0.8-2.2-1.8-2.2c-1.1,0-1.8,0.9-1.8,2.1c0,2.5,0.1,4.4,2,8.5c0.2,0.5,0.5,0.7,1.1,0.7c5.3,0,10.5,0,15.8,0c2.7,0,5.4,0,8.1,0
c0.3,0,0.7-0.2,0.8-0.4c1.1-2.6,2-4.3,2.1-7.2c0.1-2.6,0.1-2.3,0.1-5c0-1.8-0.7-2.1-1.7-2.1c-0.9-0.1-1.7,0.5-2,1.5
c0,0.1-0.1,0.3-0.1,0.3c-0.9,0-1.8,0-2.7,0c0-0.1-0.1-0.1-0.1-0.1c0-1,0-2,0-3c0-1.3-0.7-2.1-1.8-2.1S35,28.1,35,29.4
c0,1.1,0,0,0,1.1c-1,0-1.8,0-2.8,0c0-0.3,0-0.6,0-0.9c0-1.7,0-1.4,0-3.1c0-1.5-0.7-2.4-1.8-2.4s-1.8,0.9-1.8,2.4c0,0.9,0,1.7,0,2.6
c0,1.1,0,0.2,0,1.4C27.2,30.5,26.3,30.5,25.3,30.5z"/>
</svg>
