<svg xmlns="http://www.w3.org/2000/svg" x="0px" y="0px" width="40px" height="40px" viewBox="0 0 40 40" >
<path fill="#FFFFFF" d="M25.1,9.4H14.9c-3.2,0-5.7,2.5-5.7,5.7v9.8c0,3.2,2.5,5.7,5.7,5.7h10.2c3.2,0,5.7-2.5,5.7-5.7v-9.8
C30.8,12,28.3,9.4,25.1,9.4z M28.9,24.7c0,2.2-1.8,3.9-3.9,3.9h-9.8c-2.2,0-3.9-1.8-3.9-3.9v-9.5c0-2.2,1.8-3.9,3.9-3.9h9.9
c2.2,0,3.9,1.8,3.9,3.9L28.9,24.7L28.9,24.7z"/>
<path fill="#FFFFFF" d="M20,14.5c-3,0-5.4,2.5-5.4,5.4s2.5,5.4,5.4,5.4s5.4-2.5,5.4-5.4S23,14.5,20,14.5z M20,23.5
c-2,0-3.5-1.5-3.5-3.5s1.5-3.5,3.5-3.5s3.5,1.5,3.5,3.5C23.5,21.9,21.9,23.5,20,23.5z"/>
<circle fill="#FFFFFF" cx="25.7" cy="14.2" r="1.2"/>
</svg>
