<?xml version="1.0" encoding="utf-8"?>
<!-- Generator: Adobe Illustrator 25.0.0, SVG Export Plug-In . SVG Version: 6.00 Build 0)  -->
<svg version="1.1" id="Layer_1" xmlns="http://www.w3.org/2000/svg" xmlns:xlink="http://www.w3.org/1999/xlink" x="0px" y="0px"
	 width="800px" height="669.7px" viewBox="0 0 800 669.7" enable-background="new 0 0 800 669.7" xml:space="preserve">
<path fill="#F4D77E" d="M178.7,620.2c-9.7-0.3-22.5-0.8-35.2-2.5l-4.3-0.6l-4.4-0.8c-2.4-0.4-4.8-0.9-7.4-1.5l-1.1-0.3
	c-1.3-0.3-2.6-0.7-3.9-1.1l-4.1-1.2c-0.9-0.3-1.8-0.7-2.7-1c-1.8-0.6-3.5-1.3-5.1-2c-0.1,0-0.2-0.1-0.3-0.1c-4.8-2-9.6-4.8-14.5-8.4
	c-1.9-1.3-3.6-2.8-5.5-4.4l-2.3-2.1c-1.7-1.6-3.3-3-4.7-4.6l-0.1-0.1c-1.8-1.8-3.5-3.6-5.3-5.6l-0.7-0.8c-0.5-0.5-0.9-1.1-1.4-1.8
	c-0.3-0.5-0.7-0.9-1-1.3l-1.2-1.5l-1-1.6c0-0.1-0.1-0.1-0.1-0.2c-2.9-4.5-4.9-9.9-6.6-15c-3.1-10.2-4.8-21.6-5.1-33.7
	c-0.2-12.1,1.2-23.5,4-33.7c0.3-0.8,0.5-1.6,0.8-2.3c0.6-1.9,1.2-3.7,2-5.2c0-0.1,0.1-0.2,0.1-0.3c0.4-0.9,0.8-1.8,1.2-2.7
	c0.8-1.9,1.7-3.8,2.5-5.9c2.2-5.8,3.4-12.1,3.6-19.5c0.2-6.1-0.3-12.6-1.7-19.2c-0.1-0.4-0.2-0.8-0.2-1.2c1.8,0.5,3.6,0.9,5.5,1
	c4,0.3,8.3-0.3,12.5-1.8c4.4-1.7,8-4,10.6-6.9c4.8-5.1,8.4-11.9,10.6-20.4c1.6-6.5,2.5-13.7,2.5-21.4c0-7-0.6-14.1-1.8-21.1
	c-1.1-6.3-2.8-13.7-6.1-20.9c-1-2-2.1-4.1-3.9-5.8c-1.7-1.7-3.8-3.1-6.3-4.1c-3.6-1.4-7.7-2-12.5-1.7c-2.1,0.1-4.3,0.4-6.5,0.8
	c1.5-3.2,2.8-6.3,4-9.4c1.8-4.9,2.8-9,3.3-13.2c0.3-2.8,0.2-5.3-0.2-7.8c-0.1-0.4-0.2-0.9-0.3-1.3l-0.1-0.4c0-0.2-0.1-0.4-0.2-0.6
	l-0.5-1.5c0-0.1-0.1-0.2-0.1-0.3c-0.3-0.8-0.6-1.6-0.8-2.3c-2.1-7-3.3-14.5-3.4-22.2l-0.1-3.1c0-0.4,0-0.9,0.1-1.3
	c0-0.4,0.1-0.8,0.1-1.1c0.1-0.7,0.1-1.4,0.2-2.2c0.1-1.2,0.2-2.4,0.3-3.3l1-5.9c0.2-1,0.5-2.1,0.8-3.2c0.2-0.7,0.4-1.4,0.6-2.1
	c0.1-0.4,0.2-0.7,0.3-1.1c0.1-0.5,0.2-1,0.4-1.3l1-2.7c0.2-0.6,0.5-1.2,0.7-1.8c0.4-1.2,0.8-2.3,1.3-3.2c0-0.1,0.1-0.1,0.1-0.2
	c0.3-0.7,0.6-1.3,1-2c0.5-1.1,1-2.1,1.5-3.2l2.9-4.9c4.1-6.3,9.1-11.9,14.6-16.8c5.7-4.7,12.1-8.6,19-11.7l5.4-2.1
	c1-0.3,2.1-0.6,3.3-0.9c0.7-0.2,1.4-0.4,2.2-0.6c1.8-0.5,3.6-0.9,5.3-1.2c2.1-0.4,3.8-0.6,5.4-0.7c1.5-0.1,5.3-0.2,5.3-0.2
	s0.1-3.9,0.2-5.4l2.3-74.5l2.2-74.7c0-1.5-0.6-2.9-1.6-3.9s-2.5-1.6-3.9-1.6l0,0l-19.4,0.1c-2.9,0-5.4,2.4-5.4,5.3l-0.1,2.8
	c-0.5,0.1-1,0.1-1.5,0.1c-1.6,0-3-0.2-4.1-0.8c-1.3-0.7-2.3-1.5-2.9-2.5c-0.1-0.1-0.1-0.2-0.2-0.3l-1.1-2.1
	c-0.2-0.5-0.4-1.1-0.6-1.6c-0.1-0.4-0.3-0.8-0.4-1.2c-1-2.7-4-4.2-6.8-3.2c-2.7,1-4.2,4-3.2,6.7c0.1,0.4,0.2,0.7,0.4,1.1
	c0.3,0.8,0.5,1.6,0.8,2.4c0.1,0.1,0.1,0.3,0.2,0.4l1.2,2.3c0.1,0.2,0.3,0.5,0.4,0.7l0.4,0.6c1.6,2.6,4.1,4.8,7.1,6.3
	c2.7,1.4,5.8,2,9.2,2c3-0.1,5.8-0.6,8.5-1.6c0.1,0,0.2-0.1,0.2-0.1c1.9-0.8,3.2-2.7,3.3-4.8L137,51h8.5l-2.5,68.8l-2.4,69.5
	c-0.4,0.1-0.8,0.1-1.2,0.2c-2.1,0.3-4.3,0.8-6.5,1.5c-0.7,0.2-1.3,0.4-2,0.5c-1.3,0.3-2.7,0.7-4.1,1.2c-0.1,0-0.1,0-0.2,0.1
	l-5.7,2.2c-0.1,0-0.1,0.1-0.2,0.1c-8.1,3.5-15.5,8-22.1,13.5c-6.5,5.6-12.3,12.1-17,19.4c0,0.1-0.1,0.1-0.1,0.2l-3.2,5.2
	c-0.1,0.1-0.1,0.2-0.2,0.3c-0.6,1.2-1.2,2.4-1.8,3.7l-0.9,1.8c-0.8,1.6-1.4,3.1-1.9,4.5c-0.2,0.5-0.4,1.1-0.6,1.7l-1.1,3
	c-0.3,0.7-0.5,1.5-0.7,2.3c-0.1,0.3-0.2,0.6-0.3,0.9c0,0.1,0,0.1-0.1,0.2c-0.2,0.6-0.3,1.3-0.5,1.9c-0.4,1.4-0.8,2.8-1.1,4.4
	l-1.1,6.2c-0.2,1.5-0.3,2.9-0.4,4.3c0,0.7-0.1,1.4-0.2,2c0,0.1,0,0.1,0,0.2c0,0.3,0,0.6-0.1,0.9c-0.1,0.8-0.1,1.6-0.1,2.5v3
	c0.1,8.8,1.4,17.4,3.8,25.6c0.1,0.3,0.2,0.6,0.4,0.9c2.6,5.1,1.4,11.2-1.3,18.7c-2.5,6.6-5.8,13.3-10.3,20.5c-1,1.6-1.2,3.7-0.5,5.5
	c1.2,3.1,4.7,4.6,7.8,3.5c0.1,0,0.1,0,0.2-0.1c6.5-2.6,12.2-4,17.5-4.3c2.9-0.2,5.4,0.1,7.3,0.9c0.9,0.3,1.6,0.8,2.2,1.4
	c0.5,0.5,1,1.5,1.5,2.4c2.7,5.8,4.2,12.5,5.1,17.7c1.1,6.2,1.7,12.6,1.7,18.9c0,6.7-0.7,12.9-2.1,18.4c-1.7,6.4-4.2,11.5-7.7,15.2
	c-1.4,1.5-3.4,2.8-6,3.8c-2.5,0.9-5,1.3-7.3,1.1c-2.4-0.2-4.8-0.9-6.8-2.2c-2-1.2-3.9-3-5.9-5.4c-1.7-2.1-4.6-2.8-7-1.7
	c-3,1.3-4.4,4.8-3.1,7.9c2.1,4.8,3.7,10.2,4.9,15.9c1.1,5.7,1.6,11.2,1.5,16.5c-0.2,6-1.1,11.2-2.8,15.6c-0.7,1.7-1.5,3.4-2.3,5.2
	c-0.4,0.9-0.8,1.8-1.2,2.7c-1.1,2.2-1.8,4.5-2.6,6.6c-0.3,0.8-0.5,1.5-0.8,2.3c0,0.1-0.1,0.2-0.1,0.4c-3.1,11.4-4.6,23.9-4.4,37.3
	c0.3,13.3,2.3,25.7,5.7,36.9c0,0.1,0,0.1,0.1,0.2c2,5.8,4.2,11.9,7.9,17.5l1.1,1.9c0.1,0.2,0.2,0.4,0.4,0.5l1.5,1.9
	c0.3,0.4,0.6,0.7,0.9,1.1c0.6,0.8,1.4,1.8,2.2,2.7l0.9,0.9c1.7,1.9,3.6,3.9,5.4,5.7c1.7,1.8,3.6,3.5,5.3,5.1l1.4,1.3
	c0.1,0.1,0.1,0.1,0.2,0.2l1,0.9c2,1.7,4.1,3.4,6.3,4.9c5.5,3.9,11,7.1,16.6,9.4c2.1,1,4.1,1.7,6.1,2.4c0.9,0.3,1.8,0.6,2.6,0.9
	c0.1,0,0.3,0.1,0.4,0.1l4.3,1.2c1.5,0.4,3.1,0.9,4.7,1.2l1,0.2c2.6,0.6,5.4,1.2,8.1,1.6l4.4,0.8c0.1,0,0.1,0,0.2,0l4.5,0.6
	c13.3,1.6,26.4,2.1,36.4,2.3h0.1c2.9,0,5.2-2.3,5.3-5.2C183.9,622.7,181.6,620.3,178.7,620.2z"/>
<path fill="#F4D77E" d="M220.3,433.4v7.6h-54.6V283.6c0-17.2,13.9-31.1,31.1-31.1l0,0v180.8h23.5V433.4z"/>
<path fill="#F4D77E" d="M305.2,252.5v151.9c0,21.5-16.9,39.5-38.4,40.2c-22.5,0.8-41.2-17.5-41.2-39.8V252.5h31.1v183.2
	c2.9,0.8,5.8,1.3,8.7,1.3c17.7,0,32.2-14.5,32.2-32.2V252.5H305.2z"/>
<path fill="#F4D77E" d="M479,347.2c-0.2,51.8-42.3,93.8-94.4,93.8h-31.1V252.5H384C436.1,252.5,479.1,295.1,479,347.2z M471.3,346.9
	c0-48-39-86.7-86.7-86.7v173.2C432.3,433.4,471.3,394.6,471.3,346.9z"/>
<path fill="#F4D77E" d="M486.9,285.7v-33.2H518v6.9L486.9,285.7z M518,274.7V441h-31.1V301L518,274.7z"/>
<path fill="#F4D77E" d="M646.3,252.5V441h-7.6v-33.7c-1.3-60.4-32.4-113.6-78.8-145.5V441h-31.4V252.5h31.4
	c37.4,24.3,65.9,61.4,78.8,105.2V252.5H646.3z"/>
<path fill="#F4D77E" d="M752.3,252.5V441h-7.6V320.3H688V441h-31.1V252.5H688v59.8h56.7v-59.8L752.3,252.5L752.3,252.5z"/>
<g>
	<path fill="#FFFFFF" d="M198.4,507.2v2.1c0,4.2-1.4,7.6-4.1,10.3c-2.7,2.7-6.4,4-10.8,4c-4.7,0-8.6-1.5-11.7-4.6
		c-3-3-4.6-6.8-4.6-11.2c0-4.4,1.5-8.1,4.6-11.2s6.9-4.6,11.4-4.6c5.7,0,10.7,2.8,13.3,7.2l-4.3,2.5c-1.6-2.9-5-4.8-9-4.8
		c-3.2,0-5.8,1-7.9,3.1c-2,2.1-3.1,4.7-3.1,7.8c0,3.1,1,5.7,3.1,7.8c2.1,2,4.8,3.1,8.2,3.1c5.4,0,8.9-2.7,9.8-7h-10.2v-4.5H198.4z"
		/>
	<path fill="#FFFFFF" d="M252.1,523.5c-4.4,0-8.1-1.5-11.2-4.6c-3-3.1-4.6-6.8-4.6-11.2c0-4.4,1.5-8.1,4.6-11.2s6.8-4.6,11.2-4.6
		s8.1,1.5,11.2,4.6c3.1,3,4.6,6.8,4.6,11.2s-1.5,8.1-4.6,11.2C260.2,522,256.5,523.5,252.1,523.5z M252.1,518.7c3,0,5.6-1,7.7-3.1
		s3.1-4.7,3.1-7.8c0-3.1-1-5.7-3.1-7.8c-2-2.1-4.6-3.1-7.7-3.1c-3,0-5.6,1-7.7,3.1c-2,2-3.1,4.7-3.1,7.8c0,3.1,1,5.7,3.1,7.8
		C246.5,517.6,249,518.7,252.1,518.7z"/>
	<path fill="#FFFFFF" d="M321.5,523.5c-4.4,0-8.1-1.5-11.2-4.6c-3-3.1-4.6-6.8-4.6-11.2c0-4.4,1.5-8.1,4.6-11.2s6.8-4.6,11.2-4.6
		s8.1,1.5,11.2,4.6c3.1,3,4.6,6.8,4.6,11.2s-1.5,8.1-4.6,11.2C329.7,522,325.9,523.5,321.5,523.5z M321.5,518.7c3,0,5.6-1,7.7-3.1
		s3.1-4.7,3.1-7.8c0-3.1-1-5.7-3.1-7.8c-2-2.1-4.6-3.1-7.7-3.1c-3,0-5.6,1-7.7,3.1c-2,2-3.1,4.7-3.1,7.8c0,3.1,1,5.7,3.1,7.8
		C315.9,517.6,318.5,518.7,321.5,518.7z"/>
	<path fill="#FFFFFF" d="M388.7,492.5c4.2,0,7.7,1.5,10.4,4.4c2.8,2.9,4.2,6.5,4.2,10.8s-1.4,7.9-4.2,10.8
		c-2.7,2.9-6.2,4.4-10.4,4.4h-12v-30.5L388.7,492.5L388.7,492.5z M388.7,518.2c2.9,0,5.2-1,7-3s2.7-4.5,2.7-7.5s-0.9-5.5-2.7-7.5
		c-1.8-2-4.1-3-7-3h-7v20.9L388.7,518.2L388.7,518.2z"/>
	<path fill="#FFFFFF" d="M517.5,492.5V523h-5v-21.7l-9.3,15.3h-0.6l-9.3-15.4V523h-5v-30.5h5.4l9.2,15.2l9.2-15.2H517.5z"/>
	<path fill="#FFFFFF" d="M558.1,492.5h5v20.1c0,3.7,2.2,6.1,6.5,6.1c4.4,0,6.5-2.4,6.5-6.1v-20.1h5v20.4c0,3.3-1.1,5.8-3.2,7.8
		c-2.1,1.9-4.9,2.9-8.3,2.9c-3.4,0-6.2-1-8.3-2.9c-2.1-2-3.2-4.5-3.2-7.8V492.5z"/>
	<path fill="#FFFFFF" d="M620.1,516.1l4.3-2.5c1.2,3.4,3.7,5.1,7.6,5.1c3.8,0,5.7-1.6,5.7-4c0-1.3-0.5-2.2-1.5-2.8
		c-1-0.7-2.8-1.4-5.4-2.2c-2.9-0.9-4.4-1.4-6.4-2.8s-3-3.4-3-6.1s1-4.8,2.9-6.4s4.2-2.4,6.9-2.4c4.9,0,8.7,2.5,10.6,6.7l-4.2,2.4
		c-1.3-2.8-3.4-4.3-6.4-4.3c-2.9,0-4.8,1.5-4.8,3.8s1.5,3.3,6.1,4.7c1.2,0.4,2,0.7,2.5,0.9c0.6,0.2,1.3,0.5,2.3,0.9s1.7,0.8,2.2,1.2
		c1.6,1.3,3.4,3.4,3.1,6.3c0,2.7-1,5-3,6.6s-4.6,2.4-7.8,2.4C626,523.5,621.7,520.7,620.1,516.1z"/>
	<path fill="#FFFFFF" d="M681.6,492.5h5V523h-5V492.5z"/>
	<path fill="#FFFFFF" d="M730.5,519c-3-3-4.5-6.8-4.5-11.3s1.5-8.2,4.5-11.2s6.8-4.6,11.4-4.6c5.5,0,10.5,2.8,13.1,7.3l-4.4,2.5
		c-1.6-3-4.9-4.9-8.7-4.9c-3.3,0-5.9,1-7.9,3.1c-2,2-3,4.7-3,7.8c0,3.2,1,5.8,3,7.8s4.7,3.1,7.9,3.1c3.8,0,7.2-1.9,8.7-4.9l4.4,2.5
		c-1.3,2.2-3.1,4-5.4,5.4c-2.3,1.3-4.9,2-7.7,2C737.3,523.5,733.5,522,730.5,519z"/>
</g>
</svg>
