<?xml version="1.0" encoding="utf-8"?>
<!-- Generator: Adobe Illustrator 23.0.1, SVG Export Plug-In . SVG Version: 6.00 Build 0)  -->
<svg version="1.1" id="Layer_1" xmlns="http://www.w3.org/2000/svg" xmlns:xlink="http://www.w3.org/1999/xlink" x="0px" y="0px"
	 width="100px" height="100px" viewBox="0 0 100 100" style="enable-background:new 0 0 100 100;" xml:space="preserve">
<circle style="fill:#40A459;" cx="49.9" cy="50" r="46.6"/>
<path style="fill:#378B4E;" d="M49.9,3.4c-0.4,0-0.7,0-1.1,0c-0.1,0-0.2,0-0.3,0c-0.3,0-0.7,0-1,0c-0.1,0-0.2,0-0.3,0
	c-0.3,0-0.5,0-0.8,0c-0.1,0-0.3,0-0.4,0c-0.3,0-0.6,0-0.9,0.1c-0.2,0-0.3,0-0.5,0c-0.2,0-0.4,0-0.5,0.1c-0.2,0-0.3,0-0.5,0.1
	c22.9,3,40.5,22.5,40.5,46.2S66.7,93.2,43.9,96.2c0.2,0,0.3,0,0.5,0.1c0.2,0,0.4,0,0.5,0.1c0.2,0,0.3,0,0.5,0c0.3,0,0.6,0.1,0.9,0.1
	c0.1,0,0.3,0,0.4,0c0.3,0,0.5,0,0.8,0c0.1,0,0.2,0,0.3,0c0.3,0,0.7,0,1,0c0.1,0,0.2,0,0.3,0c0.4,0,0.7,0,1.1,0
	c25.7,0,46.6-20.9,46.6-46.6S75.7,3.4,49.9,3.4z"/>
<path style="fill:#898790;" d="M43.9,45.9l19.4-11.2c0,0,21.3,4.5,26.2-4.4l1.5-2.8l1.3,2.9c2.8,6.1,4.3,12.8,4.3,19.5
	c0,15.4-7.7,29.9-20.5,38.6l-1.3,0.9L43.9,45.9z"/>
<path style="fill:#7A797F;" d="M96.5,50c0-8.1-2-15.6-5.6-22.2l-1.4,2.6c-1.7,3.1-4,6.4-6.3,9.3C84,43,84.4,46.4,84.4,50
	c0,13-5.3,24.8-13.9,33.2l4.3,6.3C87.9,81.3,96.5,66.6,96.5,50z"/>
<path style="fill:#3D9AE3;" d="M49.9,96.7c-15.9,0-30.6-8-39.3-21.5l-0.8-1.3L35.8,52l29.9,42l-1.9,0.6C59.3,96,54.6,96.7,49.9,96.7
	z"/>
<path style="fill:#1D81CE;" d="M65.8,93.9l-3.2-4.5c-5.6,3.5-12,6-18.8,6.9c2,0.3,4,0.3,6.1,0.3C55.5,96.6,60.9,95.7,65.8,93.9z"/>
<path style="fill:#FFFFFF;" d="M35.8,52l8.1-6.1L75,89.4l-1.5,0.9c-2.1,1.3-4.4,2.3-6.7,3.2L65.6,94L35.8,52z"/>
<path style="fill:#E0E0E3;" d="M65.6,94c3.3-1.2,6.5-2.7,9.4-4.6l-4.5-6.3c-2.4,2.4-5.2,4.6-8.1,6.4L65.6,94z"/>
<path style="fill:#FFCE00;" d="M9,72.5c-1.3-2.3-2.4-4.8-3.2-7.3l-0.4-1.5l54.7-38l8.1,6.1L9.8,73.9L9,72.5z"/>
<path style="fill:#CD2900;" d="M73.1,48.9c-2.9-3-17.2-18.4-17.2-27.3c0-10.1,8.2-18.3,18.3-18.3s18.3,8.2,18.3,18.3
	c0,8.9-14.3,24.3-17.2,27.3l0,0C74.8,49.6,73.7,49.6,73.1,48.9L73.1,48.9z"/>
<path style="fill:#891D00;" d="M74.3,27.8c-4.5,0-8.2-3.7-8.2-8.2s3.7-8.2,8.2-8.2c4.5,0,8.2,3.7,8.2,8.2S78.8,27.8,74.3,27.8z"/>
<path style="fill:#FFFFFF;" d="M29.7,37.3c5.3,0,9.6-4.3,9.6-9.6c0-0.8-0.7-1.5-1.5-1.5h-6.1c-0.8,0-1.5,0.7-1.5,1.5
	c0,0.8,0.7,1.5,1.5,1.5h4.4c-0.7,2.9-3.3,5.1-6.4,5.1c-3.6,0-6.6-3-6.6-6.6s3-6.6,6.6-6.6c1.6,0,3.2,0.6,4.4,1.6
	c0.6,0.6,1.6,0.5,2.1-0.1c0.6-0.6,0.5-1.6-0.1-2.1c-1.8-1.6-4-2.4-6.4-2.4c-5.3,0-9.6,4.3-9.6,9.6S24.4,37.3,29.7,37.3z"/>
</svg>
