<?xml version="1.0" encoding="utf-8"?>
<!-- Generator: Adobe Illustrator 25.0.0, SVG Export Plug-In . SVG Version: 6.00 Build 0)  -->
<svg version="1.1" id="Layer_1" xmlns="http://www.w3.org/2000/svg" xmlns:xlink="http://www.w3.org/1999/xlink" x="0px" y="0px"
	 width="60px" height="120px" viewBox="0 0 60 120" enable-background="new 0 0 60 120" xml:space="preserve">
<path fill="#062156" d="M15.5,35.6l0.2-11.7h2.5l1.4,7.4l1.6-7.4h2.4l0.2,11.7h-1.7L22,27.7l-1.5,7.9h-1.5l-1.5-7.9l-0.1,7.9H15.5z"
	/>
<path fill="#062156" d="M25.5,35.6V23.9h5.1v1.6h-2.7v3.2H30v1.6h-2.1V34h2.7v1.6H25.5z"/>
<path fill="#062156" d="M31.8,35.6V23.9h1.6l2.6,6.1v-6.1h2v11.7h-1.5l-2.6-6.5v6.5H31.8z"/>
<path fill="#062156" d="M43.1,35.7c-0.9,0-1.5-0.1-2.1-0.4c-0.5-0.3-0.9-0.8-1.1-1.3c-0.2-0.5-0.3-1.3-0.3-2.1v-8h2.4v8.4
	c0,0.3,0,0.5,0.1,0.9c0.1,0.3,0.1,0.5,0.3,0.7c0.1,0.2,0.3,0.2,0.7,0.2s0.5-0.1,0.7-0.2c0.1-0.2,0.2-0.4,0.3-0.7
	c0-0.3,0.1-0.5,0.1-0.9v-8.4h2.4v8c0,0.9-0.1,1.5-0.3,2.1c-0.2,0.5-0.5,1-1.1,1.3C44.8,35.6,44,35.7,43.1,35.7z"/>
<path fill="#FFFFFF" d="M16.1,96.6c-0.9,0-1.5-0.2-2.1-0.5s-0.9-0.8-1.1-1.4c-0.2-0.5-0.3-1.3-0.3-2.1v-4.2c0-0.8,0.1-1.5,0.3-2.1
	s0.5-1.1,1.1-1.3c0.5-0.3,1.2-0.4,2.1-0.4s1.5,0.1,2,0.4c0.4,0.3,0.8,0.7,1,1.2c0.2,0.5,0.3,1.1,0.3,1.7v1h-2.3v-1.1
	c0-0.2,0-0.5,0-0.8c0-0.2-0.1-0.4-0.2-0.5c-0.1-0.1-0.3-0.2-0.7-0.2s-0.5,0.1-0.7,0.2c-0.1,0.1-0.2,0.3-0.3,0.7
	c0,0.2-0.1,0.5-0.1,0.9v5.3c0,0.3,0,0.7,0.1,0.9c0,0.2,0.1,0.4,0.3,0.5c0.1,0.1,0.3,0.2,0.7,0.2c0.3,0,0.5-0.1,0.7-0.2
	c0.1-0.1,0.2-0.3,0.2-0.7c0-0.2,0-0.5,0-0.8v-1.1h2.3v1c0,0.7-0.1,1.3-0.3,1.8c-0.2,0.5-0.5,1-1,1.2C17.6,96.5,17,96.6,16.1,96.6z"
	/>
<path fill="#FFFFFF" d="M20.9,96.5V84.8h2.4v10.1H26v1.6H20.9z"/>
<path fill="#FFFFFF" d="M30.2,96.6c-0.9,0-1.5-0.1-2.1-0.4s-0.9-0.8-1.1-1.3c-0.2-0.7-0.3-1.3-0.3-2.1v-4.3c0-0.8,0.1-1.5,0.3-2.1
	c0.2-0.5,0.5-1,1.1-1.3c0.5-0.3,1.2-0.4,2.1-0.4s1.5,0.1,2.1,0.4c0.5,0.3,0.9,0.8,1.1,1.3c0.2,0.5,0.3,1.2,0.3,2.1v4.3
	c0,0.8-0.1,1.5-0.3,2.1c-0.2,0.5-0.5,1-1.1,1.3C31.7,96.5,31.1,96.6,30.2,96.6z M30.2,94.9c0.3,0,0.5-0.1,0.7-0.2
	c0.1-0.1,0.2-0.3,0.3-0.5c0-0.2,0.1-0.4,0.1-0.8v-5.5c0-0.2,0-0.5-0.1-0.8c0-0.2-0.1-0.4-0.3-0.5c-0.1-0.1-0.3-0.2-0.7-0.2
	s-0.5,0.1-0.7,0.2c-0.1,0.1-0.2,0.3-0.3,0.5c0,0.2-0.1,0.4-0.1,0.8v5.5c0,0.2,0,0.5,0.1,0.8c0,0.2,0.1,0.4,0.3,0.5
	C29.7,94.9,29.9,94.9,30.2,94.9z"/>
<path fill="#FFFFFF" d="M38.3,96.6c-0.8,0-1.3-0.1-1.8-0.4C36,96,35.5,95.6,35.3,95c-0.2-0.5-0.4-1.2-0.4-2.1l2.1-0.3
	c0,0.4,0.1,0.9,0.1,1.2c0.1,0.3,0.2,0.5,0.3,0.8c0.2,0.1,0.3,0.2,0.7,0.2s0.5-0.1,0.7-0.3c0.1-0.2,0.2-0.4,0.2-0.7
	c0-0.5-0.1-0.9-0.3-1.2c-0.2-0.3-0.5-0.7-1-1l-1.2-1.1c-0.4-0.3-0.8-0.8-1.1-1.2c-0.3-0.4-0.4-1-0.4-1.7c0-1,0.3-1.7,0.9-2.2
	c0.5-0.5,1.3-0.8,2.3-0.8c0.5,0,1.1,0.1,1.4,0.3c0.3,0.2,0.7,0.4,0.9,0.8c0.2,0.3,0.3,0.7,0.4,1.1c0.1,0.3,0.1,0.8,0.1,1.1l-2.1,0.3
	c0-0.3,0-0.7-0.1-1c0-0.2-0.1-0.4-0.2-0.7c-0.1-0.1-0.3-0.2-0.5-0.2c-0.3,0-0.4,0.1-0.7,0.3c-0.1,0.2-0.2,0.4-0.2,0.7
	c0,0.4,0.1,0.8,0.3,1c0.2,0.2,0.4,0.5,0.8,0.9l1.2,1.1c0.5,0.4,0.9,0.9,1.3,1.4c0.3,0.5,0.5,1.2,0.5,2.1c0,0.5-0.1,1.1-0.3,1.5
	c-0.2,0.4-0.7,0.8-1.1,1.1C39.4,96.5,38.9,96.6,38.3,96.6z"/>
<path fill="#FFFFFF" d="M42.4,96.5V84.8h5.1v1.6h-2.7v3.2h2.1v1.6h-2.1v3.7h2.7v1.6H42.4z"/>
</svg>
