<svg xmlns="http://www.w3.org/2000/svg" x="0px" y="0px" viewBox="0 0 80 80" >
<path fill="#BE0000" d="M21,61.9c-1.6,0-3-0.6-4.1-1.8c-1.1-1-1.5-2.6-1.1-4.1c0.9-3.6,7.1-7.8,15-10c0.1-0.2,0.2-0.4,0.3-0.6
c0.3-0.5,0.5-0.9,0.7-1.4c4.1-8.2,3.6-18.8,3.2-23c-0.1-0.8-0.2-1.4-0.3-2l-0.1-0.7l0-0.3c0-0.5,0-1.3,0.5-2l0.1-0.2l0.4-0.2
c0.3-0.2,0.8-0.4,1.3-0.4c1.3,0,2.1,0.8,2.4,2.3l0,0.1c0.1,0.8,0.2,1.7,0.3,2.8c0.7,4.1,3,14.6,9,21.4c0.4,0.5,1,1.2,1.6,1.7
c7.2,0.5,15.1,2.7,17.1,6.2c0.7,1,0.8,2.5,0.3,3.9l0,0.1l-0.1,0.1c-1.2,1.9-3,3-5.1,3c-3.7,0-8.1-2.8-14-8.8c-2.5,0-4.6,0.1-6.3,0.4
c-0.4,0-0.8,0.1-1.3,0.1c-0.5,0.1-1.1,0.1-1.4,0.2c-1.8,0.2-3.8,0.6-5.4,1.1C29.3,57.9,24.9,61.9,21,61.9 M20.2,57
c0.3,0.2,0.6,0.3,0.7,0.3c1,0,3-1.3,5.7-4.8C22.8,54.2,20.7,56.1,20.2,57 M56.1,48.9c3.4,2.8,5.3,3.3,6.2,3.3c0.5,0,0.8-0.1,1-0.4
C62.6,51,60.2,49.7,56.1,48.9 M39.2,35.1c-0.6,3.4-1.4,6.5-2.7,9.3c0.7-0.1,1.5-0.2,2.2-0.2c0.7,0,1.5-0.1,2.2-0.2l0.4-0.1
c0.8-0.1,1.7-0.2,2.6-0.3c0.1,0,0.2,0,0.4,0C42.3,41.1,40.6,38.3,39.2,35.1"/>
<path fill="#BE0000" d="M40,79C18.5,79,1,61.5,1,40S18.5,1,40,1s39,17.5,39,39S61.5,79,40,79 M40,3.1c-20.3,0-36.9,16.6-36.9,37
c0,20.3,16.6,36.9,37,36.9C60.4,77,77,60.4,77,40.1C77,19.7,60.4,3.1,40,3.1"/>
</svg>
