<svg xmlns="http://www.w3.org/2000/svg"  x="0px" y="0px" viewBox="0 0 110 110">
<path fill="#FFFFFF" d="M55,107C26.335,107,3,83.701,3,55S26.335,3,55,3s52,23.335,52,52c0,8.283-1.981,16.493-5.762,23.803
c-3.637,7.058-8.967,13.288-15.377,18.042c-0.18,0.144-0.396,0.216-0.648,0.216c-0.36,0-0.648-0.144-0.864-0.432
c-0.18-0.216-0.252-0.504-0.216-0.792c0.036-0.288,0.18-0.54,0.432-0.72c6.158-4.537,11.235-10.515,14.729-17.285
c3.673-7.094,5.51-14.765,5.51-22.831C104.839,27.524,82.476,5.161,55,5.161S5.161,27.524,5.161,55S27.524,104.839,55,104.839
c0.612,0,1.08,0.468,1.08,1.08C56.08,106.532,55.612,107,55,107z"/>
<path fill="#FFFFFF" d="M41.424,79.668c-0.684-0.396-1.08-1.116-1.08-1.873V30.368c0-1.188,0.972-2.161,2.161-2.161
c1.188,0,2.161,0.972,2.161,2.161v43.609l31.978-19.05L53.127,39.767c-1.008-0.648-1.296-1.981-0.648-2.989
c0.648-1.008,1.981-1.296,2.989-0.648l26.468,17.033c0.612,0.396,1.008,1.116,0.972,1.837c-0.036,0.72-0.396,1.44-1.044,1.837
L43.621,79.596C42.936,80.028,42.108,80.028,41.424,79.668z"/>
</svg>
