<svg xmlns="http://www.w3.org/2000/svg" x="0px" y="0px" width="40px" height="40px" viewBox="0 0 40 40" >
<path fill="#FFFFFF" d="M29.1,15.4c-0.2-1-1.1-1.8-2.1-1.9 c-2.4-0.3-4.8-0.3-7.1-0.3c-2.4,0-4.8,0-7.1,0.3c-1,0.1-1.8,0.9-2.1,1.9c-0.3,1.4-0.3,3-0.3,4.5c0,1.5,0,3.1,0.3,4.5
c0.2,1,1.1,1.8,2.1,1.9c2.4,0.3,4.8,0.3,7.1,0.3c2.4,0,4.8,0,7.1-0.3c1-0.1,1.8-0.9,2.1-1.9c0.3-1.4,0.3-3,0.3-4.5
C29.5,18.4,29.5,16.8,29.1,15.4L29.1,15.4z M17.5,22.8v-6.3c2,1.1,4,2.1,6.1,3.2C21.5,20.7,19.5,21.8,17.5,22.8L17.5,22.8z M17.5,22.8"/>
</svg>
