<?xml version="1.0" encoding="utf-8"?>
<!-- Generator: Adobe Illustrator 23.0.1, SVG Export Plug-In . SVG Version: 6.00 Build 0)  -->
<svg version="1.1" id="Layer_1" xmlns="http://www.w3.org/2000/svg" xmlns:xlink="http://www.w3.org/1999/xlink" x="0px" y="0px"
	 width="60px" height="60px" viewBox="0 0 60 60" style="enable-background:new 0 0 60 60;" xml:space="preserve">
<path style="fill:#FFFFFF;" d="M45.7,8.7c-3.5,0-6.3,2.9-6.3,6.5c0,0.6,0.1,1.2,0.3,1.8l-18.4,8c-1.1-2-3.1-3.3-5.4-3.3
	c-3.5,0-6.3,2.9-6.3,6.5s2.8,6.5,6.3,6.5c1.8,0,3.4-0.8,4.6-2.1l11.8,8.8c-0.5,0.9-0.7,1.9-0.7,3c0,3.6,2.8,6.5,6.3,6.5
	s6.3-2.9,6.3-6.5s-2.8-6.5-6.3-6.5c-1.8,0-3.5,0.8-4.6,2.2l-11.8-8.8c0.5-0.9,0.8-2,0.8-3.1c0-0.6-0.1-1.2-0.3-1.7l18.4-8
	c1.1,1.9,3.1,3.2,5.4,3.2c3.5,0,6.3-2.9,6.3-6.5C52,11.6,49.2,8.7,45.7,8.7"/>
</svg>
